<svg id="svg" version="1.1" xmlns="http://www.w3.org/2000/svg" xmlns:xlink="http://www.w3.org/1999/xlink" width="400" height="400" viewBox="0, 0, 400,400"><g id="svgg"><path id="path0" d="M96.123 55.246 C 97.326 57.636,99.757 61.062,101.035 62.168 C 101.526 62.594,101.418 62.355,100.735 61.507 C 99.701 60.224,99.376 59.333,99.941 59.333 C 100.092 59.333,101.330 60.646,102.691 62.250 C 104.053 63.854,106.828 66.899,108.858 69.017 C 110.888 71.135,113.556 74.202,114.786 75.834 C 118.216 80.380,118.920 82.051,120.304 88.924 C 120.499 89.891,120.950 91.285,121.306 92.022 C 122.675 94.857,122.430 96.500,120.857 95.023 L 120.098 94.309 119.882 96.370 C 119.743 97.701,119.798 98.590,120.038 98.879 C 120.319 99.217,120.278 99.375,119.871 99.532 C 119.575 99.645,119.333 100.022,119.333 100.369 C 119.333 100.716,119.174 101.000,118.980 101.000 C 118.786 101.000,118.712 101.137,118.816 101.305 C 118.920 101.473,118.865 101.979,118.693 102.430 C 118.485 102.977,118.504 103.370,118.750 103.616 C 119.018 103.885,118.972 104.145,118.582 104.576 C 117.714 105.535,117.322 106.855,117.772 107.305 C 118.289 107.823,117.534 108.311,116.546 108.097 C 115.983 107.975,115.936 108.014,116.322 108.285 C 116.780 108.607,116.339 110.617,115.085 113.920 C 114.985 114.186,115.111 114.270,115.429 114.148 C 116.253 113.832,116.344 114.450,115.832 116.872 C 115.197 119.869,114.840 126.568,115.157 129.509 L 115.409 131.833 116.806 130.250 C 120.081 126.538,119.305 128.868,115.504 134.158 C 112.241 138.699,111.814 139.537,113.568 137.959 C 116.010 135.759,120.865 134.943,124.299 136.154 C 126.870 137.062,131.098 139.453,132.472 140.778 C 134.065 142.314,133.633 142.788,131.785 141.531 C 130.223 140.470,130.166 140.538,131.018 142.462 C 131.700 144.005,131.759 145.219,131.147 145.112 C 130.974 145.082,130.830 145.702,130.826 146.489 C 130.820 147.514,130.939 147.875,131.242 147.758 C 132.088 147.434,131.645 148.893,129.754 152.665 C 125.797 160.560,121.237 162.498,116.713 158.211 L 115.259 156.833 115.844 158.000 C 116.692 159.689,118.696 162.546,120.575 164.746 C 122.721 167.257,124.977 171.240,125.654 173.711 C 126.219 175.775,126.667 175.978,126.667 174.170 C 126.667 172.385,127.651 170.083,128.873 169.010 C 130.033 167.992,131.000 167.696,131.000 168.359 C 131.000 168.557,131.584 168.219,132.298 167.609 C 133.011 166.999,134.831 165.765,136.342 164.868 C 141.771 161.641,145.000 156.737,145.000 151.717 C 145.000 151.029,145.169 150.297,145.377 150.090 C 146.439 149.027,145.829 142.161,144.020 134.833 C 138.455 112.291,140.931 97.010,149.722 99.644 C 156.924 101.802,157.599 115.837,151.321 132.899 C 148.925 139.411,148.656 140.636,148.438 146.007 C 148.149 153.139,149.207 154.521,159.349 160.259 C 160.366 160.834,162.349 162.287,163.754 163.486 C 165.160 164.685,166.450 165.667,166.621 165.667 C 169.346 165.667,172.600 175.828,171.157 179.833 C 170.636 181.281,170.518 182.667,170.917 182.666 C 171.473 182.664,175.277 180.500,176.912 179.255 C 179.072 177.610,179.836 177.725,179.577 179.656 C 179.379 181.131,177.513 184.619,176.768 184.904 C 175.946 185.220,175.201 184.204,175.646 183.372 C 176.140 182.449,176.181 182.438,172.771 184.098 C 170.583 185.163,169.858 185.675,169.939 186.096 C 169.999 186.407,169.516 187.892,168.866 189.395 C 168.216 190.899,167.731 192.176,167.788 192.233 C 167.990 192.435,173.766 188.644,176.450 186.549 C 179.818 183.920,183.020 181.667,183.389 181.667 C 183.900 181.667,183.674 182.449,182.937 183.233 C 182.248 183.968,181.668 185.623,179.926 191.833 C 178.933 195.374,178.863 201.819,179.786 204.833 C 180.806 208.168,184.172 211.880,191.077 217.287 C 203.333 226.883,205.673 229.877,209.000 240.225 C 209.688 242.363,210.118 243.195,210.631 243.386 C 212.365 244.027,217.758 255.672,219.175 261.833 C 220.430 267.291,220.694 276.208,219.889 286.000 C 219.611 289.392,219.280 294.117,219.155 296.500 C 218.913 301.119,218.677 302.000,217.683 302.000 C 216.751 302.000,215.976 304.378,215.899 307.476 L 215.833 310.094 218.000 310.867 C 220.892 311.898,221.514 311.864,224.811 310.500 C 228.244 309.079,229.881 309.005,231.888 310.181 C 234.082 311.467,234.422 311.259,234.922 308.333 C 235.813 303.105,237.076 298.769,239.700 291.917 C 244.031 280.609,245.713 275.012,246.838 268.167 C 248.087 260.562,246.810 244.374,243.814 229.833 C 241.257 217.426,241.072 215.894,242.287 217.169 C 243.362 218.298,247.027 235.548,247.988 244.000 C 248.507 248.567,249.296 260.369,249.184 261.880 C 249.131 262.588,249.153 262.740,249.234 262.220 C 249.367 261.357,249.430 261.317,249.940 261.777 C 250.248 262.054,251.325 262.605,252.333 263.002 C 253.342 263.398,255.421 264.480,256.954 265.406 C 258.487 266.332,260.949 267.592,262.425 268.205 C 266.584 269.933,268.004 271.902,265.677 272.713 C 265.132 272.903,264.645 273.017,264.593 272.966 C 264.542 272.916,263.746 273.390,262.824 274.020 C 261.902 274.651,260.394 275.516,259.472 275.943 L 257.797 276.720 259.555 281.110 C 262.996 289.703,262.967 291.991,259.204 308.774 L 257.435 316.664 259.135 317.976 C 262.466 320.545,263.569 320.782,267.295 319.729 L 269.423 319.128 270.402 316.661 C 271.485 313.932,271.459 312.387,270.315 311.407 C 269.021 310.299,269.698 307.415,273.191 299.156 C 280.803 281.155,282.120 267.751,278.513 244.985 C 278.064 242.152,277.392 237.653,277.020 234.989 C 276.031 227.915,274.572 224.105,272.614 223.483 C 272.276 223.376,271.998 223.111,271.996 222.894 C 271.977 220.967,261.389 210.414,249.564 200.539 C 244.212 196.070,237.735 190.498,235.170 188.158 C 224.524 178.445,219.202 175.215,211.833 173.999 C 206.141 173.060,200.221 171.795,198.258 171.099 C 197.391 170.792,196.627 170.606,196.559 170.687 C 196.492 170.767,195.814 171.761,195.053 172.896 C 192.400 176.852,188.602 180.411,187.657 179.827 C 186.962 179.398,187.419 178.514,189.525 176.220 C 196.747 168.353,205.000 150.448,205.000 142.649 C 205.000 141.956,204.826 141.331,204.614 141.260 C 203.915 141.027,204.604 139.572,207.027 136.167 C 211.266 130.208,211.829 128.323,209.857 126.686 C 208.962 125.944,209.272 125.093,210.917 123.780 C 218.654 117.598,223.395 111.302,226.351 103.284 C 227.643 99.781,227.601 99.728,225.859 102.674 C 224.293 105.319,221.442 108.773,221.032 108.520 C 220.898 108.437,220.849 108.789,220.925 109.304 C 221.255 111.554,217.968 115.687,215.193 116.511 C 209.639 118.160,203.001 114.504,202.809 109.688 C 202.718 107.431,199.699 100.081,199.677 102.064 C 199.654 104.097,198.675 103.367,197.039 100.095 C 189.668 85.361,189.593 79.102,196.552 59.667 C 197.879 55.963,187.149 74.694,185.382 79.167 C 183.397 84.191,183.387 83.703,185.513 85.343 C 187.436 86.827,188.600 88.462,187.999 88.834 C 187.608 89.075,187.455 88.990,184.833 87.064 C 175.838 80.456,160.203 78.960,144.306 83.186 C 138.169 84.817,132.626 88.130,126.923 93.575 C 124.674 95.722,123.896 96.015,123.233 94.963 C 122.754 94.202,124.189 92.425,127.312 89.915 C 128.699 88.800,129.957 87.781,130.109 87.651 C 130.798 87.062,126.677 80.365,123.687 77.214 C 122.006 75.444,115.003 69.847,108.202 64.840 C 104.563 62.161,101.348 59.376,97.911 55.926 L 94.988 52.992 96.123 55.246 M194.050 72.975 C 193.660 75.334,193.532 78.246,193.831 77.947 C 194.045 77.733,194.740 70.963,194.566 70.788 C 194.493 70.715,194.261 71.699,194.050 72.975 M112.032 75.196 C 112.656 76.093,114.110 78.704,115.264 80.997 C 117.328 85.102,117.886 85.159,115.994 81.072 C 115.039 79.008,111.887 74.176,111.233 73.771 C 111.048 73.657,111.408 74.298,112.032 75.196 M193.429 81.167 C 193.431 82.083,193.496 82.419,193.573 81.912 C 193.649 81.405,193.647 80.655,193.568 80.245 C 193.489 79.835,193.426 80.250,193.429 81.167 M89.844 102.000 C 92.563 111.302,99.745 121.649,107.480 127.413 C 109.820 129.156,112.299 130.667,112.820 130.667 C 112.919 130.667,113.001 129.204,113.003 127.417 C 113.004 125.629,113.140 123.267,113.305 122.167 C 113.470 121.067,113.692 119.492,113.798 118.667 L 113.992 117.167 113.335 118.465 C 112.955 119.215,112.758 120.081,112.867 120.517 C 113.140 121.604,112.502 122.567,111.002 123.332 C 107.267 125.238,103.805 123.030,100.503 116.638 C 99.641 114.968,98.644 113.311,98.289 112.955 C 97.933 112.600,97.734 112.161,97.846 111.980 C 97.958 111.798,97.908 111.691,97.735 111.742 C 97.304 111.867,94.865 108.861,91.995 104.667 C 90.678 102.742,89.710 101.542,89.844 102.000 M205.333 111.833 C 205.955 112.475,206.539 113.000,206.631 113.000 C 206.722 113.000,206.289 112.475,205.667 111.833 C 205.045 111.192,204.461 110.667,204.369 110.667 C 204.278 110.667,204.711 111.192,205.333 111.833 M216.390 113.242 C 215.963 113.540,214.913 113.972,214.057 114.202 C 212.819 114.536,212.694 114.626,213.450 114.644 C 214.505 114.669,216.425 113.859,217.025 113.136 C 217.521 112.539,217.363 112.565,216.390 113.242 M204.195 117.450 C 205.646 118.797,207.321 120.151,207.917 120.458 C 209.116 121.077,209.237 121.388,208.513 121.989 C 206.977 123.264,201.000 118.181,201.000 115.601 C 201.000 114.629,201.413 114.868,204.195 117.450 M171.052 124.159 C 168.135 126.794,166.661 129.882,166.353 134.000 C 166.140 136.862,165.081 137.777,164.303 135.773 C 163.023 132.479,165.567 127.082,169.964 123.762 C 172.186 122.085,173.014 122.387,171.052 124.159 M129.608 129.006 C 132.790 132.041,134.865 138.333,132.685 138.333 C 131.892 138.333,131.461 137.760,131.182 136.333 C 130.502 132.866,129.947 131.886,127.085 129.098 C 125.540 127.593,124.375 126.202,124.496 126.007 C 124.825 125.474,127.631 127.120,129.608 129.006 M195.595 129.499 C 199.438 132.954,200.790 137.667,197.939 137.667 C 197.368 137.667,197.317 137.501,197.499 136.250 C 197.733 134.645,196.348 131.922,194.139 129.646 C 193.117 128.592,192.954 128.000,193.686 128.000 C 193.819 128.000,194.678 128.675,195.595 129.499 M176.333 130.958 C 176.333 132.038,171.491 135.260,170.461 134.865 C 169.229 134.392,170.020 133.331,172.583 132.021 C 175.119 130.724,176.333 130.380,176.333 130.958 M188.321 134.048 C 194.191 137.059,196.975 139.563,196.067 141.016 C 195.847 141.369,195.667 142.086,195.667 142.609 C 195.667 152.773,185.779 160.214,176.923 156.712 C 172.032 154.778,164.433 147.174,166.262 146.044 C 166.455 145.925,166.722 145.378,166.854 144.830 C 167.268 143.110,167.943 142.089,169.170 141.331 C 170.010 140.812,170.303 140.429,170.172 140.018 C 169.812 138.883,173.004 135.416,175.917 133.780 C 180.496 131.207,182.882 131.258,188.321 134.048 M156.785 138.860 C 157.251 144.266,157.234 145.167,156.668 145.167 C 155.559 145.167,154.583 137.926,155.417 135.889 C 155.989 134.491,156.505 135.610,156.785 138.860 M142.479 137.087 C 143.721 138.984,144.440 145.581,143.439 145.911 C 142.817 146.116,142.395 144.984,142.030 142.137 C 141.844 140.687,141.591 138.787,141.467 137.917 C 141.218 136.158,141.642 135.811,142.479 137.087 M153.856 138.037 C 153.982 138.241,153.912 138.515,153.700 138.646 C 153.449 138.801,153.338 139.841,153.381 141.618 C 153.474 145.379,152.527 146.122,151.895 142.783 C 151.383 140.077,152.879 136.456,153.856 138.037 M140.135 140.893 C 140.810 142.872,140.813 144.473,140.143 145.143 C 138.999 146.286,138.800 145.936,138.495 142.250 C 138.201 138.682,139.122 137.919,140.135 140.893 M169.000 158.534 C 170.925 159.520,173.523 161.153,174.772 162.164 C 177.676 164.510,180.692 164.503,186.800 162.136 C 190.179 160.826,188.365 162.808,184.569 164.573 C 178.986 167.169,176.736 166.952,172.855 163.445 C 171.767 162.462,170.192 161.263,169.355 160.782 C 161.677 156.363,161.406 154.645,169.000 158.534 M135.805 159.306 C 128.845 165.844,124.064 167.761,121.388 165.085 C 120.277 163.974,120.931 163.642,123.710 163.907 C 126.102 164.136,132.016 161.217,136.112 157.787 C 138.029 156.181,137.771 157.459,135.805 159.306 M129.873 170.023 C 129.041 171.431,129.330 171.514,130.235 170.127 C 130.639 169.507,130.859 169.000,130.723 169.000 C 130.588 169.000,130.205 169.460,129.873 170.023 M128.411 177.333 C 128.411 177.975,128.479 178.237,128.563 177.917 C 128.647 177.596,128.647 177.071,128.563 176.750 C 128.479 176.429,128.411 176.692,128.411 177.333 M194.667 179.850 C 194.667 181.824,189.257 187.966,184.873 190.968 C 180.253 194.133,179.036 193.673,182.854 190.207 C 184.292 188.901,187.350 185.934,189.651 183.614 C 193.732 179.496,194.667 178.795,194.667 179.850 M167.250 195.184 C 165.829 196.012,164.667 196.768,164.667 196.864 C 164.667 197.068,164.494 197.158,167.583 195.344 C 169.632 194.140,170.326 193.643,169.917 193.673 C 169.871 193.676,168.671 194.356,167.250 195.184 M158.500 199.000 C 157.593 199.231,157.577 199.256,158.333 199.270 C 158.792 199.279,159.467 199.158,159.833 199.000 C 160.655 198.647,159.888 198.647,158.500 199.000 M290.667 215.232 C 285.781 220.062,280.863 223.149,277.405 223.555 C 276.436 223.669,275.697 223.853,275.762 223.964 C 275.827 224.076,276.156 224.807,276.493 225.589 C 277.258 227.365,277.862 227.316,282.964 225.066 C 287.831 222.920,289.726 221.590,293.218 217.867 C 296.627 214.233,297.180 213.247,295.635 213.556 C 295.049 213.673,294.380 213.556,293.921 213.254 C 293.198 212.781,293.062 212.864,290.667 215.232 M151.416 239.057 C 151.531 239.364,153.277 245.664,155.296 253.057 C 157.314 260.451,159.959 269.725,161.173 273.667 C 164.840 285.566,166.217 291.446,168.372 304.398 L 169.465 310.964 170.649 311.145 C 173.024 311.509,182.133 311.267,183.250 310.810 C 184.534 310.285,184.503 310.691,183.634 305.783 C 182.995 302.175,182.928 300.421,182.863 285.500 C 182.804 271.864,182.696 268.547,182.210 265.417 L 181.628 261.668 179.750 259.917 C 178.718 258.954,177.114 257.397,176.186 256.455 C 174.901 255.151,173.549 254.289,170.500 252.832 C 163.847 249.653,155.578 243.845,152.706 240.333 C 151.881 239.325,151.301 238.751,151.416 239.057 M178.500 256.000 C 179.403 256.917,180.217 257.667,180.308 257.667 C 180.400 257.667,179.736 256.917,178.833 256.000 C 177.930 255.083,177.117 254.333,177.025 254.333 C 176.933 254.333,177.597 255.083,178.500 256.000 M191.701 271.444 C 190.728 277.028,191.657 283.851,194.529 292.234 C 195.877 296.167,196.060 297.017,195.905 298.635 C 195.758 300.169,190.730 316.755,190.105 317.766 C 190.003 317.932,190.199 317.925,190.543 317.751 C 191.673 317.178,197.809 316.541,198.521 316.922 C 200.116 317.776,201.216 317.233,203.374 314.530 L 205.425 311.961 205.207 308.064 C 204.246 290.879,204.703 288.043,209.560 281.067 C 211.124 278.819,211.273 278.470,210.756 278.259 C 202.541 274.907,196.957 272.295,194.077 270.455 C 193.111 269.838,192.264 269.333,192.194 269.333 C 192.125 269.333,191.903 270.283,191.701 271.444 M162.766 328.417 C 162.091 329.158,161.196 330.667,161.432 330.667 C 161.499 330.667,162.038 329.992,162.631 329.167 C 163.797 327.543,163.855 327.221,162.766 328.417 M262.083 340.230 C 262.404 340.314,262.929 340.314,263.250 340.230 C 263.571 340.146,263.308 340.077,262.667 340.077 C 262.025 340.077,261.762 340.146,262.083 340.230 " stroke="none" fill="#763812" fill-rule="evenodd"></path><path id="path1" d="M221.118 36.848 C 216.581 39.086,216.579 39.089,211.930 45.378 C 202.537 58.086,199.106 66.299,198.008 78.704 C 197.473 84.756,197.516 85.573,198.335 84.832 C 199.986 83.338,201.511 85.767,201.272 89.510 C 201.194 90.746,201.270 91.596,201.457 91.560 C 201.632 91.527,202.163 92.256,202.638 93.181 C 203.112 94.105,203.838 95.288,204.250 95.809 C 205.149 96.945,205.199 97.933,204.423 99.285 C 203.715 100.519,203.868 100.689,205.850 100.875 C 208.612 101.133,209.469 102.126,208.518 103.966 C 207.522 105.891,204.398 107.617,203.782 106.581 C 203.522 106.144,202.000 105.541,202.000 105.876 C 202.000 108.064,204.379 109.999,207.121 110.040 C 217.447 110.195,227.070 95.782,231.320 73.796 C 233.008 65.061,230.882 50.960,225.913 37.931 L 224.806 35.029 221.118 36.848 M89.678 52.415 C 85.510 58.781,84.346 69.305,86.109 84.667 C 87.431 96.178,87.995 97.505,95.271 106.215 C 103.626 116.216,105.505 117.995,107.720 117.998 C 109.686 118.001,111.963 114.724,112.004 111.833 C 112.015 111.100,112.224 110.139,112.469 109.697 C 112.869 108.974,112.834 108.824,112.119 108.197 C 111.578 107.723,111.282 107.049,111.194 106.092 C 111.123 105.317,110.750 104.175,110.366 103.553 C 109.440 102.055,109.484 101.195,110.556 99.789 L 111.446 98.622 110.724 94.228 C 108.826 82.675,103.407 69.505,98.463 64.425 C 95.182 61.055,93.714 58.616,92.280 54.150 C 90.976 50.091,91.132 50.195,89.678 52.415 M200.000 100.000 C 200.000 101.259,200.056 101.333,201.000 101.333 C 202.259 101.333,202.420 99.999,201.259 99.186 C 200.167 98.421,200.000 98.529,200.000 100.000 M146.164 100.270 C 140.472 102.934,139.666 115.874,144.073 133.833 C 148.024 149.937,145.757 159.256,136.489 165.007 C 130.003 169.032,129.084 170.550,128.706 177.877 C 128.520 181.480,128.308 183.143,128.012 183.326 C 127.568 183.600,128.923 186.521,130.336 188.333 L 130.985 189.167 130.993 187.936 C 131.002 186.348,131.419 186.126,132.794 186.976 L 133.909 187.665 134.084 185.485 C 134.218 183.819,134.108 182.908,133.617 181.618 C 131.638 176.409,131.801 173.455,134.183 171.363 C 134.817 170.807,135.246 170.161,135.149 169.909 C 134.866 169.169,136.222 167.771,138.004 166.966 C 139.758 166.173,139.887 166.021,139.302 165.436 C 138.682 164.816,139.512 163.815,141.276 163.057 C 142.666 162.459,142.889 162.238,142.764 161.584 C 142.308 159.198,149.956 157.620,151.412 159.800 C 151.864 160.478,151.672 161.661,151.000 162.333 C 150.633 162.700,150.333 163.225,150.333 163.500 C 150.333 163.775,150.033 164.300,149.667 164.667 L 149.000 165.333 149.667 166.000 C 150.405 166.739,150.500 167.398,150.002 168.329 C 149.713 168.869,149.877 169.016,151.288 169.485 C 153.873 170.343,154.986 171.906,155.023 174.728 C 155.040 175.945,155.129 176.291,155.307 175.833 C 155.560 175.188,155.576 175.191,155.806 175.917 C 155.938 176.329,156.173 176.667,156.329 176.667 C 156.579 176.667,156.727 177.104,157.235 179.333 C 157.298 179.608,157.425 180.508,157.519 181.333 C 157.871 184.449,159.368 186.333,161.490 186.333 C 161.978 186.333,162.642 186.475,162.965 186.648 C 163.792 187.091,170.333 183.235,170.333 182.305 C 170.333 181.625,169.843 181.446,169.500 182.000 C 169.227 182.442,167.667 182.430,167.667 181.987 C 167.667 181.796,167.963 181.059,168.326 180.349 C 171.794 173.550,167.899 165.660,158.178 159.794 C 149.922 154.812,148.250 153.058,148.054 149.177 C 147.821 144.573,148.521 140.279,150.365 135.000 C 151.293 132.342,152.487 128.697,153.018 126.900 C 157.889 110.434,154.294 96.465,146.164 100.270 M115.500 110.667 C 115.375 111.061,115.347 111.459,115.439 111.550 C 115.531 111.642,115.708 111.394,115.833 111.000 C 115.958 110.606,115.986 110.208,115.894 110.116 C 115.803 110.025,115.625 110.272,115.500 110.667 M177.562 138.935 C 176.604 139.935,176.362 141.562,177.067 142.267 C 178.226 143.426,181.667 141.513,181.667 139.709 C 181.667 137.755,179.148 137.280,177.562 138.935 M115.800 142.588 C 114.491 143.462,114.235 146.660,115.408 147.481 C 116.945 148.558,118.073 148.045,118.441 146.100 C 118.868 143.848,117.211 141.646,115.800 142.588 M179.130 151.142 C 178.827 151.932,179.256 152.730,179.916 152.603 C 180.285 152.532,180.500 152.187,180.500 151.667 C 180.500 150.716,179.448 150.314,179.130 151.142 M118.130 153.143 C 117.798 154.008,118.263 154.723,119.082 154.607 C 119.633 154.528,119.833 154.278,119.833 153.667 C 119.833 152.683,118.467 152.263,118.130 153.143 M141.453 171.664 C 136.868 172.487,135.104 173.640,137.583 174.191 C 138.087 174.303,138.738 174.459,139.028 174.536 C 141.201 175.115,146.000 173.219,146.000 171.782 C 146.000 170.851,145.980 170.851,141.453 171.664 M148.147 172.147 C 147.321 172.760,147.864 173.833,149.000 173.833 C 150.025 173.833,150.608 172.899,150.023 172.195 C 149.480 171.540,148.982 171.527,148.147 172.147 M297.919 197.333 C 298.612 201.534,297.757 206.426,295.806 209.417 C 295.358 210.104,295.061 210.667,295.147 210.667 C 295.233 210.667,294.935 211.035,294.485 211.485 C 293.181 212.789,294.072 213.779,295.998 213.167 C 296.846 212.898,299.667 209.182,299.667 208.335 C 299.667 208.009,299.891 207.313,300.165 206.788 C 300.438 206.263,300.663 205.289,300.665 204.623 C 300.666 203.957,301.042 202.416,301.500 201.199 C 302.515 198.501,302.515 198.598,301.515 199.054 C 300.502 199.515,298.673 198.869,298.655 198.043 C 298.648 197.744,298.424 197.125,298.157 196.667 C 297.696 195.876,297.684 195.911,297.919 197.333 M181.521 217.761 C 172.344 235.498,168.783 240.435,162.120 244.659 L 159.766 246.152 162.299 247.933 C 163.693 248.912,166.004 250.309,167.434 251.036 L 170.035 252.358 169.827 251.252 C 169.369 248.811,172.031 248.343,174.871 250.365 C 181.287 254.933,197.978 260.667,204.857 260.667 L 207.308 260.667 207.640 259.417 C 208.482 256.252,208.602 254.322,207.978 253.988 C 206.148 253.009,206.165 251.424,208.000 251.904 C 208.790 252.110,208.918 251.587,209.118 247.333 C 209.200 245.592,209.367 243.919,209.490 243.617 C 209.993 242.373,205.343 231.146,202.934 227.791 C 201.960 226.435,196.515 221.774,189.000 215.864 C 187.625 214.782,186.048 213.475,185.495 212.959 L 184.490 212.021 181.521 217.761 M228.007 309.587 C 227.553 309.667,225.949 310.243,224.443 310.867 C 221.202 312.208,221.139 312.211,218.261 311.196 L 216.023 310.406 216.066 319.022 C 216.101 325.868,216.202 327.673,216.555 327.808 C 217.360 328.117,217.023 328.840,215.466 330.141 C 210.808 334.034,207.858 340.349,210.083 341.662 C 211.644 342.583,211.673 342.566,212.485 340.264 C 212.892 339.110,213.749 337.117,214.390 335.833 C 215.031 334.550,215.900 332.631,216.322 331.569 C 216.953 329.981,217.299 329.551,218.270 329.145 C 220.087 328.386,220.187 328.906,218.892 332.378 C 217.422 336.321,217.127 337.445,216.564 341.250 L 216.108 344.333 217.971 344.373 C 222.470 344.469,229.331 343.712,230.073 343.038 C 230.691 342.477,229.053 338.036,226.600 333.621 C 224.630 330.075,224.592 329.667,226.234 329.667 C 228.180 329.667,233.536 335.787,234.795 339.449 C 235.212 340.661,235.228 340.669,235.816 340.019 C 236.891 338.831,235.659 334.809,232.862 330.379 C 232.359 329.582,232.084 328.800,232.226 328.571 C 232.364 328.349,232.500 326.517,232.530 324.500 C 232.562 322.237,232.846 319.621,233.270 317.667 C 234.450 312.225,234.527 311.000,233.685 311.000 C 233.293 311.000,232.417 310.721,231.737 310.381 C 230.243 309.633,229.112 309.392,228.007 309.587 M169.898 316.917 C 169.966 319.897,170.105 322.552,170.207 322.818 C 170.463 323.486,170.136 323.916,168.896 324.537 C 164.631 326.672,161.673 329.841,160.390 333.650 C 159.093 337.499,160.252 337.379,161.829 333.500 C 162.963 330.709,164.282 328.333,164.698 328.333 C 164.863 328.333,165.561 327.797,166.249 327.141 C 168.248 325.235,169.155 324.906,172.711 324.800 C 177.273 324.663,178.900 325.977,174.803 326.489 C 168.742 327.247,166.748 329.085,165.840 334.750 L 165.426 337.333 166.296 337.329 C 168.275 337.318,168.568 337.059,168.797 335.114 C 169.320 330.658,172.982 326.667,176.547 326.667 C 179.143 326.667,182.002 319.411,181.503 314.086 L 181.276 311.667 180.222 311.605 C 179.641 311.571,177.053 311.533,174.471 311.522 L 169.775 311.500 169.898 316.917 " stroke="none" fill="#f1ba84" fill-rule="evenodd"></path><path id="path2" d="M224.000 33.327 C 223.725 33.486,222.274 34.089,220.775 34.669 C 213.782 37.371,204.777 44.909,197.282 54.333 C 191.380 61.756,183.919 74.572,182.097 80.417 C 181.642 81.877,181.381 82.282,181.000 82.117 C 167.549 76.296,147.069 77.489,134.000 84.853 C 132.808 85.525,131.935 85.969,132.058 85.840 C 132.402 85.482,131.152 82.818,129.414 80.204 C 126.651 76.048,123.918 73.539,114.378 66.400 C 101.733 56.938,98.310 53.857,94.487 48.499 C 92.580 45.827,92.331 45.824,89.840 48.440 C 82.458 56.191,80.958 66.304,83.849 88.833 C 86.286 107.821,97.212 125.789,110.382 132.470 L 113.264 133.932 112.346 135.049 C 109.650 138.330,108.984 143.184,111.314 142.575 C 111.739 142.464,111.818 142.678,111.722 143.681 C 111.538 145.613,112.278 149.647,113.177 151.614 C 113.813 153.005,113.914 153.539,113.637 154.055 C 112.722 155.766,114.201 159.205,118.344 165.000 C 122.022 170.146,123.115 172.533,124.322 178.056 C 127.486 192.544,136.452 200.468,150.364 201.074 L 151.913 201.141 151.613 202.154 C 147.411 216.325,146.490 227.416,148.680 237.469 C 149.769 242.470,156.585 266.821,160.157 278.473 C 164.228 291.757,167.667 311.142,167.667 320.816 L 167.667 322.868 164.624 325.011 C 160.948 327.602,160.490 328.179,158.502 332.732 C 156.350 337.657,156.778 338.491,161.423 338.426 C 163.111 338.403,163.820 338.534,164.235 338.947 C 165.275 339.985,169.922 339.449,173.706 337.856 C 174.087 337.696,174.302 337.843,174.436 338.358 C 174.563 338.840,174.799 339.021,175.136 338.891 C 175.416 338.784,175.727 338.829,175.828 338.991 C 176.171 339.547,179.614 339.738,182.225 339.345 C 183.659 339.130,185.182 338.963,185.608 338.975 C 186.035 338.987,186.676 338.840,187.033 338.649 C 187.526 338.385,187.809 338.428,188.207 338.826 C 189.171 339.790,193.090 338.614,194.501 336.938 C 195.448 335.812,195.539 334.692,194.944 331.465 L 194.555 329.354 196.062 327.094 C 196.891 325.850,198.854 323.304,200.426 321.436 C 207.189 313.392,207.068 313.749,206.815 302.570 C 206.542 290.534,207.054 288.036,211.038 281.970 C 212.594 279.599,213.152 278.987,213.597 279.160 C 213.910 279.281,214.892 279.467,215.780 279.574 C 217.808 279.816,217.808 279.816,217.346 284.739 C 217.135 286.991,216.845 291.036,216.701 293.728 L 216.440 298.622 214.970 301.521 L 213.500 304.419 213.385 316.793 L 213.271 329.167 211.703 330.833 C 209.133 333.565,206.837 337.387,205.861 340.557 C 205.497 341.739,208.607 344.193,211.632 345.111 C 212.476 345.368,214.266 345.918,215.609 346.335 C 218.843 347.337,223.725 347.151,228.107 345.857 C 229.724 345.380,231.187 345.076,231.360 345.183 C 231.839 345.479,233.000 345.010,233.000 344.519 C 233.000 344.279,233.414 344.001,233.920 343.899 C 238.211 343.041,239.525 339.148,237.210 334.156 C 236.645 332.939,236.509 332.268,236.716 331.710 C 236.874 331.284,236.867 328.210,236.700 324.806 C 236.104 312.602,237.330 305.126,241.999 292.500 C 243.423 288.650,245.007 284.201,245.519 282.614 L 246.450 279.729 249.975 279.014 C 251.914 278.620,254.119 278.108,254.876 277.875 L 256.251 277.452 257.802 282.143 C 260.933 291.611,260.864 293.652,256.885 309.333 C 254.841 317.389,253.814 322.674,253.536 326.571 C 253.428 328.091,253.197 328.565,251.685 330.375 C 248.208 334.537,246.458 339.745,248.163 340.862 C 249.551 341.771,264.683 342.784,265.448 342.019 C 265.642 341.825,266.258 341.665,266.817 341.663 C 268.852 341.656,270.359 341.242,270.705 340.596 C 271.130 339.801,270.272 335.132,269.352 333.240 C 268.466 331.415,270.321 321.388,272.535 316.043 C 273.139 314.583,273.124 313.101,272.486 311.294 C 271.789 309.317,272.104 308.101,275.499 299.667 C 278.588 291.993,280.754 285.640,281.463 282.167 C 283.291 273.222,282.953 256.276,280.687 243.255 C 280.328 241.190,279.785 237.700,279.480 235.500 C 279.175 233.300,278.745 230.966,278.524 230.314 L 278.122 229.129 279.811 228.730 C 285.520 227.383,291.198 223.472,296.406 217.299 C 301.769 210.943,301.718 211.016,301.630 209.696 C 301.582 208.970,301.848 207.924,302.307 207.035 C 302.934 205.819,302.999 205.429,302.685 204.741 C 302.375 204.060,302.463 203.446,303.178 201.299 C 304.376 197.702,304.261 197.162,302.299 197.185 C 300.789 197.202,300.745 197.172,299.506 195.258 C 297.443 192.072,295.705 191.152,294.937 192.839 C 294.623 193.528,294.651 193.751,295.096 194.089 C 296.392 195.074,297.090 200.478,296.336 203.698 C 294.498 211.551,282.285 221.667,274.642 221.667 C 274.326 221.667,272.718 220.042,271.021 218.007 C 266.131 212.145,261.357 207.646,250.731 198.887 C 245.253 194.371,238.749 188.899,236.277 186.727 C 229.669 180.922,222.419 175.568,218.434 173.550 C 217.218 172.935,214.388 172.222,208.934 171.158 C 204.662 170.324,200.382 169.488,199.422 169.299 L 197.678 168.955 198.493 167.348 C 201.435 161.541,203.868 155.677,204.651 152.500 C 205.696 148.265,206.667 143.044,206.667 141.658 C 206.667 141.011,206.905 140.141,207.197 139.724 C 207.489 139.307,208.912 136.719,210.359 133.972 L 212.989 128.979 212.538 127.668 L 212.086 126.358 214.513 124.366 C 231.589 110.351,239.337 78.584,232.473 50.732 C 229.465 38.524,226.292 32.007,224.000 33.327 M226.466 38.829 C 234.162 59.727,234.252 81.129,226.732 102.188 C 223.529 111.158,219.035 117.293,210.917 123.780 C 209.272 125.093,208.962 125.944,209.857 126.686 C 211.829 128.323,211.266 130.208,207.027 136.167 C 204.604 139.572,203.915 141.027,204.614 141.260 C 204.826 141.331,205.000 141.956,205.000 142.649 C 205.000 150.448,196.747 168.353,189.525 176.220 C 187.419 178.514,186.962 179.398,187.657 179.827 C 188.602 180.411,192.400 176.852,195.053 172.896 C 195.814 171.761,196.492 170.767,196.559 170.687 C 196.627 170.606,197.391 170.792,198.258 171.099 C 200.221 171.795,206.141 173.060,211.833 173.999 C 219.202 175.215,224.524 178.445,235.170 188.158 C 237.735 190.498,244.212 196.070,249.564 200.539 C 261.389 210.414,271.977 220.967,271.996 222.894 C 271.998 223.111,272.276 223.376,272.614 223.483 C 274.572 224.105,276.031 227.915,277.020 234.989 C 277.392 237.653,278.064 242.152,278.513 244.985 C 282.120 267.751,280.803 281.155,273.191 299.156 C 269.698 307.415,269.021 310.299,270.315 311.407 C 271.361 312.302,271.480 313.939,270.651 316.011 C 269.370 319.213,267.987 323.708,267.275 326.984 C 266.894 328.735,266.439 330.347,266.264 330.567 C 265.884 331.044,266.197 332.167,267.031 333.327 C 267.577 334.084,268.667 337.991,268.667 339.187 C 268.667 339.539,268.233 339.667,267.043 339.667 L 265.419 339.667 265.194 337.972 C 264.740 334.543,262.501 330.333,261.132 330.333 C 260.507 330.333,260.522 330.398,261.634 332.601 C 262.661 334.637,263.144 336.226,263.480 338.684 L 263.688 340.202 259.761 340.125 C 257.601 340.083,255.646 340.038,255.417 340.024 C 254.322 339.960,255.156 335.145,256.939 331.234 C 257.804 329.339,257.890 328.937,257.470 328.776 C 256.170 328.277,253.000 335.224,253.000 338.570 C 253.000 339.761,252.732 339.863,250.684 339.453 C 249.737 339.264,249.641 339.143,249.823 338.370 C 250.924 333.701,253.056 329.976,254.472 330.246 C 255.209 330.387,255.299 330.271,255.471 328.951 C 256.368 322.059,256.980 318.672,258.715 311.000 C 263.001 292.049,263.063 289.871,259.559 281.119 L 257.804 276.738 259.652 275.841 C 263.240 274.100,266.210 271.709,265.404 271.211 C 265.259 271.121,263.641 271.767,261.809 272.646 C 257.525 274.702,255.275 275.509,251.167 276.461 C 249.333 276.885,247.582 277.342,247.275 277.476 C 246.760 277.700,246.752 277.579,247.176 275.943 C 250.199 264.263,249.473 247.082,245.137 227.667 C 243.111 218.598,242.336 216.250,241.705 217.271 C 241.372 217.811,241.528 218.745,243.813 229.833 C 249.113 255.555,248.508 268.715,241.140 288.044 C 236.225 300.937,235.077 305.245,234.312 313.667 C 233.923 317.955,234.057 326.779,234.549 329.167 L 234.754 330.167 233.747 329.223 C 232.140 327.717,232.164 328.724,233.802 331.612 C 237.100 337.423,237.272 339.311,234.667 341.073 C 232.574 342.489,232.336 342.557,232.326 341.750 C 232.289 338.660,226.453 328.790,225.317 329.895 C 224.999 330.203,225.244 330.858,226.438 332.895 C 228.237 335.965,229.467 338.666,229.994 340.700 C 230.202 341.507,230.442 342.405,230.525 342.697 C 230.865 343.877,217.244 345.355,216.146 344.257 C 215.674 343.785,216.983 337.076,218.184 333.805 C 219.769 329.491,219.875 329.000,219.228 329.000 C 217.610 329.000,214.025 338.677,214.004 343.102 L 214.000 344.036 211.750 342.841 C 208.034 340.866,208.164 341.070,209.118 338.723 C 210.292 335.834,212.134 333.167,214.758 330.558 C 216.677 328.651,216.943 328.256,216.407 328.116 C 215.791 327.955,215.769 327.523,215.811 316.391 C 215.858 303.907,216.107 302.000,217.691 302.000 C 218.677 302.000,218.914 301.110,219.155 296.500 C 219.280 294.117,219.610 289.392,219.889 286.000 C 220.663 276.562,220.448 267.974,219.296 262.333 C 218.043 256.199,212.052 243.333,210.448 243.333 C 209.945 243.333,209.849 244.033,210.286 244.517 C 210.443 244.691,211.476 247.008,212.583 249.667 C 217.099 260.520,217.653 262.822,217.902 271.750 C 218.108 279.160,218.323 278.653,215.333 277.806 C 214.325 277.520,212.917 277.142,212.203 276.965 C 202.425 274.535,187.583 264.997,177.130 254.427 C 172.668 249.916,170.667 248.396,170.667 249.522 C 170.667 250.504,175.299 255.813,179.735 259.917 L 181.628 261.668 182.210 265.417 C 182.696 268.547,182.804 271.864,182.863 285.500 C 182.929 300.660,182.987 302.121,183.661 305.833 C 185.236 314.499,185.704 317.404,186.503 323.476 C 188.246 336.721,187.980 337.333,180.471 337.333 L 176.241 337.333 176.468 335.083 C 176.928 330.515,177.596 329.282,180.301 328.015 C 182.904 326.796,182.231 325.773,179.509 326.812 C 176.839 327.832,175.330 330.109,174.775 333.958 C 174.487 335.955,172.856 336.651,166.546 337.470 L 165.259 337.637 165.497 335.402 C 166.142 329.352,168.552 327.035,175.103 326.166 C 177.224 325.885,176.983 325.198,174.717 325.066 C 168.505 324.703,164.533 328.189,163.494 334.917 C 163.300 336.172,163.174 336.334,162.387 336.338 C 161.899 336.340,161.200 336.417,160.833 336.509 C 159.433 336.858,159.279 336.275,160.119 333.806 C 161.688 329.194,163.616 326.982,168.000 324.763 C 169.730 323.887,170.375 323.288,170.042 322.866 C 169.883 322.665,169.670 319.725,169.568 316.333 C 169.237 305.295,166.273 290.219,161.189 273.716 C 158.497 264.980,151.482 239.601,150.625 235.500 C 149.069 228.055,149.576 219.708,152.379 206.607 L 153.784 200.041 156.309 199.496 C 162.177 198.231,164.494 197.169,172.167 192.230 C 175.951 189.794,183.667 182.995,183.667 182.096 C 183.667 181.191,182.557 181.881,176.000 186.864 C 172.694 189.376,165.632 193.870,162.333 195.560 C 155.725 198.947,145.390 199.240,139.362 196.212 C 133.811 193.424,126.099 184.520,127.780 182.839 C 128.085 182.534,128.295 180.977,128.440 177.945 C 128.669 173.179,129.244 170.580,130.325 169.419 C 131.833 167.800,130.635 167.463,128.873 169.010 C 127.651 170.083,126.667 172.385,126.667 174.170 C 126.667 175.978,126.219 175.775,125.654 173.711 C 124.977 171.240,122.721 167.257,120.575 164.746 C 118.696 162.546,116.692 159.689,115.844 158.000 L 115.259 156.833 116.713 158.211 C 119.882 161.214,123.271 161.065,126.554 157.778 C 127.851 156.479,131.679 149.352,131.671 148.250 C 131.663 147.086,130.971 147.713,129.925 149.833 C 128.546 152.631,128.503 152.598,128.486 148.749 C 128.472 145.287,127.937 143.079,126.457 140.366 C 126.017 139.559,125.736 138.820,125.832 138.724 C 126.207 138.349,128.088 140.597,129.073 142.597 C 130.794 146.095,132.533 146.070,131.054 142.570 C 130.185 140.514,130.218 140.467,131.785 141.531 C 133.633 142.788,134.065 142.314,132.472 140.778 C 131.098 139.453,126.870 137.062,124.299 136.154 C 120.865 134.943,116.010 135.759,113.568 137.959 C 111.814 139.537,112.241 138.699,115.504 134.158 C 119.305 128.868,120.081 126.538,116.806 130.250 L 115.409 131.833 115.157 129.509 C 114.839 126.558,115.198 119.866,115.837 116.847 C 116.310 114.611,116.153 113.660,115.388 114.133 C 114.332 114.786,113.028 122.071,113.011 127.417 C 113.005 129.204,112.919 130.667,112.820 130.667 C 111.463 130.667,105.395 126.051,102.000 122.437 C 90.376 110.063,85.204 94.192,85.185 70.833 C 85.176 60.991,86.448 56.275,90.596 50.768 C 92.513 48.224,92.301 48.225,93.848 50.750 C 96.349 54.831,101.069 59.501,107.667 64.423 C 120.724 74.163,124.214 77.203,126.891 81.167 C 128.711 83.861,130.448 87.361,130.109 87.651 C 129.957 87.781,128.699 88.800,127.312 89.915 C 124.189 92.425,122.754 94.202,123.233 94.963 C 123.896 96.015,124.674 95.722,126.923 93.575 C 132.626 88.130,138.169 84.817,144.306 83.186 C 160.203 78.960,175.838 80.456,184.833 87.064 C 187.455 88.990,187.608 89.075,187.999 88.834 C 188.600 88.462,187.436 86.827,185.513 85.343 C 183.387 83.703,183.397 84.191,185.382 79.167 C 187.149 74.694,197.879 55.963,196.552 59.667 C 189.570 79.165,189.660 85.428,197.136 100.273 C 200.235 106.426,200.662 102.955,197.648 96.109 C 192.385 84.155,192.161 76.122,196.701 62.230 C 199.687 53.091,209.808 42.484,221.161 36.595 C 223.181 35.547,224.856 34.685,224.883 34.678 C 224.911 34.672,225.623 36.540,226.466 38.829 M99.670 59.750 C 99.675 60.326,102.601 63.869,108.710 70.697 C 114.250 76.888,116.580 81.121,117.778 87.167 C 118.214 89.367,118.951 91.917,119.416 92.833 C 121.525 96.992,123.332 96.216,121.306 92.022 C 120.950 91.285,120.499 89.891,120.304 88.924 C 118.920 82.051,118.216 80.380,114.786 75.834 C 113.556 74.202,110.888 71.135,108.858 69.017 C 106.828 66.899,104.053 63.854,102.691 62.250 C 100.278 59.406,99.663 58.898,99.670 59.750 M197.818 89.443 C 197.464 90.851,197.785 93.167,198.333 93.167 C 198.944 93.167,199.132 92.042,198.843 90.114 C 198.606 88.534,198.125 88.219,197.818 89.443 M200.324 93.083 C 199.649 94.572,199.461 96.500,199.962 96.810 C 200.399 97.080,200.842 96.380,201.487 94.404 C 202.409 91.577,201.485 90.526,200.324 93.083 M116.667 97.139 C 116.667 97.888,119.250 99.770,119.923 99.511 C 120.409 99.324,120.279 99.082,119.096 97.978 C 117.662 96.638,116.667 96.295,116.667 97.139 M202.556 99.222 C 201.934 99.843,202.458 102.333,203.209 102.333 C 203.469 102.333,203.853 102.712,204.064 103.175 C 204.275 103.637,204.797 104.104,205.224 104.211 C 206.251 104.469,206.203 104.736,205.000 105.447 C 203.878 106.110,203.695 106.667,204.600 106.667 C 205.552 106.667,208.000 104.921,208.000 104.242 C 208.000 103.861,207.563 103.450,206.833 103.145 C 206.192 102.877,205.667 102.445,205.667 102.185 C 205.667 101.925,205.226 101.398,204.686 101.014 C 204.147 100.630,203.612 100.020,203.497 99.658 C 203.283 98.984,202.949 98.829,202.556 99.222 M116.681 99.658 C 116.436 99.809,116.328 100.173,116.441 100.466 C 116.554 100.760,116.516 101.000,116.359 101.000 C 115.875 101.000,115.650 102.013,115.992 102.651 C 116.262 103.157,116.155 103.286,115.324 103.452 C 114.154 103.686,114.020 104.256,115.083 104.474 C 118.718 105.220,119.820 104.730,118.240 103.071 C 117.300 102.084,117.601 101.000,118.815 101.000 C 119.130 101.000,119.329 100.819,119.255 100.598 C 119.060 100.012,117.204 99.334,116.681 99.658 M114.855 107.299 C 113.991 107.638,114.576 107.948,116.265 108.048 C 117.738 108.135,118.203 107.931,117.847 107.356 C 117.598 106.953,115.826 106.919,114.855 107.299 M219.101 110.500 C 215.279 116.256,207.863 116.114,204.098 110.212 C 203.047 108.563,202.353 108.977,202.935 110.906 C 205.468 119.315,221.000 118.133,221.000 109.531 C 221.000 108.098,220.539 108.334,219.101 110.500 M97.244 110.534 C 97.125 110.652,97.378 111.218,97.805 111.791 C 98.232 112.364,99.364 114.369,100.320 116.246 C 103.776 123.032,107.181 125.282,111.027 123.320 C 112.435 122.601,113.225 121.402,112.881 120.505 C 112.701 120.036,112.480 120.081,111.155 120.858 C 107.597 122.943,105.720 121.817,101.000 114.765 C 98.278 110.699,97.714 110.064,97.244 110.534 M201.000 115.601 C 201.000 118.181,206.977 123.264,208.513 121.989 C 209.237 121.388,209.116 121.077,207.917 120.458 C 207.321 120.151,205.646 118.797,204.195 117.450 C 201.413 114.868,201.000 114.629,201.000 115.601 M169.964 123.762 C 165.567 127.082,163.023 132.479,164.303 135.773 C 165.081 137.777,166.140 136.862,166.353 134.000 C 166.661 129.882,168.135 126.794,171.052 124.159 C 173.014 122.387,172.186 122.085,169.964 123.762 M124.496 126.007 C 124.375 126.202,125.540 127.593,127.085 129.098 C 129.947 131.886,130.502 132.866,131.182 136.333 C 131.461 137.760,131.892 138.333,132.685 138.333 C 134.865 138.333,132.790 132.041,129.608 129.006 C 127.631 127.120,124.825 125.474,124.496 126.007 M193.215 128.229 C 193.089 128.355,193.505 128.992,194.139 129.646 C 196.348 131.922,197.733 134.645,197.499 136.250 C 197.273 137.803,198.082 138.273,199.024 137.137 C 200.599 135.240,194.917 126.527,193.215 128.229 M172.583 132.021 C 170.650 133.009,170.000 133.511,170.000 134.014 C 170.000 135.588,172.347 134.922,174.813 132.650 C 177.426 130.241,176.548 129.994,172.583 132.021 M178.917 132.333 C 175.150 133.467,169.096 138.896,170.279 140.079 C 170.562 140.362,170.882 140.252,171.542 139.646 L 172.426 138.833 172.213 141.226 C 171.962 144.045,172.466 148.131,173.353 150.465 C 173.700 151.379,173.920 152.191,173.841 152.270 C 173.535 152.576,170.869 150.134,169.130 147.954 C 167.225 145.567,167.123 145.493,166.372 145.969 C 164.453 147.184,171.835 154.700,176.923 156.712 C 185.779 160.214,195.667 152.773,195.667 142.609 C 195.667 142.086,195.847 141.369,196.067 141.016 C 196.975 139.563,194.191 137.059,188.321 134.048 C 184.126 131.896,181.786 131.470,178.917 132.333 M155.417 135.889 C 155.002 136.902,155.198 142.407,155.700 143.833 C 156.364 145.719,157.181 145.623,157.118 143.667 C 156.915 137.369,156.182 134.020,155.417 135.889 M141.467 137.917 C 141.591 138.787,141.844 140.687,142.030 142.137 C 142.395 144.984,142.817 146.116,143.439 145.911 C 144.440 145.581,143.721 138.984,142.479 137.087 C 141.642 135.811,141.218 136.158,141.467 137.917 M152.706 137.969 C 152.137 138.329,151.626 141.361,151.895 142.783 C 152.527 146.122,153.474 145.379,153.381 141.618 C 153.338 139.841,153.449 138.801,153.700 138.646 C 153.912 138.515,153.982 138.241,153.856 138.037 C 153.583 137.594,153.322 137.579,152.706 137.969 M181.390 138.218 C 182.468 139.194,182.166 140.486,180.549 141.811 C 178.373 143.594,176.333 143.161,176.333 140.915 C 176.333 138.630,179.802 136.781,181.390 138.218 M138.495 142.250 C 138.800 145.936,138.999 146.286,140.143 145.143 C 141.235 144.051,140.250 139.333,138.929 139.333 C 138.285 139.333,138.265 139.465,138.495 142.250 M193.977 141.635 C 193.953 142.913,193.834 142.750,193.061 140.378 C 192.702 139.277,192.708 139.267,193.348 139.846 C 193.776 140.234,193.992 140.847,193.977 141.635 M168.615 141.752 C 167.724 142.505,167.000 143.652,167.000 144.311 C 167.000 145.003,168.288 144.669,168.521 143.917 C 168.649 143.504,169.034 142.769,169.377 142.282 C 170.427 140.790,170.057 140.533,168.615 141.752 M117.785 142.817 C 119.484 144.392,118.720 148.333,116.715 148.333 C 114.358 148.333,113.522 143.979,115.579 142.417 C 116.367 141.818,116.789 141.895,117.785 142.817 M180.600 150.733 C 181.598 151.731,180.465 153.307,179.241 152.622 C 178.277 152.082,178.730 150.333,179.833 150.333 C 180.035 150.333,180.380 150.513,180.600 150.733 M119.933 152.733 C 120.874 153.674,119.957 155.243,118.700 154.844 C 118.334 154.728,117.939 154.333,117.823 153.967 C 117.424 152.710,118.993 151.793,119.933 152.733 M163.333 156.615 C 163.333 156.949,166.487 159.131,169.355 160.782 C 170.192 161.263,171.767 162.462,172.855 163.445 C 176.736 166.952,178.986 167.169,184.569 164.573 C 188.365 162.808,190.179 160.826,186.800 162.136 C 180.692 164.503,177.676 164.510,174.772 162.164 C 171.266 159.330,163.333 155.482,163.333 156.615 M136.112 157.787 C 132.016 161.217,126.102 164.136,123.710 163.907 C 120.931 163.642,120.277 163.974,121.388 165.085 C 124.064 167.761,128.845 165.844,135.805 159.306 C 137.771 157.459,138.029 156.181,136.112 157.787 M166.209 166.083 C 166.345 166.313,166.953 167.227,167.559 168.116 C 169.823 171.438,170.363 176.323,168.830 179.616 C 167.517 182.437,167.723 182.901,169.701 181.572 C 172.901 179.420,171.955 171.388,167.966 166.846 C 166.989 165.733,165.656 165.155,166.209 166.083 M140.167 169.708 C 138.333 170.064,136.520 170.422,136.137 170.503 C 130.744 171.656,133.427 182.381,140.302 187.145 C 144.368 189.962,149.957 186.531,152.711 179.525 C 156.083 170.947,151.654 167.481,140.167 169.708 M146.141 171.437 C 146.392 171.835,146.393 172.171,146.142 172.583 C 144.616 175.094,135.328 175.502,136.667 172.999 C 137.049 172.286,137.232 172.222,140.833 171.537 C 145.743 170.603,145.617 170.606,146.141 171.437 M150.452 172.397 C 150.872 173.067,149.921 174.333,149.000 174.333 C 148.005 174.333,147.221 173.166,147.662 172.342 C 148.125 171.477,149.899 171.512,150.452 172.397 M176.833 179.293 C 175.917 180.004,174.042 181.180,172.667 181.908 C 171.292 182.635,168.517 184.231,166.500 185.455 C 156.157 191.734,141.808 192.708,133.646 187.686 C 131.306 186.246,130.246 186.912,132.033 188.700 C 137.967 194.634,155.869 194.159,166.122 187.795 C 168.773 186.149,175.384 182.667,175.857 182.667 C 175.948 182.667,175.854 182.984,175.646 183.372 C 175.201 184.204,175.946 185.220,176.768 184.904 C 177.642 184.569,179.450 180.983,179.476 179.533 C 179.508 177.731,178.918 177.677,176.833 179.293 M189.651 183.614 C 187.350 185.934,184.292 188.901,182.854 190.207 C 179.036 193.673,180.253 194.133,184.873 190.968 C 189.257 187.966,194.667 181.824,194.667 179.850 C 194.667 178.795,193.732 179.496,189.651 183.614 M298.638 197.167 C 299.716 199.078,300.340 199.376,301.717 198.640 C 302.763 198.080,302.757 198.376,301.664 201.341 C 300.960 203.250,300.750 204.217,300.988 204.455 C 301.517 204.984,301.408 205.527,300.509 206.852 C 299.758 207.958,299.726 208.147,300.146 208.961 C 300.793 210.212,300.680 210.364,294.349 216.715 L 288.818 222.263 284.627 224.285 C 281.071 226.001,277.476 227.273,277.157 226.928 C 277.109 226.876,276.800 226.233,276.469 225.500 C 276.139 224.767,275.818 224.076,275.756 223.964 C 275.694 223.853,276.436 223.669,277.405 223.555 C 283.461 222.844,294.344 213.338,297.031 206.412 C 297.825 204.365,298.094 199.621,297.579 196.750 C 297.249 194.905,297.393 194.962,298.638 197.167 M206.889 252.222 C 206.468 252.643,206.672 252.893,208.417 254.098 C 209.379 254.763,211.288 256.438,212.658 257.820 C 215.283 260.468,215.667 260.710,215.667 259.724 C 215.667 257.251,208.222 250.889,206.889 252.222 M185.913 265.116 C 186.969 265.914,188.484 266.992,189.279 267.513 C 190.595 268.375,190.705 268.552,190.509 269.480 C 189.074 276.277,189.650 283.937,192.165 291.500 C 194.496 298.510,194.463 299.475,191.632 306.962 C 190.017 311.233,188.511 315.630,187.966 317.667 L 187.564 319.167 186.984 316.000 C 185.528 308.055,185.223 303.623,185.138 289.167 C 185.042 272.650,184.767 267.554,183.794 264.250 C 183.546 263.408,183.774 263.502,185.913 265.116 M194.077 270.455 C 196.957 272.295,202.541 274.907,210.756 278.259 C 211.273 278.470,211.124 278.819,209.560 281.067 C 204.703 288.043,204.246 290.879,205.207 308.062 L 205.424 311.958 203.630 314.229 C 202.643 315.478,200.746 317.731,199.415 319.236 C 193.325 326.120,190.619 331.035,192.629 331.560 C 194.153 331.959,193.750 335.625,192.111 336.264 C 189.550 337.262,188.577 337.353,188.877 336.566 C 189.333 335.372,189.140 329.071,188.545 325.730 C 188.059 322.996,188.052 322.568,188.484 322.135 C 188.754 321.865,189.262 320.711,189.612 319.572 C 189.963 318.432,191.482 313.675,192.988 309.000 C 196.508 298.076,196.513 298.023,194.529 292.234 C 192.476 286.243,191.339 280.710,191.336 276.694 C 191.334 273.890,191.865 269.333,192.194 269.333 C 192.264 269.333,193.111 269.838,194.077 270.455 M191.093 322.403 C 190.478 323.169,189.333 325.625,189.333 326.178 C 189.333 327.407,190.495 326.411,191.249 324.535 C 191.997 322.673,191.903 321.392,191.093 322.403 " stroke="none" fill="#060404" fill-rule="evenodd"></path><path id="path3" d="M213.500 41.549 C 202.042 50.422,196.050 59.784,194.864 70.667 C 194.754 71.675,194.587 73.250,194.493 74.167 C 194.399 75.083,194.153 76.928,193.946 78.265 C 193.269 82.651,194.301 88.703,196.431 92.833 C 196.809 93.567,197.762 95.742,198.548 97.667 C 199.812 100.761,199.979 101.022,199.989 99.917 C 200.001 98.523,200.176 98.427,201.281 99.201 C 201.985 99.694,202.076 99.691,202.469 99.153 C 202.868 98.607,202.926 98.616,203.402 99.295 L 203.910 100.020 204.455 99.188 C 205.218 98.024,205.134 96.877,204.205 95.773 C 203.767 95.253,203.153 94.229,202.839 93.497 L 202.269 92.167 201.803 93.934 C 201.222 96.143,200.771 97.000,200.191 97.000 C 199.037 97.000,199.092 95.344,200.334 92.720 C 202.360 88.436,200.848 82.558,198.309 84.855 C 197.520 85.569,197.478 84.698,198.008 78.704 C 199.111 66.245,202.568 58.002,212.036 45.250 C 214.180 42.362,215.837 40.000,215.717 40.000 C 215.598 40.000,214.600 40.697,213.500 41.549 M91.601 49.800 C 90.229 51.688,94.107 59.943,98.475 64.436 C 103.408 69.508,108.829 82.693,110.724 94.228 L 111.446 98.622 110.556 99.789 C 109.484 101.195,109.440 102.055,110.366 103.553 C 110.750 104.175,111.123 105.317,111.194 106.092 C 111.282 107.049,111.578 107.723,112.119 108.197 C 112.834 108.824,112.869 108.974,112.469 109.697 C 112.224 110.139,112.015 111.100,112.004 111.833 C 111.933 116.786,108.245 119.318,104.849 116.746 C 102.411 114.899,93.302 104.257,90.281 99.725 C 88.011 96.319,87.879 96.210,88.613 98.344 C 89.577 101.147,97.000 112.079,97.000 110.696 C 97.000 109.256,98.509 110.646,100.860 114.250 C 105.408 121.223,107.305 122.547,110.522 120.990 C 112.679 119.945,115.333 114.931,115.333 111.899 C 115.333 111.356,115.650 110.399,116.038 109.772 C 116.839 108.476,116.868 108.548,115.392 108.140 C 113.777 107.694,113.933 107.182,115.718 107.066 C 118.407 106.893,118.488 105.295,115.833 104.807 C 113.975 104.465,113.496 103.577,115.071 103.396 C 115.869 103.304,115.953 103.182,115.787 102.353 C 115.682 101.826,115.761 101.315,115.966 101.187 C 116.168 101.063,116.333 100.665,116.333 100.303 C 116.333 99.441,117.163 99.149,118.231 99.635 C 119.616 100.267,119.442 99.858,117.833 98.702 C 116.344 97.633,115.950 96.859,116.750 96.574 C 117.310 96.374,119.000 97.251,119.000 97.742 C 119.000 98.036,119.095 98.038,119.382 97.752 C 120.056 97.077,119.833 94.287,118.920 92.000 C 118.445 90.808,117.899 88.976,117.708 87.928 C 117.517 86.880,117.032 85.305,116.631 84.428 C 116.230 83.551,115.474 81.882,114.952 80.720 C 112.929 76.223,108.869 70.811,101.704 63.061 C 98.278 59.355,97.288 57.963,95.759 54.704 C 93.309 49.481,92.514 48.543,91.601 49.800 M231.247 74.128 C 227.050 96.392,216.650 111.158,206.000 109.977 C 203.592 109.710,203.585 109.743,205.618 111.652 C 209.851 115.626,215.664 115.121,218.897 110.500 C 219.680 109.381,220.526 108.521,220.819 108.547 C 221.655 108.622,224.718 104.635,226.415 101.264 C 229.484 95.166,232.058 82.214,232.314 71.583 C 232.391 68.417,232.270 68.704,231.247 74.128 M198.850 89.474 C 199.358 92.178,198.986 94.109,198.067 93.541 C 197.509 93.197,197.289 91.070,197.665 89.672 C 198.107 88.032,198.566 87.956,198.850 89.474 M205.753 100.953 C 205.213 101.297,205.877 102.584,206.728 102.843 C 207.153 102.973,207.749 103.297,208.053 103.564 C 208.544 103.994,208.630 103.972,208.822 103.370 C 208.993 102.830,208.563 101.333,208.236 101.333 C 208.195 101.333,207.696 101.200,207.126 101.036 C 206.556 100.873,205.938 100.835,205.753 100.953 M117.892 101.801 C 117.704 102.291,117.919 102.667,118.389 102.667 C 118.542 102.667,118.667 102.367,118.667 102.000 C 118.667 101.236,118.159 101.105,117.892 101.801 M200.900 103.250 C 201.967 105.619,202.259 106.000,203.005 106.000 C 203.330 106.000,203.682 106.225,203.787 106.500 C 203.893 106.775,204.246 106.983,204.573 106.961 C 205.129 106.925,205.130 106.913,204.583 106.770 C 203.744 106.551,203.866 105.851,204.833 105.333 C 205.707 104.866,205.942 104.333,205.276 104.333 C 205.061 104.333,204.239 103.658,203.448 102.833 C 202.379 101.717,201.759 101.333,201.024 101.333 L 200.037 101.333 200.900 103.250 M145.667 159.223 C 143.440 159.824,142.564 160.537,142.764 161.584 C 142.889 162.238,142.666 162.459,141.276 163.057 C 139.390 163.868,138.722 164.762,139.394 165.576 C 139.658 165.896,139.701 166.157,139.500 166.231 C 138.110 166.741,136.112 168.002,135.594 168.696 C 135.001 169.491,135.067 170.870,135.681 170.491 C 136.423 170.033,143.862 168.906,146.620 168.835 C 149.828 168.752,150.317 168.543,150.328 167.250 C 150.331 166.929,150.033 166.367,149.667 166.000 L 149.000 165.333 149.667 164.667 C 150.033 164.300,150.333 163.775,150.333 163.500 C 150.333 163.225,150.633 162.700,151.000 162.333 C 153.483 159.850,150.272 157.978,145.667 159.223 M152.044 170.563 C 154.414 173.050,154.593 174.887,152.898 179.333 C 150.811 184.809,147.118 188.333,143.468 188.333 C 138.300 188.333,130.987 177.051,133.324 172.684 C 133.525 172.308,133.601 172.000,133.493 172.000 C 131.890 172.000,131.952 177.235,133.606 181.589 C 134.099 182.886,134.210 183.812,134.083 185.582 C 133.891 188.273,133.612 188.051,139.000 189.519 C 145.706 191.346,153.970 190.896,160.593 188.342 C 163.835 187.091,164.155 186.333,161.441 186.333 C 159.368 186.333,157.868 184.421,157.519 181.333 C 157.425 180.508,157.298 179.608,157.235 179.333 C 156.727 177.104,156.579 176.667,156.329 176.667 C 156.173 176.667,155.938 176.329,155.806 175.917 C 155.576 175.191,155.560 175.188,155.307 175.833 C 155.128 176.291,155.040 175.947,155.023 174.733 C 154.989 172.102,153.962 170.473,151.833 169.669 L 150.833 169.292 152.044 170.563 M180.979 185.201 C 177.029 190.631,162.744 198.982,155.833 199.901 C 154.037 200.140,153.822 200.251,153.726 201.000 C 153.666 201.458,153.093 204.233,152.451 207.167 C 149.674 219.859,149.260 228.727,151.063 236.947 C 151.607 239.428,157.852 246.000,159.666 246.000 C 161.227 246.000,167.938 240.307,170.756 236.593 C 174.025 232.284,184.540 212.802,184.173 211.735 C 184.066 211.422,183.178 210.292,182.200 209.222 C 179.738 206.529,179.166 204.569,179.169 198.833 C 179.171 194.294,179.306 192.391,179.667 191.833 C 180.738 190.179,182.000 183.797,180.979 185.201 M166.375 187.851 C 155.318 194.617,136.780 194.925,131.670 188.428 C 131.009 187.588,131.000 187.587,131.000 188.320 C 131.000 189.995,136.012 194.460,139.881 196.231 C 142.472 197.418,151.736 198.992,152.676 198.405 C 153.024 198.187,154.927 197.614,156.905 197.130 C 160.631 196.219,161.790 195.743,165.167 193.733 C 167.506 192.340,167.506 192.340,168.923 188.701 C 170.266 185.255,170.493 185.331,166.375 187.851 M300.667 205.073 C 300.667 205.369,300.573 205.887,300.459 206.223 C 300.312 206.656,300.419 206.608,300.831 206.055 C 301.257 205.483,301.312 205.179,301.039 204.905 C 300.765 204.632,300.667 204.676,300.667 205.073 M298.894 209.987 C 298.572 210.533,297.826 211.490,297.237 212.114 C 296.442 212.957,296.266 213.341,296.551 213.607 C 297.046 214.069,300.430 210.582,300.273 209.773 C 300.095 208.850,299.512 208.940,298.894 209.987 M209.312 243.683 C 209.301 243.766,209.209 245.483,209.108 247.500 C 209.007 249.517,208.807 251.382,208.664 251.645 C 208.479 251.987,208.749 252.303,209.619 252.759 C 212.359 254.196,215.667 258.072,215.667 259.846 C 215.667 260.652,215.388 260.469,212.383 257.696 C 208.540 254.150,208.489 254.135,208.214 256.417 C 208.098 257.379,207.846 258.729,207.653 259.417 L 207.302 260.667 204.854 260.667 C 197.899 260.667,181.515 255.013,174.695 250.258 C 171.347 247.925,171.820 248.977,176.004 253.171 C 178.292 255.465,180.353 257.269,180.582 257.181 C 180.824 257.088,181.000 257.281,181.000 257.638 C 181.000 259.006,191.458 266.797,198.234 270.476 C 205.574 274.462,214.519 278.000,217.259 278.000 L 218.098 278.000 217.859 272.250 C 217.646 267.113,217.021 262.061,216.427 260.667 C 216.310 260.392,216.184 259.942,216.148 259.667 C 215.847 257.389,209.478 242.495,209.312 243.683 M170.187 249.644 C 169.072 250.876,169.751 252.156,172.210 253.462 L 174.372 254.610 172.898 253.034 C 171.168 251.185,170.545 250.130,170.797 249.474 C 171.043 248.832,170.881 248.878,170.187 249.644 M249.366 263.225 C 249.360 265.006,249.227 266.089,248.476 270.500 C 248.021 273.171,247.620 275.035,247.138 276.706 C 246.805 277.865,256.542 275.039,261.566 272.520 C 265.330 270.632,265.852 270.550,265.514 271.897 C 265.346 272.565,265.420 272.699,265.904 272.607 C 268.188 272.171,265.780 269.492,261.879 268.128 C 261.120 267.863,259.143 266.828,257.485 265.828 C 255.827 264.827,253.502 263.617,252.319 263.138 C 251.135 262.659,249.988 262.121,249.769 261.942 C 249.471 261.698,249.370 262.020,249.366 263.225 M183.333 310.849 C 182.875 311.102,182.222 311.315,181.882 311.322 C 181.314 311.332,181.283 311.543,181.494 313.932 C 181.983 319.460,179.183 326.667,176.547 326.667 C 172.962 326.667,169.320 330.657,168.790 335.166 L 168.569 337.048 169.868 336.812 C 173.537 336.146,174.060 335.735,174.728 332.999 C 175.708 328.981,178.150 326.353,180.917 326.339 C 182.548 326.331,182.272 327.143,180.276 328.229 C 177.606 329.681,177.171 330.585,176.552 335.964 L 176.384 337.427 180.691 337.252 C 186.875 337.002,187.572 336.384,187.191 331.500 C 186.789 326.345,184.628 310.850,184.259 310.482 C 184.208 310.430,183.791 310.595,183.333 310.849 M215.767 312.000 C 215.767 313.008,215.829 313.421,215.905 312.917 C 215.982 312.412,215.982 311.587,215.905 311.083 C 215.829 310.579,215.767 310.992,215.767 312.000 M173.587 311.569 C 174.002 311.649,174.602 311.646,174.921 311.562 C 175.239 311.479,174.900 311.414,174.167 311.417 C 173.433 311.421,173.173 311.489,173.587 311.569 M233.136 318.417 C 232.181 323.218,232.268 327.737,233.333 328.600 C 234.405 329.469,234.350 329.818,233.953 324.656 C 233.763 322.187,233.702 319.079,233.818 317.750 C 234.101 314.487,233.873 314.710,233.136 318.417 M256.712 321.472 C 256.313 324.054,255.990 326.659,255.994 327.261 C 256.004 329.041,255.141 330.756,254.360 330.508 C 253.642 330.280,251.333 333.258,251.333 334.412 C 251.333 334.735,251.217 335.000,251.076 335.000 C 250.726 335.000,249.913 338.589,250.169 339.003 C 250.281 339.185,250.943 339.333,251.641 339.333 L 252.909 339.333 253.086 337.128 C 253.372 333.564,256.653 327.520,257.722 328.589 C 257.998 328.864,257.763 329.732,256.827 331.898 C 255.830 334.206,255.526 335.386,255.403 337.417 L 255.248 340.000 259.291 340.000 C 263.262 340.000,263.333 339.987,263.328 339.250 C 263.318 337.712,262.277 334.137,261.329 332.387 C 260.790 331.392,260.429 330.448,260.528 330.289 C 261.507 328.704,264.516 333.233,265.344 337.540 L 265.736 339.579 267.185 339.540 C 268.550 339.502,268.623 339.452,268.449 338.667 C 267.782 335.659,267.223 333.766,266.874 333.333 C 265.815 332.018,265.537 331.030,266.057 330.420 C 266.332 330.097,266.740 328.794,266.964 327.523 C 267.189 326.253,267.799 323.884,268.321 322.261 C 269.131 319.744,269.189 319.333,268.719 319.477 C 263.808 320.974,262.885 320.876,259.761 318.526 L 257.436 316.777 256.712 321.472 M194.266 317.178 C 194.147 317.297,193.402 317.441,192.609 317.499 C 191.816 317.557,190.990 317.618,190.774 317.636 C 190.557 317.653,190.132 318.529,189.827 319.583 C 189.523 320.637,189.043 321.757,188.762 322.072 C 188.302 322.587,188.310 323.021,188.841 326.405 C 189.383 329.858,189.599 334.538,189.292 336.167 C 189.140 336.975,190.172 336.934,192.000 336.059 C 193.173 335.497,194.056 332.000,193.025 332.000 C 190.229 332.000,193.032 325.942,198.654 319.833 C 201.287 316.973,201.357 317.180,197.712 317.065 C 195.935 317.009,194.384 317.060,194.266 317.178 M192.092 322.203 C 192.598 322.709,190.382 327.000,189.615 327.000 C 188.895 327.000,189.699 323.666,190.715 322.442 C 191.102 321.976,191.752 321.863,192.092 322.203 M168.637 325.328 C 167.979 325.676,167.079 326.351,166.637 326.828 C 166.195 327.306,165.446 327.905,164.972 328.161 C 164.113 328.625,162.738 331.074,161.354 334.604 L 160.660 336.374 161.911 336.270 C 163.129 336.169,163.168 336.125,163.386 334.588 C 164.104 329.532,167.514 325.388,171.000 325.336 C 171.661 325.326,171.730 325.256,171.333 325.000 C 170.615 324.536,169.994 324.611,168.637 325.328 M215.751 326.500 C 215.754 327.233,215.823 327.494,215.902 327.079 C 215.982 326.665,215.979 326.065,215.896 325.746 C 215.812 325.427,215.747 325.767,215.751 326.500 M217.803 329.324 C 217.420 329.479,216.909 330.107,216.669 330.720 C 216.428 331.332,215.369 333.708,214.315 336.000 C 211.611 341.879,211.459 342.542,212.676 343.171 C 213.931 343.820,213.858 343.873,213.951 342.250 C 214.166 338.471,216.471 331.461,218.051 329.779 C 218.848 328.930,218.835 328.907,217.803 329.324 M226.687 330.417 C 228.837 332.679,231.424 337.415,232.319 340.728 C 232.616 341.827,232.854 342.198,233.121 341.978 C 233.329 341.807,233.860 341.392,234.300 341.056 C 235.365 340.244,235.139 339.431,232.926 336.113 C 230.688 332.759,227.712 329.667,226.721 329.667 L 225.974 329.667 226.687 330.417 M220.750 344.563 C 221.071 344.647,221.596 344.647,221.917 344.563 C 222.237 344.479,221.975 344.411,221.333 344.411 C 220.692 344.411,220.429 344.479,220.750 344.563 " stroke="none" fill="#bb8b63" fill-rule="evenodd"></path><path id="path4" d="M128.788 149.518 C 128.763 150.720,128.780 151.657,128.826 151.601 C 130.295 149.818,130.896 147.545,129.845 147.746 C 129.393 147.832,128.981 147.775,128.928 147.619 C 128.876 147.462,128.813 148.317,128.788 149.518 " stroke="none" fill="#a0978d" fill-rule="evenodd"></path><path id="path5" d="M126.638 140.336 C 127.514 141.938,128.218 144.107,128.813 147.038 C 129.101 148.455,130.667 147.984,130.667 146.481 C 130.667 145.871,130.513 145.278,130.326 145.162 C 130.138 145.046,129.558 144.025,129.036 142.892 C 128.515 141.760,127.537 140.310,126.863 139.671 L 125.638 138.509 126.638 140.336 M170.970 140.202 C 170.472 140.802,170.172 141.292,169.070 143.302 C 168.635 144.094,167.920 144.840,167.411 145.034 L 166.515 145.375 167.580 145.890 C 168.166 146.174,168.744 146.719,168.866 147.102 C 169.108 147.866,172.155 151.214,173.038 151.687 C 173.530 151.950,173.516 151.752,172.917 149.908 C 172.452 148.476,172.193 146.569,172.081 143.750 C 171.919 139.641,171.786 139.219,170.970 140.202 " stroke="none" fill="#b0acaa" fill-rule="evenodd"></path><path id="path6" d="M155.433 112.000 C 155.433 113.008,155.496 113.421,155.572 112.917 C 155.648 112.412,155.648 111.587,155.572 111.083 C 155.496 110.579,155.433 110.992,155.433 112.000 M141.100 112.667 C 141.100 113.675,141.162 114.087,141.239 113.583 C 141.315 113.079,141.315 112.254,141.239 111.750 C 141.162 111.246,141.100 111.658,141.100 112.667 M148.107 147.000 C 148.107 148.192,148.167 148.679,148.241 148.083 C 148.315 147.487,148.315 146.512,148.241 145.917 C 148.167 145.321,148.107 145.808,148.107 147.000 M216.077 320.667 C 216.077 321.308,216.146 321.571,216.230 321.250 C 216.314 320.929,216.314 320.404,216.230 320.083 C 216.146 319.762,216.077 320.025,216.077 320.667 " stroke="none" fill="#c48450" fill-rule="evenodd"></path><path id="path7" d="M170.833 150.000 C 171.549 150.733,172.210 151.333,172.302 151.333 C 172.394 151.333,171.883 150.733,171.167 150.000 C 170.451 149.267,169.790 148.667,169.698 148.667 C 169.606 148.667,170.117 149.267,170.833 150.000 M169.762 317.833 C 169.765 318.750,169.829 319.085,169.906 318.579 C 169.982 318.072,169.980 317.322,169.901 316.912 C 169.822 316.502,169.760 316.917,169.762 317.833 " stroke="none" fill="#5e5c5c" fill-rule="evenodd"></path><path id="path8" d="M207.818 46.417 L 206.500 47.833 207.917 46.516 C 209.234 45.290,209.487 45.000,209.234 45.000 C 209.180 45.000,208.542 45.637,207.818 46.417 M204.812 49.417 L 203.833 50.500 204.917 49.521 C 205.512 48.983,206.000 48.495,206.000 48.438 C 206.000 48.180,205.725 48.407,204.812 49.417 M85.109 70.833 C 85.111 72.117,85.171 72.601,85.243 71.909 C 85.315 71.218,85.314 70.168,85.241 69.576 C 85.167 68.984,85.108 69.550,85.109 70.833 M141.077 109.667 C 141.077 110.308,141.146 110.571,141.230 110.250 C 141.314 109.929,141.314 109.404,141.230 109.083 C 141.146 108.763,141.077 109.025,141.077 109.667 M155.411 114.667 C 155.411 115.308,155.479 115.571,155.563 115.250 C 155.647 114.929,155.647 114.404,155.563 114.083 C 155.479 113.763,155.411 114.025,155.411 114.667 M141.084 115.500 C 141.088 116.233,141.156 116.494,141.236 116.079 C 141.315 115.665,141.312 115.065,141.229 114.746 C 141.146 114.427,141.080 114.767,141.084 115.500 M211.083 114.563 C 211.404 114.647,211.929 114.647,212.250 114.563 C 212.571 114.479,212.308 114.411,211.667 114.411 C 211.025 114.411,210.762 114.479,211.083 114.563 M164.000 163.771 C 164.000 163.828,164.487 164.316,165.083 164.854 L 166.167 165.833 165.188 164.750 C 164.275 163.740,164.000 163.513,164.000 163.771 M131.812 168.083 L 130.833 169.167 131.917 168.188 C 132.926 167.275,133.153 167.000,132.896 167.000 C 132.838 167.000,132.351 167.487,131.812 168.083 M147.254 190.902 C 147.669 190.982,148.269 190.979,148.587 190.896 C 148.906 190.812,148.567 190.747,147.833 190.751 C 147.100 190.754,146.839 190.823,147.254 190.902 M148.921 193.236 C 149.335 193.315,149.935 193.312,150.254 193.229 C 150.573 193.146,150.233 193.080,149.500 193.084 C 148.767 193.088,148.506 193.156,148.921 193.236 M154.167 242.000 C 155.070 242.917,155.883 243.667,155.975 243.667 C 156.067 243.667,155.403 242.917,154.500 242.000 C 153.597 241.083,152.783 240.333,152.692 240.333 C 152.600 240.333,153.264 241.083,154.167 242.000 M217.751 270.167 C 217.754 270.900,217.823 271.161,217.902 270.746 C 217.982 270.331,217.979 269.731,217.896 269.413 C 217.812 269.094,217.747 269.433,217.751 270.167 M177.083 311.230 C 177.404 311.314,177.929 311.314,178.250 311.230 C 178.571 311.146,178.308 311.077,177.667 311.077 C 177.025 311.077,176.762 311.146,177.083 311.230 M215.744 314.667 C 215.744 315.308,215.813 315.571,215.896 315.250 C 215.980 314.929,215.980 314.404,215.896 314.083 C 215.813 313.762,215.744 314.025,215.744 314.667 M196.250 316.902 C 196.662 316.981,197.338 316.981,197.750 316.902 C 198.162 316.822,197.825 316.757,197.000 316.757 C 196.175 316.757,195.838 316.822,196.250 316.902 M233.783 320.000 C 233.783 321.558,233.841 322.196,233.911 321.417 C 233.981 320.637,233.981 319.362,233.911 318.583 C 233.841 317.804,233.783 318.442,233.783 320.000 M189.429 333.167 C 189.431 334.083,189.496 334.419,189.573 333.912 C 189.649 333.405,189.647 332.655,189.568 332.245 C 189.489 331.835,189.426 332.250,189.429 333.167 M255.091 338.333 C 255.091 339.158,255.156 339.496,255.235 339.083 C 255.315 338.671,255.315 337.996,255.235 337.583 C 255.156 337.171,255.091 337.508,255.091 338.333 " stroke="none" fill="#a76034" fill-rule="evenodd"></path></g></svg>