<svg id="svg" version="1.1" xmlns="http://www.w3.org/2000/svg" width="400"
     height="400" viewBox="0, 0, 400,400">
    <g id="svgg">
        <path id="path0"
              d="M240.167 94.622 C 236.177 95.665,227.189 101.474,223.582 105.340 C 219.821 109.373,219.218 110.786,219.179 115.664 C 219.148 119.547,218.747 120.151,217.177 118.676 C 213.978 115.671,200.824 117.315,193.477 121.638 C 191.933 122.546,189.271 123.350,187.545 123.429 C 185.630 123.517,185.489 123.165,188.917 126.872 C 190.521 128.608,192.385 130.884,193.059 131.930 C 194.869 134.741,196.609 136.609,198.316 137.573 C 199.151 138.045,200.733 138.999,201.833 139.694 C 203.623 140.824,204.429 141.067,209.500 142.006 C 215.291 143.078,215.915 143.101,222.030 142.456 L 223.894 142.259 223.742 144.101 C 223.633 145.411,223.750 146.263,224.149 147.054 C 227.327 153.365,221.228 164.879,212.360 169.310 C 204.510 173.233,184.876 174.919,176.808 172.364 C 176.272 172.194,174.033 171.728,171.833 171.328 C 169.633 170.928,166.333 170.229,164.500 169.775 C 155.152 167.458,142.945 168.365,137.692 171.767 C 132.130 175.370,131.551 176.705,129.855 189.833 C 129.570 192.033,129.099 195.408,128.808 197.333 C 128.085 202.109,128.062 220.250,128.774 224.167 C 130.015 230.988,133.022 237.805,135.965 240.468 C 137.067 241.466,140.835 238.199,146.645 231.207 C 147.998 229.580,150.535 226.805,152.283 225.041 C 157.075 220.205,157.504 219.690,158.841 217.167 C 159.521 215.883,160.335 214.458,160.650 214.000 C 164.683 208.131,167.478 201.622,167.176 198.804 C 166.893 196.168,167.467 195.894,167.908 198.454 C 168.550 202.176,166.956 209.347,164.470 213.928 C 163.845 215.080,163.333 216.115,163.333 216.228 C 163.333 216.341,168.846 216.330,175.583 216.203 C 185.561 216.015,188.668 216.067,192.333 216.483 C 198.124 217.140,208.886 216.751,209.920 215.847 C 209.967 215.806,209.524 214.836,208.934 213.693 C 207.161 210.255,207.241 203.292,209.100 199.378 L 209.833 197.833 210.099 201.167 C 210.497 206.168,211.441 210.545,212.793 213.666 C 213.521 215.346,213.884 216.583,213.701 216.765 C 213.519 216.948,213.927 218.551,214.725 220.784 C 215.717 223.562,216.342 226.266,217.204 231.500 C 217.837 235.350,219.026 241.069,219.845 244.209 C 221.282 249.720,221.701 252.600,221.004 252.169 C 220.815 252.052,220.759 252.186,220.872 252.481 C 221.147 253.196,221.667 252.789,221.667 251.859 C 221.667 250.045,223.174 248.995,224.333 250.000 C 224.756 250.367,225.268 250.667,225.471 250.667 C 225.674 250.667,226.027 250.367,226.256 250.000 C 226.818 249.101,227.483 249.161,228.288 250.185 C 228.948 251.024,228.962 251.026,229.324 250.351 C 229.772 249.513,230.517 249.467,230.973 250.250 C 231.233 250.695,231.315 250.376,231.323 248.900 C 231.345 244.692,234.482 234.219,237.323 228.867 C 239.641 224.502,240.021 223.575,243.068 214.833 C 244.359 211.133,245.525 207.155,245.690 205.894 C 246.174 202.192,249.654 196.667,251.502 196.667 C 251.712 196.667,252.245 196.282,252.686 195.813 C 255.427 192.895,259.671 192.421,261.754 194.800 L 262.366 195.500 261.959 194.786 C 261.633 194.216,261.665 192.970,262.114 188.619 C 262.424 185.620,262.675 183.035,262.672 182.875 C 262.669 182.715,262.220 182.673,261.674 182.782 C 261.129 182.891,259.860 182.828,258.855 182.643 L 257.029 182.305 255.647 183.686 C 252.195 187.139,245.355 187.753,242.106 184.903 C 240.447 183.448,238.577 180.475,238.826 179.689 C 238.934 179.349,238.766 178.531,238.452 177.873 C 237.721 176.341,238.084 175.976,239.253 177.067 C 243.414 180.947,252.360 179.174,255.031 173.940 L 255.689 172.650 256.784 173.485 C 258.195 174.561,260.400 175.333,262.064 175.333 L 263.378 175.333 263.155 171.917 C 262.771 166.018,264.122 158.564,266.448 153.750 C 267.741 151.074,264.943 151.113,259.354 153.847 C 250.893 157.987,243.860 157.198,232.476 150.832 C 229.282 149.046,229.859 147.941,233.343 149.170 C 234.128 149.447,234.830 149.614,234.903 149.541 C 234.976 149.469,235.726 149.617,236.571 149.871 C 237.415 150.125,238.210 150.333,238.338 150.333 C 238.466 150.333,238.658 149.395,238.765 148.249 C 239.441 141.014,241.764 137.381,247.652 134.357 C 253.720 131.240,256.466 128.695,259.530 123.346 C 260.532 121.597,261.872 119.438,262.509 118.547 C 264.083 116.345,264.129 116.466,260.691 113.714 C 257.264 110.971,256.312 108.106,258.346 106.658 L 259.356 105.938 260.548 106.886 C 263.038 108.865,263.800 109.324,264.014 108.978 C 264.158 108.744,264.517 108.765,265.125 109.041 C 265.921 109.404,266.079 109.369,266.530 108.725 C 267.188 107.786,267.781 107.783,267.483 108.720 L 267.254 109.441 268.341 108.804 C 269.095 108.362,269.458 107.878,269.527 107.225 C 269.582 106.707,269.801 106.073,270.014 105.816 C 271.398 104.148,261.838 96.630,256.422 95.128 C 254.288 94.536,241.964 94.152,240.167 94.622 M266.148 101.741 C 267.053 103.034,266.806 104.167,265.369 105.305 C 262.460 107.609,260.996 105.193,263.232 101.780 C 263.907 100.750,265.439 100.729,266.148 101.741 M268.776 105.138 C 268.878 105.404,268.433 106.148,267.752 106.850 L 266.546 108.091 265.927 107.327 C 265.317 106.573,265.321 106.549,266.217 105.614 C 267.186 104.603,268.479 104.362,268.776 105.138 M271.000 107.455 C 271.000 107.888,270.595 108.647,270.101 109.141 L 269.202 110.040 271.018 109.808 C 273.311 109.515,273.260 109.592,272.211 108.007 C 271.185 106.456,271.000 106.372,271.000 107.455 M251.926 110.186 C 254.075 111.691,250.675 115.234,247.495 114.804 C 244.369 114.380,243.969 114.005,244.841 112.318 C 245.850 110.368,250.282 109.034,251.926 110.186 M130.982 114.583 L 129.833 115.833 131.083 114.685 C 131.771 114.053,132.333 113.490,132.333 113.435 C 132.333 113.180,132.051 113.420,130.982 114.583 M257.534 114.134 C 257.759 114.722,256.520 117.196,255.798 117.600 C 254.378 118.394,253.094 116.724,254.445 115.839 C 254.873 115.558,255.423 114.955,255.668 114.498 C 256.151 113.596,257.245 113.382,257.534 114.134 M259.929 118.704 C 260.394 121.155,255.304 124.167,250.697 124.167 C 246.763 124.167,246.097 123.500,249.795 123.263 C 251.591 123.148,252.800 122.850,254.149 122.190 C 257.383 120.608,259.168 118.683,257.000 119.117 C 256.450 119.227,256.000 119.178,256.000 119.008 C 256.000 117.968,259.735 117.678,259.929 118.704 M214.700 119.379 C 216.926 120.125,218.000 121.216,218.000 122.732 C 218.000 123.618,218.427 124.984,219.217 126.627 C 221.532 131.441,221.093 138.436,218.353 140.405 C 213.895 143.607,203.053 139.651,200.026 133.717 C 199.227 132.151,196.291 129.557,194.470 128.808 C 192.995 128.201,191.333 126.764,191.333 126.096 C 191.333 125.851,191.746 125.493,192.250 125.302 C 193.239 124.926,195.861 123.709,200.303 121.565 C 205.025 119.285,211.488 118.304,214.700 119.379 M185.583 122.235 C 185.996 122.315,186.671 122.315,187.083 122.235 C 187.496 122.156,187.158 122.091,186.333 122.091 C 185.508 122.091,185.171 122.156,185.583 122.235 M125.391 131.720 C 124.585 132.704,123.696 132.971,123.627 132.250 C 123.512 131.029,123.074 134.210,123.042 136.500 C 122.899 146.894,126.441 158.851,132.579 168.692 C 135.186 172.874,134.812 172.659,136.880 171.157 C 137.771 170.510,138.762 169.893,139.083 169.785 C 139.913 169.506,139.837 169.274,138.254 167.280 C 133.526 161.323,128.197 147.517,127.660 139.833 C 127.519 137.817,127.224 135.417,127.004 134.500 C 126.784 133.583,126.506 132.370,126.386 131.803 L 126.167 130.773 125.391 131.720 M120.252 144.500 C 120.339 144.958,120.469 145.333,120.539 145.333 C 120.609 145.333,120.667 144.958,120.667 144.500 C 120.667 144.042,120.537 143.667,120.380 143.667 C 120.222 143.667,120.164 144.042,120.252 144.500 M265.091 193.000 C 265.091 193.825,265.156 194.162,265.235 193.750 C 265.315 193.338,265.315 192.662,265.235 192.250 C 265.156 191.838,265.091 192.175,265.091 193.000 M264.751 202.167 C 264.754 202.900,264.823 203.161,264.902 202.746 C 264.982 202.331,264.979 201.731,264.896 201.413 C 264.812 201.094,264.747 201.433,264.751 202.167 M248.417 204.167 C 248.421 204.900,248.489 205.161,248.569 204.746 C 248.649 204.331,248.646 203.731,248.562 203.413 C 248.479 203.094,248.414 203.433,248.417 204.167 M256.000 218.037 C 254.625 219.324,253.725 220.285,254.000 220.173 C 254.500 219.970,258.981 215.661,258.667 215.685 C 258.575 215.692,257.375 216.751,256.000 218.037 M162.692 222.766 C 160.758 227.852,155.299 237.122,153.061 239.120 C 152.425 239.688,152.408 239.805,152.865 240.502 C 153.522 241.503,154.305 241.266,155.340 239.752 C 155.795 239.086,157.090 237.287,158.219 235.753 C 161.563 231.210,165.108 222.000,163.512 222.000 C 163.221 222.000,162.852 222.345,162.692 222.766 M248.333 223.848 C 244.665 226.081,242.828 229.059,240.841 236.000 C 240.500 237.192,239.908 238.423,239.527 238.737 L 238.833 239.307 239.627 239.103 C 240.215 238.952,240.570 239.097,240.994 239.659 L 241.567 240.419 242.490 239.209 C 243.525 237.852,244.138 237.697,244.729 238.643 C 245.363 239.658,246.515 237.847,246.783 235.416 C 247.070 232.799,248.756 227.327,250.144 224.506 C 250.774 223.225,251.261 222.165,251.228 222.150 C 251.194 222.135,249.892 222.899,248.333 223.848 M208.254 230.236 C 208.669 230.315,209.269 230.312,209.587 230.229 C 209.906 230.146,209.567 230.080,208.833 230.084 C 208.100 230.088,207.839 230.156,208.254 230.236 M145.833 242.000 C 145.549 242.550,145.391 243.000,145.483 243.000 C 145.575 243.000,145.882 242.550,146.167 242.000 C 146.451 241.450,146.609 241.000,146.517 241.000 C 146.425 241.000,146.118 241.450,145.833 242.000 M144.109 250.167 C 144.111 251.450,144.171 251.934,144.243 251.243 C 144.315 250.551,144.314 249.501,144.241 248.909 C 144.167 248.317,144.108 248.883,144.109 250.167 M125.795 254.000 C 125.795 256.292,125.848 257.229,125.913 256.083 C 125.979 254.938,125.979 253.063,125.913 251.917 C 125.848 250.771,125.795 251.708,125.795 254.000 M138.757 265.667 C 138.757 266.492,138.822 266.829,138.902 266.417 C 138.981 266.004,138.981 265.329,138.902 264.917 C 138.822 264.504,138.757 264.842,138.757 265.667 "
              stroke="none" fill="#775750" fill-rule="evenodd"></path>
        <path id="path1"
              d="M263.576 103.232 C 263.091 104.440,263.098 104.505,263.728 104.610 C 264.606 104.757,265.721 103.709,265.598 102.852 C 265.415 101.572,264.147 101.810,263.576 103.232 M257.852 107.408 C 257.126 108.444,257.197 108.988,258.277 110.685 C 259.126 112.017,259.992 112.887,262.797 115.225 C 263.982 116.213,263.892 117.057,262.381 119.102 C 261.674 120.059,260.295 122.266,259.317 124.005 C 256.562 128.905,254.064 131.156,247.333 134.805 C 242.217 137.579,241.655 138.216,240.182 142.901 C 239.442 145.254,238.499 149.989,238.737 150.150 C 238.790 150.186,239.508 150.377,240.333 150.574 C 241.158 150.771,243.315 151.323,245.126 151.800 C 251.343 153.437,254.456 152.674,267.167 146.399 C 269.733 145.132,272.433 143.903,273.167 143.669 C 278.913 141.831,287.951 134.657,288.963 131.130 L 289.245 130.147 286.098 131.770 C 284.367 132.662,281.724 133.811,280.225 134.323 C 278.726 134.834,275.945 135.884,274.044 136.656 C 270.329 138.163,264.909 139.667,263.188 139.667 C 260.261 139.667,260.605 137.609,263.603 137.179 C 266.310 136.790,282.659 131.017,286.430 129.118 C 292.017 126.305,294.231 121.671,292.078 117.301 L 291.323 115.768 289.578 116.061 C 286.603 116.561,282.000 115.202,282.000 113.825 C 282.000 113.061,283.159 110.970,284.178 109.895 C 284.667 109.379,284.973 108.862,284.857 108.746 C 284.554 108.443,279.288 109.249,276.167 110.076 C 270.227 111.649,265.194 110.878,261.467 107.824 C 259.829 106.482,258.600 106.340,257.852 107.408 M248.881 111.036 C 246.490 111.598,244.678 113.103,245.852 113.553 C 247.112 114.037,251.090 112.780,251.475 111.778 C 251.900 110.671,251.239 110.482,248.881 111.036 M132.415 114.583 C 129.809 117.136,129.202 117.963,127.559 121.208 C 123.727 128.778,122.452 134.895,125.449 131.333 C 126.531 130.047,126.660 130.073,126.699 131.583 C 126.716 132.271,126.911 133.583,127.132 134.500 L 127.533 136.167 127.741 132.833 C 128.062 127.706,132.090 116.171,134.697 112.917 C 136.252 110.975,135.649 111.415,132.415 114.583 M208.167 120.209 C 207.800 120.281,206.675 120.505,205.667 120.708 C 204.658 120.910,202.108 121.900,200.000 122.907 C 197.892 123.914,195.381 125.114,194.420 125.573 C 192.448 126.516,192.463 126.794,194.534 127.681 C 197.142 128.799,199.495 130.856,200.880 133.229 C 202.799 136.515,205.289 138.159,211.446 140.204 C 218.489 142.544,221.966 135.292,217.996 126.542 C 217.309 125.029,216.990 123.852,217.057 123.075 C 217.251 120.832,212.606 119.334,208.167 120.209 M264.433 173.333 C 264.433 174.342,264.496 174.754,264.572 174.250 C 264.648 173.746,264.648 172.921,264.572 172.417 C 264.496 171.912,264.433 172.325,264.433 173.333 M254.737 174.688 C 251.589 179.502,242.186 181.019,239.043 177.220 C 238.373 176.411,237.913 176.545,238.366 177.417 C 240.615 181.754,244.786 185.208,247.317 184.828 C 250.265 184.386,253.870 181.952,255.181 179.517 C 255.939 178.109,256.059 178.090,257.467 179.164 C 258.867 180.232,260.196 180.486,261.939 180.017 L 263.333 179.641 263.333 177.654 L 263.333 175.667 262.179 175.667 C 260.732 175.667,257.688 174.546,256.743 173.666 C 255.839 172.824,256.015 172.735,254.737 174.688 M264.744 184.667 C 264.744 185.308,264.813 185.571,264.896 185.250 C 264.980 184.929,264.980 184.404,264.896 184.083 C 264.813 183.762,264.744 184.025,264.744 184.667 M265.077 189.667 C 265.077 190.308,265.146 190.571,265.230 190.250 C 265.314 189.929,265.314 189.404,265.230 189.083 C 265.146 188.762,265.077 189.025,265.077 189.667 M255.697 194.061 C 252.424 195.681,248.668 200.823,248.667 203.682 C 248.666 206.527,246.717 213.394,244.177 219.500 C 243.491 221.150,242.653 223.199,242.315 224.054 L 241.700 225.607 243.433 224.876 C 257.591 218.909,266.166 206.946,263.001 197.577 C 262.171 195.120,261.622 194.459,260.193 194.200 C 259.660 194.103,259.069 193.869,258.879 193.679 C 258.342 193.142,257.301 193.267,255.697 194.061 M265.095 196.833 C 265.098 197.750,265.163 198.085,265.239 197.579 C 265.316 197.072,265.314 196.322,265.235 195.912 C 265.156 195.502,265.093 195.917,265.095 196.833 M259.117 197.329 C 258.810 198.868,259.743 200.103,260.837 199.604 C 261.836 199.149,262.263 199.448,261.658 200.177 C 260.844 201.158,260.089 201.375,259.507 200.793 C 259.211 200.497,258.938 200.309,258.901 200.377 C 258.864 200.445,258.668 200.800,258.466 201.167 C 257.966 202.074,256.943 202.164,255.981 201.385 L 255.182 200.738 254.589 201.714 C 253.417 203.641,251.733 203.027,252.192 200.840 C 252.489 199.427,252.976 199.003,253.222 199.943 L 253.422 200.707 254.357 199.811 L 255.292 198.915 256.123 199.874 C 257.114 201.018,257.401 200.808,258.002 198.500 C 258.622 196.121,259.555 195.141,259.117 197.329 M162.647 218.084 C 162.438 218.956,162.132 219.752,161.968 219.853 C 160.947 220.484,161.020 221.288,162.083 221.120 C 162.679 221.025,164.292 221.195,165.667 221.497 C 167.042 221.799,170.126 222.394,172.520 222.819 C 174.914 223.244,179.264 224.200,182.187 224.943 C 187.892 226.395,194.799 227.972,200.167 229.050 C 205.251 230.071,213.193 230.317,212.723 229.439 C 212.147 228.363,210.063 221.003,209.651 218.591 L 209.267 216.348 207.050 216.523 C 205.831 216.620,204.018 216.841,203.022 217.016 C 200.487 217.460,198.406 217.414,193.282 216.801 C 189.731 216.377,186.229 216.293,175.931 216.385 L 163.028 216.500 162.647 218.084 M242.586 239.496 C 241.708 240.851,241.249 240.955,240.720 239.917 C 239.972 238.449,240.450 249.064,241.286 252.500 C 242.854 258.943,243.734 260.641,245.869 261.345 C 247.733 261.960,247.968 261.035,247.123 256.417 C 246.964 255.550,247.035 255.333,247.478 255.333 C 248.299 255.333,249.659 258.498,249.663 260.417 C 249.665 261.287,249.817 262.000,250.000 262.000 C 250.575 262.000,250.409 256.759,249.805 255.836 C 248.717 254.177,249.923 253.843,251.352 255.408 C 251.892 255.998,252.333 256.381,252.333 256.257 C 252.333 255.641,251.406 254.086,250.660 253.451 C 248.883 251.939,247.440 247.673,246.643 241.578 C 246.229 238.417,246.202 238.349,245.582 238.910 C 244.979 239.456,244.928 239.456,244.623 238.910 C 244.123 238.018,243.411 238.223,242.586 239.496 M150.430 241.767 C 149.135 243.172,148.204 245.689,147.487 249.722 C 147.237 251.125,147.912 253.755,149.255 256.617 L 150.139 258.500 150.255 257.273 C 150.329 256.484,150.116 255.547,149.656 254.645 C 149.082 253.522,149.028 253.189,149.382 252.970 C 150.416 252.331,152.333 255.265,152.333 257.489 C 152.333 258.357,152.477 258.667,152.879 258.667 C 153.444 258.667,153.442 258.838,152.915 253.700 C 152.870 253.261,153.022 252.835,153.253 252.755 C 153.886 252.535,154.984 255.267,154.993 257.083 C 155.000 258.752,155.625 259.321,155.725 257.750 C 156.020 253.086,155.889 252.312,154.708 251.751 C 152.372 250.643,151.642 246.667,153.170 243.384 C 154.149 241.281,154.141 241.333,153.490 241.333 C 153.209 241.333,152.893 241.108,152.787 240.833 C 152.469 240.003,151.819 240.260,150.430 241.767 M130.351 247.695 C 129.791 248.468,129.333 249.228,129.333 249.383 C 129.333 249.888,128.561 249.684,127.814 248.982 L 127.086 248.298 127.035 254.399 C 126.973 261.896,127.188 263.180,128.844 265.201 C 131.678 268.660,133.684 267.788,131.479 264.055 C 131.143 263.486,130.967 262.922,131.086 262.802 C 131.498 262.391,132.347 262.985,133.048 264.173 C 133.976 265.747,134.204 265.416,133.538 263.462 C 132.909 261.614,133.015 261.382,134.152 262.126 C 135.411 262.951,135.955 263.993,136.044 265.750 C 136.127 267.374,136.549 267.715,137.629 267.030 C 138.291 266.611,137.959 263.814,137.016 261.865 C 136.598 261.004,136.333 260.222,136.427 260.129 C 136.801 259.754,139.338 262.607,139.543 263.634 C 139.672 264.276,139.880 264.587,140.061 264.406 C 140.531 263.935,139.127 260.580,138.012 259.512 C 136.255 257.828,135.929 253.764,137.136 248.574 C 137.585 246.640,137.350 246.112,136.586 247.344 C 136.032 248.238,133.720 249.831,133.416 249.527 C 133.285 249.396,132.950 248.674,132.672 247.922 C 131.991 246.079,131.553 246.037,130.351 247.695 M222.329 250.841 C 219.825 254.892,221.453 267.418,224.985 271.278 C 227.048 273.532,227.309 272.914,226.474 267.750 C 226.190 265.988,226.605 265.916,228.152 267.463 C 229.290 268.602,229.995 270.373,229.998 272.107 C 230.000 272.890,230.125 273.029,230.750 272.940 C 231.659 272.811,231.946 270.046,231.342 267.231 C 230.860 264.983,231.271 264.733,232.828 266.328 C 234.026 267.555,234.139 267.835,234.333 270.077 C 234.587 273.021,235.181 272.354,235.143 269.167 C 235.106 266.073,234.871 265.340,233.553 264.209 C 231.737 262.651,231.274 260.976,231.083 255.257 C 230.906 249.995,230.564 248.916,229.537 250.382 L 229.014 251.129 228.235 250.398 C 227.271 249.492,226.791 249.476,226.256 250.333 C 226.027 250.700,225.671 251.000,225.465 251.000 C 225.259 251.000,224.709 250.700,224.242 250.333 C 223.149 249.473,223.179 249.465,222.329 250.841 "
              stroke="none" fill="#dcb390" fill-rule="evenodd"></path>
        <path id="path2"
              d="M207.006 89.250 C 207.013 89.942,208.046 91.287,211.045 94.508 C 213.598 97.251,213.992 97.931,215.001 101.333 C 216.000 104.707,216.750 106.085,218.282 107.372 L 219.574 108.456 218.769 110.214 C 218.326 111.181,217.783 112.858,217.562 113.940 C 217.182 115.803,217.120 115.892,216.384 115.620 C 212.028 114.009,200.879 116.140,194.000 119.900 C 190.710 121.698,189.418 122.107,186.386 122.312 L 183.605 122.500 185.053 124.011 C 187.865 126.947,191.696 131.681,192.842 133.637 C 194.086 135.758,196.510 138.093,198.567 139.151 C 199.263 139.509,200.508 140.278,201.333 140.858 C 203.528 142.402,204.501 142.819,207.833 143.641 C 212.709 144.845,213.973 145.019,217.935 145.036 C 222.283 145.055,222.138 144.937,222.529 148.755 C 223.376 157.029,215.656 166.859,207.167 168.315 C 197.959 169.894,186.412 170.485,181.000 169.654 C 178.909 169.333,175.515 168.861,164.167 167.315 C 155.331 166.111,147.569 166.516,142.081 168.468 L 140.662 168.972 138.866 166.569 C 134.915 161.282,129.962 148.802,129.023 141.769 C 128.501 137.862,128.281 133.333,128.612 133.333 C 128.773 133.333,128.906 132.921,128.909 132.417 C 128.917 130.523,129.118 128.966,129.373 128.809 C 129.519 128.719,129.553 128.425,129.450 128.156 C 129.347 127.887,129.423 127.667,129.621 127.667 C 129.818 127.667,129.893 127.442,129.787 127.167 C 129.682 126.892,129.757 126.667,129.954 126.667 C 130.151 126.667,130.232 126.457,130.133 126.200 C 130.035 125.944,130.108 125.639,130.296 125.523 C 130.484 125.407,130.553 125.092,130.450 124.823 C 130.347 124.554,130.423 124.333,130.621 124.333 C 130.818 124.333,130.893 124.108,130.787 123.833 C 130.682 123.558,130.770 123.333,130.984 123.333 C 131.198 123.333,131.297 123.210,131.203 123.059 C 131.110 122.909,131.243 122.384,131.497 121.893 C 131.752 121.402,131.876 121.000,131.773 121.000 C 131.670 121.000,131.772 120.775,132.000 120.500 C 132.228 120.225,132.318 120.000,132.200 120.000 C 132.081 120.000,132.230 119.625,132.531 119.167 C 132.831 118.708,132.966 118.333,132.831 118.333 C 132.696 118.333,132.752 118.132,132.956 117.886 C 133.160 117.640,133.229 117.340,133.108 117.219 C 132.988 117.099,133.073 117.000,133.297 117.000 C 133.522 117.000,133.613 116.850,133.500 116.667 C 133.387 116.483,133.462 116.333,133.667 116.333 C 133.872 116.333,133.955 116.196,133.851 116.028 C 133.747 115.861,133.776 115.673,133.915 115.612 C 134.053 115.550,134.876 114.440,135.744 113.145 C 136.611 111.849,138.073 110.076,138.994 109.205 C 141.954 106.402,140.728 106.441,137.420 109.256 C 136.460 110.073,135.752 110.869,135.848 111.024 C 135.944 111.180,135.419 112.192,134.680 113.275 C 130.350 119.619,127.312 131.306,127.778 139.833 C 128.183 147.256,133.597 161.214,138.424 167.281 C 140.040 169.311,140.156 169.971,138.902 169.995 C 138.493 170.003,134.993 172.641,133.424 174.125 C 132.648 174.858,131.953 175.393,131.879 175.313 C 125.605 168.536,120.749 152.148,121.820 141.369 C 123.277 126.715,125.563 120.950,132.642 114.083 C 134.390 112.388,135.642 111.000,135.425 111.000 C 134.960 111.000,130.038 115.821,128.249 118.028 C 127.193 119.331,125.806 121.999,123.433 127.292 C 123.156 127.912,122.855 128.887,122.765 129.459 C 122.674 130.032,122.471 130.743,122.312 131.040 C 122.153 131.336,122.108 131.664,122.212 131.767 C 122.315 131.871,122.277 132.153,122.126 132.394 C 121.976 132.636,121.817 133.062,121.773 133.342 C 121.729 133.621,121.469 135.239,121.195 136.936 C 120.920 138.633,120.781 140.243,120.885 140.514 C 120.989 140.785,120.893 142.487,120.671 144.295 C 119.738 151.912,123.183 163.826,128.912 172.794 L 131.229 176.421 129.450 180.794 C 125.292 191.018,123.548 218.588,124.850 253.500 C 124.945 256.067,124.892 259.367,124.731 260.833 C 124.294 264.814,125.437 267.000,127.956 267.000 C 128.277 267.000,129.497 267.375,130.667 267.833 C 136.866 270.263,144.391 266.483,142.037 262.122 C 141.925 261.914,141.172 261.239,140.364 260.622 C 136.929 257.999,136.195 251.857,138.677 246.500 C 139.016 245.767,139.593 244.400,139.957 243.463 C 141.822 238.671,145.151 233.736,144.624 236.545 C 144.456 237.437,144.285 239.179,144.243 240.416 C 144.201 241.652,144.067 242.665,143.946 242.666 C 143.678 242.667,143.532 245.672,143.514 251.565 L 143.500 255.964 144.636 257.135 C 146.708 259.272,153.717 260.492,156.718 259.237 L 157.935 258.728 158.175 255.852 C 158.442 252.644,158.137 251.911,156.391 251.561 C 153.529 250.989,152.330 247.548,153.728 243.917 C 153.922 243.412,154.222 243.000,154.393 243.000 C 154.565 243.000,154.619 242.859,154.512 242.687 C 154.406 242.514,154.593 242.102,154.929 241.770 C 155.529 241.177,160.015 234.995,161.072 233.305 C 162.285 231.363,164.667 224.984,164.667 223.674 C 164.667 222.444,164.735 222.336,165.417 222.485 C 167.462 222.933,170.371 223.438,172.167 223.658 C 175.251 224.035,179.667 225.062,179.667 225.401 C 179.667 225.569,179.788 225.631,179.937 225.539 C 180.085 225.447,184.397 226.414,189.520 227.686 C 201.240 230.598,202.724 230.877,209.024 231.349 C 214.745 231.777,214.440 231.666,214.932 233.500 C 218.319 246.134,219.168 251.911,218.796 259.780 C 218.329 269.667,219.983 272.513,226.835 273.614 C 236.369 275.145,241.250 270.386,235.680 264.991 C 232.879 262.277,232.399 261.363,231.950 257.884 C 231.565 254.899,232.312 246.952,232.999 246.722 C 233.183 246.661,233.333 246.383,233.333 246.104 C 233.333 245.384,235.103 239.797,235.209 240.182 C 235.258 240.357,235.375 241.550,235.470 242.833 C 235.688 245.788,236.791 253.256,237.586 257.167 C 238.188 260.126,238.215 260.177,239.583 260.933 C 241.693 262.100,248.479 263.155,250.787 262.676 C 252.545 262.311,254.976 260.453,254.577 259.779 C 254.486 259.625,254.533 258.620,254.682 257.544 C 255.058 254.830,254.713 254.105,252.819 253.628 C 251.227 253.227,249.328 251.152,249.821 250.353 C 249.941 250.159,249.872 250.000,249.667 250.000 C 249.462 250.000,249.380 249.860,249.486 249.690 C 249.591 249.519,249.523 249.284,249.333 249.167 C 249.144 249.050,249.069 248.825,249.167 248.667 C 249.264 248.509,249.198 248.289,249.020 248.179 C 248.842 248.069,248.780 247.758,248.884 247.489 C 248.987 247.220,248.915 247.000,248.723 247.000 C 248.531 247.000,248.372 246.737,248.368 246.417 C 248.365 246.096,248.257 245.383,248.130 244.833 C 248.002 244.283,247.885 243.121,247.868 242.250 C 247.852 241.379,247.750 240.667,247.643 240.667 C 246.419 240.667,249.063 229.312,251.495 224.120 C 252.765 221.411,258.251 214.722,259.750 214.056 C 259.887 213.994,260.000 213.750,260.000 213.513 C 260.000 213.276,260.222 212.897,260.493 212.672 C 262.248 211.216,264.094 207.154,264.510 203.833 C 264.895 200.760,264.889 183.364,264.501 180.000 C 263.952 175.227,263.949 175.163,264.341 175.667 C 264.662 176.080,264.686 176.051,264.477 175.500 C 263.129 171.948,265.541 154.333,267.375 154.333 C 267.557 154.333,267.613 154.183,267.500 154.000 C 267.387 153.817,267.453 153.667,267.647 153.667 C 267.841 153.667,267.963 153.554,267.919 153.417 C 267.669 152.650,273.397 144.841,273.903 145.257 C 273.964 145.307,274.421 144.970,274.920 144.507 C 275.764 143.724,275.978 143.618,276.553 143.697 C 276.674 143.713,276.909 143.485,277.074 143.190 C 277.239 142.894,277.499 142.730,277.652 142.824 C 277.805 142.919,278.020 142.763,278.129 142.477 C 278.241 142.187,278.499 142.063,278.716 142.197 C 278.930 142.330,279.014 142.292,278.903 142.113 C 278.728 141.830,280.471 140.524,281.046 140.506 C 281.462 140.494,284.333 138.286,284.333 137.979 C 284.333 137.807,284.534 137.667,284.778 137.667 C 285.023 137.667,285.614 137.254,286.091 136.750 C 286.568 136.246,287.155 135.653,287.396 135.433 C 288.031 134.850,288.832 133.878,288.842 133.675 C 288.847 133.579,289.134 133.076,289.481 132.557 C 289.828 132.038,290.109 131.138,290.106 130.557 C 290.103 129.976,290.266 129.387,290.467 129.250 C 290.719 129.078,290.677 128.898,290.333 128.672 C 289.887 128.379,290.085 128.193,290.738 128.290 C 290.869 128.309,290.899 128.126,290.806 127.881 C 290.712 127.637,291.084 126.957,291.633 126.369 C 292.182 125.781,292.638 125.195,292.646 125.067 C 292.655 124.938,292.867 124.593,293.118 124.299 C 293.825 123.474,293.744 118.154,293.003 116.667 C 292.683 116.025,292.320 114.807,292.197 113.960 C 291.352 108.166,286.409 106.356,277.121 108.440 L 273.833 109.178 273.086 107.672 C 270.469 102.398,264.301 96.858,258.383 94.468 C 254.293 92.816,241.494 92.442,238.318 93.882 L 236.803 94.569 235.652 93.580 C 232.728 91.071,228.671 90.026,221.667 89.979 C 214.262 89.928,208.568 89.537,208.412 89.069 C 208.199 88.430,206.999 88.585,207.006 89.250 M218.382 91.007 C 229.278 91.384,232.854 92.194,235.352 94.853 L 236.072 95.619 234.286 96.512 C 229.532 98.887,225.985 101.409,223.200 104.394 C 220.825 106.939,220.308 107.342,219.784 107.059 C 218.344 106.278,217.339 104.725,216.403 101.833 C 215.060 97.682,214.364 96.471,212.001 94.167 C 209.382 91.614,208.225 90.092,209.184 90.461 C 209.541 90.599,213.680 90.845,218.382 91.007 M255.647 94.879 C 261.552 96.087,271.284 103.600,270.016 105.971 C 269.824 106.329,269.667 106.922,269.667 107.287 C 269.667 107.979,268.223 109.333,267.486 109.333 C 267.212 109.333,267.130 109.069,267.256 108.583 C 267.430 107.908,267.392 107.880,266.876 108.303 C 266.561 108.562,266.387 108.991,266.489 109.257 C 266.619 109.596,266.514 109.680,266.139 109.536 C 264.068 108.741,263.172 109.022,265.148 109.847 C 267.484 110.823,271.464 110.821,275.667 109.841 C 278.917 109.083,285.333 108.248,285.333 108.582 C 285.333 108.640,284.733 109.446,283.998 110.375 C 281.178 113.943,281.685 114.654,287.230 114.909 L 291.211 115.092 292.163 117.108 C 294.972 123.057,291.033 128.457,281.167 132.181 C 280.067 132.596,277.425 133.694,275.296 134.622 C 270.579 136.678,266.145 138.000,263.963 138.000 C 262.220 138.000,261.782 138.456,263.186 138.808 C 265.096 139.288,269.387 138.146,275.667 135.487 C 277.958 134.516,280.814 133.354,282.012 132.903 C 284.906 131.815,287.660 130.419,288.582 129.573 C 290.050 128.227,289.811 130.391,288.186 133.163 C 286.579 135.906,278.661 141.668,270.333 146.154 C 267.675 147.587,263.550 149.856,261.167 151.197 C 254.305 155.059,253.305 155.320,247.852 154.669 C 244.813 154.306,240.280 153.017,239.517 152.298 C 239.102 151.908,238.667 151.917,238.667 152.316 C 238.667 153.484,244.515 155.213,249.500 155.519 C 254.075 155.800,255.168 155.527,259.500 153.018 C 261.333 151.957,264.755 150.084,267.103 148.858 L 271.373 146.628 269.935 148.397 C 267.963 150.825,266.308 154.125,264.785 158.667 L 263.500 162.500 263.541 171.833 C 263.563 176.967,263.696 185.292,263.836 190.333 C 264.265 205.757,263.310 209.384,257.056 216.081 C 253.814 219.553,242.581 226.692,241.718 225.829 C 241.477 225.589,242.674 222.048,244.081 218.833 C 246.680 212.898,248.629 205.792,248.253 203.620 C 248.064 202.526,247.832 203.261,247.346 206.500 C 246.899 209.475,245.472 213.891,243.738 217.667 C 243.106 219.042,242.086 221.708,241.471 223.591 C 240.856 225.474,238.983 229.824,237.309 233.258 C 232.387 243.350,231.325 247.063,231.312 254.224 C 231.300 260.958,231.688 262.163,234.830 265.151 C 238.119 268.280,238.549 270.268,236.241 271.676 C 234.322 272.846,234.000 272.629,234.000 270.168 C 234.000 268.106,232.132 264.756,231.394 265.495 C 231.296 265.593,231.653 266.131,232.189 266.690 C 233.023 267.561,233.191 268.051,233.359 270.103 C 233.603 273.089,233.660 273.000,231.480 273.000 L 229.667 273.000 229.665 271.917 C 229.662 270.127,229.030 268.405,228.110 267.682 C 226.791 266.644,226.374 266.868,227.578 267.968 C 228.645 268.943,228.800 269.331,229.149 271.911 L 229.339 273.321 227.753 273.131 C 220.469 272.255,219.329 270.173,219.379 257.833 C 219.422 247.136,218.754 242.776,215.341 231.500 C 212.349 221.618,211.042 216.564,210.176 211.540 C 210.042 210.763,209.832 210.368,209.650 210.550 C 209.264 210.936,209.748 213.988,210.841 218.060 C 211.300 219.769,212.122 222.841,212.668 224.887 C 213.214 226.933,213.802 228.980,213.976 229.436 C 214.406 230.568,214.621 230.529,209.277 230.267 C 202.682 229.942,196.499 228.780,182.167 225.170 C 178.317 224.200,174.342 223.305,173.333 223.181 C 172.325 223.056,169.832 222.590,167.793 222.144 C 163.876 221.287,161.961 221.165,159.917 221.640 C 158.398 221.992,158.353 221.757,159.695 220.479 C 164.583 215.824,168.630 205.093,167.850 198.853 C 167.479 195.884,167.169 196.705,167.134 200.751 C 167.088 206.004,165.319 211.406,161.998 216.433 C 159.729 219.867,158.807 220.786,150.000 228.389 C 138.923 237.951,132.947 254.698,138.751 259.915 C 141.507 262.392,142.000 262.960,142.000 263.660 C 142.000 264.455,139.871 266.622,139.772 265.928 C 139.420 263.459,139.173 262.824,138.109 261.647 C 137.456 260.924,136.760 260.333,136.562 260.333 C 136.365 260.333,136.673 260.821,137.247 261.417 C 140.473 264.761,139.418 268.175,135.234 267.934 L 133.500 267.833 133.283 266.057 C 133.141 264.888,132.807 264.005,132.310 263.475 C 131.318 262.419,131.057 262.710,131.962 263.861 C 132.763 264.880,132.974 267.667,132.250 267.666 C 131.401 267.666,125.678 265.382,125.651 265.033 C 125.293 260.356,125.656 218.454,126.113 211.667 C 127.465 191.637,128.124 186.415,129.780 182.630 C 130.213 181.642,130.996 179.786,131.520 178.507 C 132.682 175.672,134.059 174.097,137.272 171.929 C 144.820 166.836,153.997 166.527,178.667 170.535 C 186.080 171.740,193.271 171.547,205.625 169.810 C 217.398 168.155,226.687 154.973,222.756 145.500 L 222.064 143.833 219.949 143.911 C 216.838 144.026,212.021 143.435,208.220 142.471 C 204.554 141.542,204.267 141.424,201.833 139.838 C 200.917 139.241,199.453 138.352,198.581 137.861 C 196.498 136.690,194.768 134.937,193.333 132.544 C 192.692 131.474,190.704 129.001,188.917 127.049 L 185.667 123.500 187.838 123.306 C 189.544 123.154,190.741 122.748,193.421 121.411 C 202.411 116.926,211.098 115.191,216.468 116.807 C 217.637 117.159,218.068 117.180,218.145 116.890 C 218.202 116.676,218.431 115.525,218.655 114.334 C 220.011 107.093,225.035 102.014,236.667 96.127 C 241.015 93.926,248.562 93.430,255.647 94.879 M263.542 101.621 C 262.960 102.263,262.333 104.058,262.333 105.081 C 262.333 106.542,265.979 105.307,266.499 103.671 C 267.079 101.841,264.783 100.249,263.542 101.621 M265.600 102.864 C 265.712 104.010,265.287 104.498,263.867 104.855 C 262.938 105.088,262.912 105.062,263.141 104.132 C 263.742 101.689,265.402 100.834,265.600 102.864 M272.039 107.583 C 272.456 108.271,272.952 108.938,273.139 109.065 C 273.743 109.475,273.102 109.721,270.943 109.907 L 268.833 110.090 269.738 109.364 C 270.262 108.942,270.733 108.154,270.858 107.486 C 271.125 106.061,271.113 106.060,272.039 107.583 M288.490 109.556 C 289.687 110.719,290.977 112.982,290.993 113.948 C 290.999 114.306,290.285 114.359,287.417 114.214 C 285.446 114.115,283.646 114.026,283.417 114.017 C 282.320 113.973,283.408 111.615,285.481 109.541 C 286.966 108.057,286.946 108.057,288.490 109.556 M247.336 110.531 C 243.529 112.182,243.835 115.040,247.762 114.519 C 250.997 114.090,253.176 112.241,252.323 110.648 C 251.888 109.834,249.094 109.769,247.336 110.531 M251.607 111.383 C 251.422 112.622,249.883 113.455,247.496 113.607 C 245.137 113.757,244.697 113.346,245.978 112.187 C 247.630 110.692,251.798 110.097,251.607 111.383 M256.750 118.336 C 255.777 118.737,255.779 119.128,256.753 118.883 C 259.364 118.228,257.592 120.577,254.167 122.312 C 252.531 123.140,251.757 123.326,249.917 123.329 C 247.651 123.333,246.917 123.799,248.535 124.205 C 252.683 125.246,260.143 121.587,259.610 118.773 C 259.477 118.076,257.947 117.842,256.750 118.336 M208.333 119.224 C 205.517 119.583,202.806 120.424,200.089 121.780 C 198.482 122.582,195.892 123.805,194.333 124.498 C 192.775 125.191,191.442 125.808,191.372 125.869 C 190.983 126.203,192.582 127.797,193.852 128.341 C 196.341 129.408,198.875 131.558,200.006 133.562 C 202.000 137.095,204.458 138.748,211.292 141.153 C 219.100 143.901,223.325 135.512,218.864 126.118 C 218.019 124.340,217.700 123.275,217.831 122.679 C 218.341 120.353,213.447 118.573,208.333 119.224 M215.679 120.750 C 217.042 121.437,217.162 121.598,217.106 122.667 C 217.067 123.402,217.492 124.819,218.255 126.500 C 220.394 131.210,220.168 137.571,217.788 139.661 C 214.218 142.797,203.890 138.841,200.599 133.076 C 199.424 131.020,197.430 129.289,194.585 127.858 C 192.720 126.920,191.755 126.000,192.635 126.000 C 192.832 126.000,195.207 124.938,197.913 123.640 C 205.675 119.917,211.990 118.890,215.679 120.750 M251.609 221.917 C 251.546 222.054,251.027 223.067,250.454 224.167 C 247.987 228.907,246.478 235.323,246.773 239.817 C 247.326 248.234,249.544 253.629,252.658 254.127 C 253.705 254.294,254.033 254.514,254.194 255.155 C 254.505 256.397,254.138 256.981,253.715 255.917 C 253.514 255.412,253.283 255.000,253.202 255.000 C 253.121 255.000,252.780 254.901,252.444 254.780 C 251.910 254.588,251.923 254.661,252.549 255.363 C 253.470 256.398,253.915 259.413,253.313 260.537 C 252.606 261.860,252.333 261.450,252.333 259.062 C 252.333 257.009,252.244 256.705,251.398 255.896 C 250.160 254.709,249.626 254.740,250.768 255.932 C 251.550 256.748,251.672 257.172,251.747 259.335 L 251.833 261.805 250.744 262.028 C 249.421 262.300,249.457 262.355,249.164 259.607 C 248.981 257.881,248.749 257.213,248.130 256.633 C 247.251 255.807,247.029 256.111,247.849 257.018 C 248.161 257.362,248.445 258.536,248.566 259.980 L 248.767 262.371 247.967 262.190 C 247.527 262.090,245.778 261.793,244.081 261.530 C 238.534 260.670,238.165 259.955,236.844 247.500 C 236.552 244.750,236.190 241.525,236.040 240.333 C 235.773 238.213,235.797 238.110,237.149 235.500 C 237.909 234.033,239.115 231.528,239.828 229.932 L 241.124 227.032 243.645 226.005 C 246.494 224.846,251.000 222.355,251.000 221.941 C 251.000 221.790,251.162 221.667,251.361 221.667 C 251.560 221.667,251.671 221.779,251.609 221.917 M163.900 223.632 C 163.643 225.796,160.664 232.667,159.056 234.802 C 152.830 243.070,151.612 246.163,153.141 249.824 C 153.636 251.008,155.667 252.333,156.987 252.333 C 157.571 252.333,157.661 252.534,157.628 253.750 C 157.607 254.529,157.516 254.867,157.425 254.500 C 157.221 253.669,156.693 253.000,156.241 253.000 C 156.052 253.000,156.125 253.262,156.404 253.583 C 156.683 253.904,157.001 255.076,157.110 256.187 L 157.310 258.208 156.215 258.604 C 155.612 258.822,155.035 259.000,154.932 259.000 C 154.829 259.000,154.683 258.033,154.608 256.852 C 154.482 254.882,153.596 252.960,153.060 253.496 C 152.968 253.588,153.130 253.926,153.420 254.248 C 153.747 254.611,153.982 255.591,154.040 256.833 L 154.132 258.833 152.316 258.940 C 149.665 259.096,146.740 258.209,145.241 256.795 L 144.000 255.625 144.002 251.896 C 144.003 249.845,144.237 246.667,144.522 244.833 C 144.807 243.000,145.223 239.666,145.448 237.424 C 145.920 232.709,145.771 232.943,151.167 228.410 C 152.817 227.024,154.867 225.219,155.724 224.400 C 157.459 222.739,159.338 222.060,162.296 222.022 L 164.093 222.000 163.900 223.632 M149.990 254.156 C 150.513 254.713,150.814 255.519,150.924 256.656 C 151.012 257.578,151.216 258.333,151.376 258.333 C 152.123 258.333,151.332 254.490,150.446 253.819 C 149.444 253.059,149.158 253.271,149.990 254.156 M134.299 263.178 C 135.130 264.125,135.333 264.653,135.333 265.865 C 135.333 266.831,135.459 267.295,135.683 267.157 C 136.306 266.771,135.666 263.916,134.732 262.917 C 133.471 261.568,133.088 261.799,134.299 263.178 "
              stroke="none" fill="#0e0b0a" fill-rule="evenodd"></path>
        <path id="path3"
              d="M209.242 91.189 C 209.631 91.727,210.872 93.067,212.001 94.167 C 214.364 96.471,215.060 97.682,216.403 101.833 C 217.339 104.725,218.344 106.278,219.784 107.059 C 220.308 107.342,220.825 106.939,223.200 104.394 C 225.985 101.409,229.532 98.887,234.286 96.512 L 236.072 95.619 235.352 94.853 C 232.854 92.194,229.278 91.384,218.382 91.007 C 213.680 90.845,209.541 90.599,209.184 90.461 C 208.565 90.223,208.568 90.258,209.242 91.189 M244.760 94.245 C 245.636 94.314,246.986 94.313,247.760 94.244 C 248.534 94.174,247.817 94.117,246.167 94.118 C 244.517 94.119,243.884 94.177,244.760 94.245 M225.000 103.500 C 224.190 104.325,223.603 105.000,223.695 105.000 C 223.786 105.000,224.524 104.325,225.333 103.500 C 226.143 102.675,226.730 102.000,226.639 102.000 C 226.547 102.000,225.810 102.675,225.000 103.500 M262.106 105.160 C 262.200 106.080,263.839 106.637,264.502 105.974 C 264.935 105.541,264.839 105.498,263.694 105.607 C 262.653 105.706,262.359 105.608,262.216 105.115 C 262.060 104.574,262.046 104.579,262.106 105.160 M266.217 105.614 C 265.321 106.549,265.317 106.573,265.927 107.327 L 266.546 108.091 267.752 106.850 C 268.433 106.148,268.878 105.404,268.776 105.138 C 268.479 104.362,267.186 104.603,266.217 105.614 M285.481 109.541 C 283.408 111.615,282.320 113.973,283.417 114.017 C 283.646 114.026,285.446 114.115,287.417 114.214 C 291.432 114.417,291.409 114.433,290.368 112.140 C 289.778 110.842,287.532 108.333,286.960 108.333 C 286.811 108.333,286.146 108.877,285.481 109.541 M133.146 112.750 L 132.167 113.833 133.250 112.854 C 133.846 112.316,134.333 111.828,134.333 111.771 C 134.333 111.513,134.058 111.740,133.146 112.750 M218.724 113.692 C 218.509 114.623,218.333 115.723,218.333 116.137 C 218.333 117.235,218.127 117.306,216.429 116.795 C 214.101 116.095,208.154 116.195,205.056 116.986 C 202.070 117.749,195.330 120.200,194.838 120.702 C 194.652 120.892,195.325 120.720,196.333 120.320 C 205.721 116.592,214.243 115.920,217.177 118.676 C 218.760 120.163,219.150 119.554,219.159 115.580 C 219.163 113.611,219.155 112.000,219.141 112.000 C 219.126 112.000,218.939 112.761,218.724 113.692 M250.333 113.833 C 249.875 114.095,249.162 114.315,248.750 114.322 C 248.338 114.328,248.000 114.500,248.000 114.703 C 248.000 115.196,249.543 114.803,250.833 113.981 C 251.989 113.245,251.576 113.123,250.333 113.833 M255.668 114.498 C 255.423 114.955,254.873 115.558,254.445 115.839 C 253.453 116.489,253.460 117.068,254.465 117.534 C 255.519 118.023,256.175 117.616,257.026 115.950 C 258.074 113.894,256.749 112.477,255.668 114.498 M288.421 115.239 C 288.928 115.316,289.678 115.314,290.088 115.235 C 290.498 115.156,290.083 115.093,289.167 115.095 C 288.250 115.098,287.915 115.163,288.421 115.239 M128.798 117.083 C 127.776 118.191,126.581 119.769,127.219 119.167 C 127.931 118.496,130.073 116.000,129.938 116.000 C 129.860 116.000,129.348 116.487,128.798 117.083 M293.580 119.902 C 293.767 122.535,293.943 122.881,293.969 120.667 C 293.980 119.658,293.867 118.639,293.716 118.402 C 293.564 118.162,293.503 118.824,293.580 119.902 M212.417 119.230 C 212.737 119.314,213.262 119.314,213.583 119.230 C 213.904 119.146,213.642 119.077,213.000 119.077 C 212.358 119.077,212.096 119.146,212.417 119.230 M188.333 126.500 C 188.955 127.142,189.539 127.667,189.631 127.667 C 189.722 127.667,189.289 127.142,188.667 126.500 C 188.045 125.858,187.461 125.333,187.369 125.333 C 187.278 125.333,187.711 125.858,188.333 126.500 M286.000 129.509 C 282.349 131.320,267.758 136.570,265.023 137.058 C 261.965 137.603,261.500 137.795,261.500 138.508 C 261.500 139.092,261.725 139.165,263.500 139.152 C 265.561 139.136,268.181 138.736,267.921 138.477 C 267.841 138.396,266.963 138.484,265.971 138.673 C 264.111 139.026,262.333 138.847,262.333 138.307 C 262.333 138.138,263.067 138.000,263.963 138.000 C 266.145 138.000,270.579 136.678,275.296 134.622 C 277.425 133.694,280.067 132.596,281.167 132.181 C 283.685 131.230,287.882 129.127,288.162 128.675 C 288.278 128.487,288.326 128.356,288.270 128.384 C 288.213 128.412,287.192 128.918,286.000 129.509 M288.643 129.528 C 288.053 130.239,284.549 131.953,280.562 133.481 C 278.763 134.171,277.345 134.790,277.412 134.857 C 277.842 135.286,286.273 131.782,288.371 130.301 C 288.850 129.963,289.337 129.782,289.454 129.899 C 289.571 130.016,289.667 129.861,289.667 129.556 C 289.667 128.855,289.212 128.843,288.643 129.528 M122.559 135.083 C 121.302 144.541,121.241 146.152,121.960 151.008 C 122.646 155.643,124.994 163.340,126.867 167.093 C 128.045 169.453,131.784 175.354,132.035 175.250 C 132.502 175.058,135.712 172.002,135.293 172.149 C 134.712 172.353,130.892 166.294,128.866 161.955 C 124.833 153.315,122.676 143.082,123.131 134.750 C 123.396 129.913,123.234 130.007,122.559 135.083 M128.411 135.667 C 128.411 136.308,128.479 136.571,128.563 136.250 C 128.647 135.929,128.647 135.404,128.563 135.083 C 128.479 134.762,128.411 135.025,128.411 135.667 M120.757 141.667 C 120.757 142.492,120.822 142.829,120.902 142.417 C 120.981 142.004,120.981 141.329,120.902 140.917 C 120.822 140.504,120.757 140.842,120.757 141.667 M204.344 141.294 C 206.189 142.464,215.743 144.067,219.949 143.911 L 222.064 143.833 222.756 145.500 C 226.687 154.973,217.398 168.155,205.625 169.810 C 193.271 171.547,186.080 171.740,178.667 170.535 C 164.772 168.277,160.881 167.847,154.667 167.883 C 144.850 167.939,143.838 168.507,153.167 168.726 C 159.848 168.882,161.283 169.014,164.333 169.753 C 166.258 170.219,169.633 170.927,171.833 171.327 C 174.033 171.728,176.272 172.194,176.808 172.364 C 184.876 174.919,204.510 173.233,212.360 169.310 C 221.228 164.879,227.327 153.365,224.149 147.054 C 223.750 146.263,223.633 145.411,223.742 144.101 L 223.894 142.259 222.030 142.456 C 216.076 143.084,215.210 143.064,210.500 142.193 C 207.933 141.718,205.383 141.249,204.833 141.151 C 204.107 141.020,203.973 141.060,204.344 141.294 M278.833 141.863 L 277.833 142.722 278.917 142.005 C 279.512 141.611,280.000 141.223,280.000 141.144 C 280.000 140.894,279.859 140.981,278.833 141.863 M275.333 144.167 C 274.712 144.625,274.345 144.995,274.519 144.988 C 274.853 144.975,276.963 143.338,276.648 143.335 C 276.546 143.334,275.955 143.708,275.333 144.167 M272.500 144.521 C 271.950 144.805,271.275 145.278,271.000 145.572 C 270.613 145.985,273.350 144.646,273.972 144.118 C 274.346 143.801,273.384 144.064,272.500 144.521 M266.000 149.445 C 263.158 150.954,259.783 152.810,258.500 153.569 C 255.248 155.494,253.889 155.789,249.500 155.519 C 244.339 155.202,238.546 153.438,238.697 152.228 C 238.889 150.685,238.664 150.399,236.917 149.965 C 235.954 149.726,235.064 149.558,234.938 149.592 C 234.813 149.625,234.081 149.431,233.313 149.159 C 229.856 147.940,229.298 149.055,232.476 150.832 C 243.860 157.198,250.893 157.987,259.354 153.847 C 262.970 152.078,266.245 151.306,266.817 152.088 C 267.154 152.549,267.293 152.457,267.853 151.399 C 268.209 150.727,269.139 149.388,269.921 148.422 C 270.702 147.457,271.302 146.674,271.254 146.684 C 271.206 146.694,268.842 147.936,266.000 149.445 M263.118 169.500 C 263.117 171.150,263.174 171.867,263.244 171.093 C 263.313 170.320,263.314 168.970,263.245 168.093 C 263.177 167.217,263.119 167.850,263.118 169.500 M264.023 176.528 C 264.036 177.246,264.174 178.133,264.330 178.500 C 264.506 178.915,264.543 178.474,264.427 177.333 C 264.203 175.138,263.991 174.714,264.023 176.528 M263.417 178.167 C 263.421 178.900,263.489 179.161,263.569 178.746 C 263.649 178.331,263.646 177.731,263.562 177.413 C 263.479 177.094,263.414 177.433,263.417 178.167 M130.388 181.110 C 127.778 187.520,127.288 191.746,125.477 223.428 C 125.353 225.588,125.363 231.630,125.498 236.855 L 125.743 246.353 127.212 247.927 L 128.681 249.500 129.257 248.680 C 131.372 245.672,131.973 245.535,132.862 247.863 C 133.171 248.672,133.498 249.333,133.589 249.333 C 134.079 249.333,136.008 247.871,136.490 247.135 C 136.798 246.665,137.249 246.357,137.492 246.451 C 137.782 246.562,138.004 246.255,138.137 245.560 C 138.371 244.335,141.774 237.165,142.594 236.170 C 142.897 235.802,142.401 236.188,141.490 237.029 C 137.604 240.617,136.731 241.162,135.971 240.474 C 133.022 237.805,130.016 230.995,128.774 224.167 C 128.062 220.250,128.085 202.109,128.808 197.333 C 129.099 195.408,129.570 192.033,129.854 189.833 C 130.138 187.633,130.660 184.194,131.015 182.191 C 131.802 177.744,131.776 177.700,130.388 181.110 M255.360 179.615 C 254.103 182.079,250.245 184.686,247.116 185.187 C 245.608 185.428,240.786 182.176,239.788 180.245 C 239.420 179.533,239.175 179.358,238.914 179.619 C 237.896 180.637,242.219 185.688,244.667 186.340 C 248.438 187.346,253.119 186.214,255.647 183.686 L 257.029 182.305 258.855 182.643 C 259.860 182.828,261.129 182.891,261.674 182.782 C 262.220 182.673,262.669 182.715,262.672 182.875 C 262.675 183.035,262.424 185.616,262.115 188.609 C 261.574 193.850,261.576 194.089,262.166 195.089 C 262.503 195.660,263.060 196.811,263.403 197.647 L 264.028 199.167 263.810 190.167 C 263.529 178.517,263.657 179.687,262.704 180.049 C 260.876 180.744,259.091 180.526,257.514 179.414 L 256.005 178.350 255.360 179.615 M249.777 197.816 C 247.894 199.428,246.062 203.049,245.690 205.894 C 245.525 207.155,244.359 211.133,243.068 214.833 C 240.021 223.575,239.641 224.502,237.323 228.867 C 234.735 233.742,231.301 244.781,231.350 248.066 C 231.361 248.813,231.620 248.203,232.157 246.167 C 233.332 241.707,233.971 240.107,237.310 233.258 C 238.984 229.824,240.856 225.474,241.471 223.591 C 242.086 221.708,243.106 219.042,243.738 217.667 C 245.461 213.914,246.896 209.487,247.356 206.500 C 247.805 203.581,249.723 199.195,251.254 197.583 C 252.544 196.225,251.431 196.401,249.777 197.816 M209.100 199.378 C 207.319 203.129,207.168 210.126,208.797 213.456 C 209.947 215.805,210.128 215.706,209.687 212.968 C 209.483 211.697,209.468 210.732,209.650 210.550 C 209.832 210.368,210.042 210.763,210.176 211.540 C 211.042 216.564,212.349 221.618,215.341 231.500 C 217.971 240.190,219.237 246.645,219.389 252.145 C 219.428 253.553,219.485 253.787,219.576 252.917 C 219.720 251.542,219.756 251.513,220.689 252.012 C 221.731 252.569,221.522 250.643,219.845 244.209 C 219.026 241.069,217.837 235.350,217.204 231.500 C 216.342 226.266,215.717 223.562,214.725 220.784 C 213.927 218.551,213.519 216.948,213.701 216.765 C 213.884 216.583,213.521 215.346,212.793 213.666 C 211.441 210.545,210.497 206.168,210.099 201.167 L 209.833 197.833 209.100 199.378 M166.860 202.514 C 166.646 203.365,161.807 212.317,160.650 214.000 C 160.335 214.458,159.521 215.883,158.841 217.167 C 157.506 219.685,157.079 220.199,152.314 225.013 C 150.583 226.762,148.425 229.087,147.518 230.180 L 145.870 232.167 147.852 230.315 C 148.942 229.296,150.883 227.574,152.167 226.487 C 158.137 221.433,159.774 219.767,161.901 216.580 C 164.249 213.063,166.360 207.814,166.984 203.941 C 167.326 201.814,167.251 200.953,166.860 202.514 M256.823 217.083 L 254.833 219.167 256.917 217.177 C 258.063 216.083,259.000 215.145,259.000 215.094 C 259.000 214.847,258.671 215.148,256.823 217.083 M255.146 217.750 L 254.167 218.833 255.250 217.854 C 255.846 217.316,256.333 216.828,256.333 216.771 C 256.333 216.513,256.058 216.740,255.146 217.750 M159.672 220.495 C 159.052 221.134,158.610 221.708,158.689 221.771 C 158.769 221.833,159.338 221.311,159.955 220.609 C 161.358 219.015,161.177 218.942,159.672 220.495 M158.890 222.478 C 157.800 222.771,156.778 223.391,155.724 224.400 C 154.867 225.219,152.815 227.020,151.162 228.401 C 145.977 232.734,145.794 233.007,145.512 236.870 C 145.379 238.683,145.154 240.804,145.011 241.583 C 144.716 243.202,145.082 243.428,145.818 242.083 C 147.244 239.479,148.058 239.161,148.933 240.867 L 149.549 242.068 151.733 240.215 C 155.220 237.257,160.194 229.337,162.692 222.766 C 163.043 221.842,161.648 221.736,158.890 222.478 M171.415 223.859 C 171.743 224.187,173.340 224.260,173.528 223.955 C 173.626 223.796,173.147 223.667,172.464 223.667 C 171.781 223.667,171.309 223.753,171.415 223.859 M176.121 224.565 C 176.248 224.693,176.536 224.826,176.760 224.862 C 179.707 225.334,179.852 225.332,178.167 224.836 C 176.312 224.291,175.775 224.220,176.121 224.565 M243.480 226.042 L 241.126 227.027 239.829 229.930 C 239.115 231.527,237.910 234.033,237.152 235.500 C 235.717 238.274,235.432 240.667,236.536 240.667 C 236.791 240.667,237.000 240.854,237.000 241.083 C 237.001 242.324,240.222 238.041,240.823 236.000 C 241.780 232.750,243.632 228.452,244.862 226.624 C 245.463 225.731,245.928 225.013,245.894 225.028 C 245.861 225.044,244.774 225.500,243.480 226.042 M180.333 225.630 C 180.608 225.786,181.433 226.006,182.167 226.118 C 183.008 226.247,183.254 226.220,182.833 226.045 C 181.858 225.639,179.729 225.285,180.333 225.630 M247.672 242.361 C 247.675 242.987,247.814 243.717,247.982 243.983 C 248.180 244.295,248.221 243.942,248.098 242.983 C 247.862 241.142,247.665 240.854,247.672 242.361 M164.167 242.172 C 154.785 242.677,154.162 242.782,153.715 243.949 C 152.332 247.551,153.306 250.481,156.228 251.512 C 156.928 251.759,157.459 252.131,157.408 252.339 C 157.358 252.546,157.460 252.628,157.635 252.519 C 158.254 252.137,158.405 253.087,158.171 255.892 L 157.935 258.728 156.718 259.237 C 155.169 259.885,149.541 259.656,147.302 258.854 C 143.653 257.548,142.582 254.029,143.579 246.619 C 143.843 244.657,143.817 244.437,143.355 244.691 C 143.068 244.849,141.958 245.146,140.887 245.352 C 138.633 245.785,138.366 246.185,137.665 250.176 C 136.699 255.673,137.391 258.352,140.364 260.622 C 146.120 265.016,138.306 270.827,130.667 267.833 C 129.497 267.375,128.277 267.000,127.956 267.000 C 125.521 267.000,124.295 264.801,124.703 261.167 C 125.055 258.042,125.071 249.333,124.725 249.333 C 122.557 249.333,112.615 253.400,110.674 255.081 C 108.743 256.753,106.378 259.703,106.156 260.717 C 106.041 261.240,105.809 261.667,105.640 261.667 C 105.471 261.667,105.333 262.267,105.333 263.000 C 105.333 263.733,105.460 264.333,105.614 264.333 C 105.768 264.333,106.069 264.915,106.282 265.627 C 111.161 281.912,170.479 294.750,218.000 289.806 C 247.505 286.737,265.312 280.325,269.960 271.097 C 270.349 270.325,270.667 269.462,270.667 269.180 C 270.667 268.898,270.817 268.667,271.000 268.667 C 271.183 268.667,271.333 268.217,271.333 267.667 C 271.333 267.117,271.183 266.667,271.000 266.667 C 270.817 266.667,270.667 266.437,270.667 266.156 C 270.667 263.988,266.660 259.252,262.500 256.502 C 258.545 253.887,250.250 249.972,249.742 250.480 C 249.189 251.033,251.367 253.263,252.819 253.628 C 254.713 254.105,255.058 254.830,254.682 257.544 C 254.533 258.620,254.486 259.625,254.577 259.779 C 254.976 260.453,252.545 262.311,250.787 262.676 C 248.479 263.155,241.694 262.100,239.582 260.933 L 238.195 260.167 237.470 256.537 C 237.071 254.541,236.545 251.241,236.300 249.204 C 236.055 247.167,235.802 245.833,235.739 246.241 C 235.634 246.910,235.486 246.962,234.189 246.785 C 232.535 246.558,232.687 246.196,231.981 252.051 C 231.207 258.466,232.073 261.496,235.680 264.991 C 238.331 267.558,238.852 268.985,237.831 270.881 C 235.915 274.439,225.596 274.857,221.649 271.536 C 221.122 271.093,220.531 270.677,220.334 270.611 C 219.228 270.243,218.861 267.576,218.805 259.500 C 218.752 251.906,218.082 244.249,217.416 243.635 C 217.279 243.509,214.617 243.229,211.500 243.013 C 208.383 242.797,205.446 242.558,204.972 242.482 C 200.297 241.729,175.840 241.543,164.167 242.172 M247.000 256.056 C 247.000 256.269,247.100 256.344,247.223 256.221 C 247.346 256.099,247.758 256.261,248.140 256.583 C 248.833 257.166,248.833 257.166,248.198 256.417 C 247.505 255.598,247.000 255.446,247.000 256.056 M252.424 259.333 C 252.424 260.158,252.489 260.496,252.569 260.083 C 252.648 259.671,252.648 258.996,252.569 258.583 C 252.489 258.171,252.424 258.508,252.424 259.333 M253.417 259.167 C 253.421 259.900,253.489 260.161,253.569 259.746 C 253.649 259.331,253.646 258.731,253.562 258.413 C 253.479 258.094,253.414 258.433,253.417 259.167 M135.091 265.667 C 135.091 266.492,135.156 266.829,135.235 266.417 C 135.315 266.004,135.315 265.329,135.235 264.917 C 135.156 264.504,135.091 264.842,135.091 265.667 "
              stroke="none" fill="#534a4a" fill-rule="evenodd"></path>
        <path id="path4"
              d="M258.833 106.333 C 258.720 106.517,258.945 106.667,259.333 106.667 C 259.722 106.667,259.947 106.517,259.833 106.333 C 259.720 106.150,259.495 106.000,259.333 106.000 C 259.172 106.000,258.947 106.150,258.833 106.333 M257.519 107.408 C 256.870 108.334,256.862 109.024,257.490 109.853 C 257.935 110.441,257.945 110.404,257.596 109.450 C 257.278 108.578,257.309 108.254,257.781 107.534 C 258.472 106.478,258.246 106.369,257.519 107.408 M269.254 110.902 C 269.669 110.982,270.269 110.979,270.587 110.896 C 270.906 110.812,270.567 110.747,269.833 110.751 C 269.100 110.754,268.839 110.823,269.254 110.902 M134.386 112.444 C 133.825 113.041,133.773 113.222,134.161 113.222 C 134.439 113.222,134.591 113.147,134.499 113.055 C 134.407 112.963,134.580 112.613,134.884 112.277 C 135.696 111.380,135.243 111.532,134.386 112.444 M259.833 113.000 C 260.549 113.733,261.210 114.333,261.302 114.333 C 261.394 114.333,260.883 113.733,260.167 113.000 C 259.451 112.267,258.790 111.667,258.698 111.667 C 258.606 111.667,259.117 112.267,259.833 113.000 M282.615 114.643 C 283.756 115.638,285.851 116.157,288.466 116.092 C 292.314 115.996,291.689 115.455,287.448 115.213 C 284.853 115.065,283.247 114.816,282.683 114.475 L 281.833 113.960 282.615 114.643 M128.398 118.917 C 126.623 121.429,123.296 129.783,123.351 131.587 C 123.361 131.906,123.740 130.892,124.194 129.333 C 124.647 127.775,125.954 124.587,127.097 122.250 C 128.241 119.912,129.147 118.000,129.111 118.000 C 129.075 118.000,128.754 118.412,128.398 118.917 M255.484 129.083 L 254.167 130.500 255.583 129.182 C 256.901 127.957,257.153 127.667,256.901 127.667 C 256.847 127.667,256.209 128.304,255.484 129.083 M126.252 131.167 C 126.339 131.625,126.469 132.000,126.539 132.000 C 126.609 132.000,126.667 131.625,126.667 131.167 C 126.667 130.708,126.537 130.333,126.380 130.333 C 126.222 130.333,126.164 130.708,126.252 131.167 M125.302 131.537 C 125.057 131.833,124.551 132.198,124.178 132.349 C 123.700 132.543,123.655 132.631,124.025 132.646 C 124.314 132.657,124.903 132.292,125.333 131.833 C 125.764 131.375,126.033 131.000,125.932 131.000 C 125.831 131.000,125.548 131.242,125.302 131.537 M246.917 134.688 C 245.862 135.232,245.000 135.752,245.000 135.843 C 245.000 135.935,245.900 135.555,247.000 135.000 C 248.100 134.445,249.000 133.918,249.000 133.829 C 249.000 133.606,249.062 133.581,246.917 134.688 M242.205 138.001 C 241.542 138.735,241.005 139.522,241.010 139.751 C 241.016 139.980,241.185 139.867,241.387 139.500 C 241.589 139.133,242.214 138.346,242.776 137.750 C 243.338 137.154,243.710 136.667,243.604 136.667 C 243.498 136.667,242.868 137.267,242.205 138.001 M273.167 143.642 C 271.883 144.142,268.958 145.485,266.667 146.627 C 254.009 152.934,250.903 153.564,243.333 151.358 C 239.016 150.099,238.712 150.084,238.913 151.140 C 239.203 152.655,244.150 154.211,249.720 154.539 C 253.540 154.764,256.027 154.110,259.325 152.015 C 260.154 151.488,262.991 149.916,265.629 148.523 C 268.267 147.129,270.935 145.541,271.557 144.994 C 272.180 144.447,273.043 144.000,273.475 144.000 C 273.906 144.000,274.614 143.705,275.046 143.344 C 276.022 142.532,276.014 142.533,273.167 143.642 M261.250 175.569 C 261.662 175.648,262.337 175.648,262.750 175.569 C 263.162 175.489,262.825 175.424,262.000 175.424 C 261.175 175.424,260.837 175.489,261.250 175.569 M238.028 176.417 C 238.104 176.463,238.617 176.875,239.167 177.333 L 240.167 178.167 239.359 177.250 C 238.914 176.746,238.402 176.333,238.220 176.333 C 238.038 176.333,237.951 176.371,238.028 176.417 M253.479 181.750 L 252.500 182.833 253.583 181.854 C 254.593 180.942,254.820 180.667,254.562 180.667 C 254.505 180.667,254.017 181.154,253.479 181.750 M254.649 194.283 C 253.834 194.805,252.867 195.581,252.500 196.007 C 252.126 196.442,252.641 196.180,253.674 195.408 C 254.686 194.653,255.886 193.886,256.341 193.705 C 256.800 193.522,256.936 193.366,256.649 193.354 C 256.364 193.343,255.464 193.761,254.649 194.283 M258.889 193.689 C 259.084 193.884,259.752 194.105,260.372 194.180 L 261.500 194.316 260.333 193.850 C 258.896 193.276,258.423 193.223,258.889 193.689 M258.571 196.583 C 258.497 196.721,258.241 197.583,258.002 198.500 C 257.401 200.808,257.114 201.018,256.123 199.874 L 255.292 198.915 254.357 199.811 L 253.422 200.707 253.222 199.943 C 252.976 199.003,252.489 199.427,252.192 200.840 C 251.733 203.027,253.417 203.641,254.589 201.714 L 255.182 200.738 255.981 201.385 C 256.943 202.164,257.966 202.074,258.466 201.167 C 258.668 200.800,258.864 200.445,258.901 200.377 C 258.938 200.309,259.211 200.497,259.507 200.793 C 260.089 201.375,260.844 201.158,261.658 200.177 C 262.263 199.448,261.836 199.149,260.837 199.604 C 259.743 200.103,258.810 198.868,259.117 197.329 C 259.295 196.442,258.922 195.933,258.571 196.583 M180.400 216.248 C 181.995 216.309,184.695 216.309,186.400 216.249 C 188.105 216.188,186.800 216.138,183.500 216.138 C 180.200 216.137,178.805 216.187,180.400 216.248 M207.500 216.349 C 207.017 216.568,207.167 216.599,208.044 216.462 L 209.255 216.274 209.645 218.554 C 210.212 221.857,212.344 228.940,213.026 229.780 C 213.929 230.894,214.024 230.343,213.336 227.989 C 211.894 223.057,210.333 217.128,210.333 216.583 C 210.333 215.933,208.714 215.799,207.500 216.349 M165.250 216.580 C 166.396 216.645,168.271 216.645,169.417 216.580 C 170.563 216.515,169.625 216.462,167.333 216.462 C 165.042 216.462,164.104 216.515,165.250 216.580 M190.750 216.563 C 191.071 216.647,191.596 216.647,191.917 216.563 C 192.237 216.479,191.975 216.411,191.333 216.411 C 190.692 216.411,190.429 216.479,190.750 216.563 M162.168 217.755 C 161.821 218.342,160.938 219.472,160.206 220.266 L 158.874 221.711 159.854 221.477 C 161.093 221.181,162.187 219.879,162.625 218.177 C 163.056 216.506,162.958 216.416,162.168 217.755 M194.083 216.896 C 194.404 216.980,194.929 216.980,195.250 216.896 C 195.571 216.813,195.308 216.744,194.667 216.744 C 194.025 216.744,193.762 216.813,194.083 216.896 M197.760 217.245 C 198.636 217.314,199.986 217.313,200.760 217.244 C 201.534 217.174,200.817 217.117,199.167 217.118 C 197.517 217.119,196.884 217.177,197.760 217.245 M162.254 221.236 C 162.669 221.315,163.269 221.312,163.587 221.229 C 163.906 221.146,163.567 221.080,162.833 221.084 C 162.100 221.088,161.839 221.156,162.254 221.236 M210.417 230.230 C 210.737 230.314,211.262 230.314,211.583 230.230 C 211.904 230.146,211.642 230.077,211.000 230.077 C 210.358 230.077,210.096 230.146,210.417 230.230 M245.802 238.411 C 245.334 238.959,245.315 239.041,245.729 238.721 C 246.230 238.334,246.305 238.424,246.422 239.560 C 246.546 240.755,246.558 240.736,246.611 239.250 C 246.675 237.432,246.655 237.411,245.802 238.411 M242.957 238.554 C 242.538 239.061,242.564 239.068,243.270 238.637 C 243.960 238.216,244.091 238.234,244.520 238.814 C 244.784 239.170,245.000 239.312,245.000 239.130 C 245.000 238.092,243.653 237.712,242.957 238.554 M238.558 240.181 C 237.847 241.072,237.451 241.310,236.946 241.150 C 236.193 240.911,236.177 240.443,237.217 249.000 C 238.543 259.901,239.362 261.333,244.270 261.333 L 245.245 261.333 244.195 260.219 C 243.097 259.056,242.515 257.508,241.290 252.500 C 240.450 249.067,239.969 238.443,240.720 239.917 C 240.930 240.329,241.268 240.667,241.471 240.667 C 241.674 240.667,242.047 240.329,242.300 239.917 C 242.755 239.177,242.752 239.175,242.074 239.778 C 241.405 240.372,241.376 240.370,241.015 239.694 C 240.470 238.676,239.625 238.844,238.558 240.181 M147.027 240.542 C 146.645 241.027,146.333 241.553,146.333 241.712 C 146.333 241.870,146.023 242.310,145.645 242.689 C 144.754 243.580,144.364 246.045,144.266 251.422 L 144.188 255.663 145.344 256.660 C 147.490 258.510,153.655 259.622,153.939 258.211 C 154.139 257.217,153.682 254.813,153.164 254.128 C 152.737 253.565,152.721 253.620,153.011 254.664 C 153.522 256.509,153.426 258.667,152.833 258.667 C 152.483 258.667,152.333 258.314,152.333 257.489 C 152.333 255.965,151.644 254.373,150.543 253.359 C 150.061 252.914,149.667 252.659,149.667 252.791 C 149.667 252.924,150.059 253.370,150.539 253.783 C 151.516 254.623,152.276 257.858,151.645 258.489 C 151.129 259.004,150.678 258.053,150.672 256.440 C 150.669 255.625,150.450 254.831,150.143 254.524 C 149.353 253.733,149.259 253.889,149.844 255.020 C 150.140 255.594,150.320 256.578,150.255 257.270 L 150.139 258.500 149.255 256.617 C 147.912 253.755,147.237 251.125,147.487 249.722 C 148.622 243.333,151.312 238.956,152.898 240.917 C 153.324 241.443,153.335 241.427,153.007 240.750 C 152.507 239.718,152.062 239.804,150.621 241.212 L 149.380 242.423 148.891 241.252 C 148.223 239.655,147.839 239.508,147.027 240.542 M125.860 251.002 C 125.985 253.579,125.919 257.324,125.705 259.771 C 125.456 262.630,125.443 264.248,125.665 264.664 C 125.929 265.157,129.097 266.667,129.868 266.667 C 129.965 266.667,129.490 265.990,128.812 265.162 C 127.191 263.185,126.973 261.861,127.035 254.399 L 127.086 248.298 127.876 249.040 C 129.300 250.378,128.704 249.508,127.154 247.988 L 125.642 246.503 125.860 251.002 M222.358 250.212 C 221.978 250.695,221.669 251.257,221.672 251.462 C 221.675 251.666,221.990 251.346,222.372 250.750 C 223.190 249.473,223.158 249.480,224.242 250.333 C 224.709 250.700,225.332 250.990,225.628 250.979 C 225.978 250.965,225.896 250.849,225.396 250.649 C 224.972 250.479,224.399 250.113,224.122 249.836 C 223.427 249.141,223.154 249.199,222.358 250.212 M226.291 249.887 C 225.873 250.392,225.897 250.401,226.565 249.985 C 227.206 249.585,227.390 249.610,228.065 250.181 L 228.833 250.833 228.198 250.083 C 227.443 249.191,226.911 249.136,226.291 249.887 M219.644 256.583 C 219.631 259.104,219.554 261.617,219.473 262.167 C 218.807 266.665,221.184 271.372,224.601 272.321 C 226.379 272.814,226.382 272.804,224.960 271.250 C 222.130 268.158,221.200 264.577,221.413 257.596 C 221.496 254.898,221.452 252.760,221.316 252.844 C 221.181 252.928,220.984 252.772,220.879 252.498 C 220.136 250.563,219.666 252.117,219.644 256.583 M156.667 253.042 C 157.255 253.600,157.533 253.703,157.613 253.391 C 157.750 252.850,157.710 252.812,156.667 252.500 L 155.833 252.251 156.667 253.042 M152.800 253.083 C 152.668 253.313,152.684 253.387,152.836 253.249 C 152.988 253.111,153.409 253.261,153.771 253.583 C 154.411 254.150,154.419 254.145,154.037 253.417 C 153.597 252.578,153.158 252.460,152.800 253.083 M155.797 256.121 C 155.777 258.400,155.822 258.564,156.428 258.405 C 157.005 258.254,157.057 258.036,156.877 256.534 C 156.764 255.599,156.671 254.571,156.670 254.250 C 156.668 253.929,156.476 253.667,156.242 253.667 C 155.939 253.667,155.812 254.368,155.797 256.121 M249.491 254.681 C 249.373 254.873,249.514 255.392,249.805 255.836 C 250.175 256.402,250.333 257.435,250.333 259.290 C 250.333 261.773,250.375 261.927,251.000 261.763 C 252.244 261.438,251.958 257.499,250.587 256.085 C 249.689 255.158,249.591 254.918,250.004 254.657 C 250.303 254.468,250.342 254.342,250.103 254.338 C 249.885 254.336,249.609 254.490,249.491 254.681 M253.256 255.159 C 253.757 255.591,254.240 255.870,254.331 255.780 C 254.421 255.690,254.230 255.469,253.907 255.288 C 253.584 255.107,253.387 254.849,253.470 254.715 C 253.553 254.581,253.334 254.450,252.983 254.424 C 252.446 254.383,252.490 254.500,253.256 255.159 M247.028 255.420 C 247.104 255.468,247.526 255.806,247.965 256.170 L 248.764 256.833 248.370 256.083 C 248.154 255.671,247.732 255.333,247.433 255.333 C 247.134 255.333,246.951 255.372,247.028 255.420 M252.256 256.279 C 252.342 256.767,252.484 258.030,252.570 259.085 C 252.656 260.140,252.863 260.918,253.030 260.815 C 253.376 260.601,253.433 258.249,253.129 256.730 C 252.870 255.432,252.028 254.998,252.256 256.279 M247.162 256.833 C 247.630 258.261,247.734 260.585,247.362 261.280 C 247.026 261.908,247.063 262.000,247.655 262.000 C 248.670 262.000,248.657 258.108,247.639 256.954 C 247.029 256.262,246.971 256.248,247.162 256.833 M249.433 260.333 C 249.433 261.342,249.496 261.754,249.572 261.250 C 249.648 260.746,249.648 259.921,249.572 259.417 C 249.496 258.912,249.433 259.325,249.433 260.333 M139.705 262.354 C 140.058 263.283,140.238 264.218,140.106 264.432 C 139.283 265.763,139.894 266.344,140.942 265.229 C 142.021 264.080,141.871 262.915,140.488 261.701 C 138.961 260.360,138.951 260.369,139.705 262.354 M137.487 262.959 C 138.579 266.063,138.139 267.333,135.973 267.333 C 135.032 267.333,135.000 267.280,135.000 265.725 C 135.000 264.408,134.839 263.970,134.113 263.308 C 133.394 262.652,133.268 262.616,133.448 263.114 C 134.023 264.710,134.099 265.434,133.663 265.164 C 133.334 264.961,133.280 265.090,133.443 265.698 C 133.561 266.139,133.660 266.745,133.662 267.045 C 133.669 267.892,136.339 268.186,137.687 267.490 C 139.033 266.793,139.050 263.566,137.715 262.237 L 136.975 261.500 137.487 262.959 M131.560 264.242 C 131.894 264.834,132.222 265.156,132.289 264.958 C 132.357 264.759,132.084 264.275,131.683 263.882 L 130.954 263.167 131.560 264.242 M231.184 265.305 C 231.080 265.473,231.159 266.377,231.360 267.313 C 231.561 268.249,231.674 269.914,231.613 271.012 C 231.525 272.571,231.597 272.971,231.944 272.838 C 232.188 272.744,232.621 272.667,232.905 272.667 C 233.881 272.667,233.296 268.179,232.166 267.000 C 231.612 266.421,231.326 265.834,231.446 265.520 C 231.663 264.955,231.489 264.812,231.184 265.305 M234.838 266.250 C 235.292 267.341,235.405 269.852,235.057 271.113 L 234.711 272.369 235.772 271.751 C 237.901 270.512,238.015 268.609,236.083 266.583 C 235.092 265.545,234.476 265.380,234.838 266.250 M226.514 267.917 C 226.663 268.787,226.814 270.250,226.850 271.167 C 226.925 273.061,229.011 274.137,228.992 272.271 C 228.975 270.624,228.331 268.801,227.517 268.099 C 226.581 267.292,226.446 266.811,227.083 266.554 C 227.316 266.460,227.223 266.374,226.871 266.360 C 226.304 266.336,226.269 266.487,226.514 267.917 "
              stroke="none" fill="#9d7d5d" fill-rule="evenodd"></path>
    </g>
</svg>