<svg id="svg" version="1.1" xmlns="http://www.w3.org/2000/svg" xmlns:xlink="http://www.w3.org/1999/xlink" width="400" height="400" viewBox="0, 0, 400,400"><g id="svgg"><path id="path0" d="M126.924 36.238 C 123.791 36.714,120.617 68.303,122.309 82.167 C 123.882 95.055,129.144 104.660,137.874 110.579 C 147.364 117.014,154.085 115.891,158.297 107.167 C 159.182 105.333,160.593 102.832,161.433 101.609 C 164.704 96.846,169.674 86.381,169.884 83.817 C 170.806 72.551,162.142 57.467,148.500 46.585 C 140.767 40.417,140.080 40.029,132.420 37.516 C 130.910 37.020,129.588 36.476,129.484 36.307 C 129.293 35.999,128.617 35.981,126.924 36.238 M309.833 65.557 C 294.011 66.887,276.541 78.292,270.174 91.449 C 266.615 98.803,264.407 109.423,265.347 114.668 C 266.078 118.746,266.129 120.823,265.513 121.439 C 264.993 121.960,265.028 122.097,266.057 123.529 C 269.993 129.011,278.371 131.753,284.874 129.688 C 292.727 127.195,305.713 116.521,311.390 107.892 C 317.799 98.153,319.656 91.180,319.904 75.921 L 320.066 66.009 319.178 65.671 C 318.359 65.359,312.969 65.294,309.833 65.557 M187.150 111.118 C 184.646 112.253,183.531 115.490,184.802 117.933 C 186.739 121.657,194.811 123.541,196.985 120.777 C 200.059 116.869,191.976 108.930,187.150 111.118 M234.833 115.528 C 230.420 117.102,227.130 121.685,228.506 124.344 C 230.289 127.793,240.251 126.489,242.115 122.563 C 244.401 117.745,240.145 113.634,234.833 115.528 M100.499 137.803 C 99.398 147.745,105.969 161.233,113.265 164.005 C 115.171 164.729,115.181 164.719,114.687 162.500 C 114.523 161.767,114.296 160.417,114.182 159.500 C 113.884 157.105,113.682 156.606,112.705 155.855 C 107.218 151.637,103.495 145.914,101.632 138.833 L 100.755 135.500 100.499 137.803 M180.409 141.334 C 177.325 144.207,180.560 149.515,183.829 146.944 C 184.956 146.057,185.698 144.378,185.437 143.303 C 184.875 140.982,181.997 139.855,180.409 141.334 M241.397 144.342 C 238.304 146.227,239.195 150.667,242.667 150.667 C 246.112 150.667,247.616 145.692,244.636 144.151 C 243.382 143.502,242.709 143.542,241.397 144.342 M179.524 149.857 C 179.236 150.145,179.000 150.605,179.000 150.879 C 179.000 152.712,181.193 153.367,182.197 151.833 C 183.290 150.166,180.947 148.434,179.524 149.857 M245.067 152.067 C 244.447 152.686,244.594 153.938,245.333 154.333 C 246.615 155.019,248.010 153.598,247.320 152.309 C 246.936 151.590,245.678 151.455,245.067 152.067 M203.333 170.339 C 202.142 170.477,199.142 170.689,196.667 170.810 C 194.192 170.931,190.517 171.257,188.500 171.536 C 184.640 172.068,184.698 172.038,183.224 174.331 C 182.813 174.971,182.214 175.546,181.893 175.608 C 181.573 175.669,180.947 176.083,180.504 176.527 C 179.479 177.551,178.311 177.552,177.097 176.530 C 176.335 175.889,175.801 175.738,174.446 175.780 L 172.749 175.833 173.541 176.776 C 173.977 177.294,174.333 177.856,174.333 178.026 C 174.333 178.195,174.692 178.333,175.131 178.333 C 176.135 178.333,176.202 178.522,177.017 183.626 C 179.019 196.162,183.977 209.201,189.235 215.762 C 190.784 217.695,196.299 222.812,196.556 222.555 C 197.041 222.070,195.189 216.011,193.964 214.074 C 193.184 212.842,191.784 210.183,190.853 208.167 C 189.922 206.150,188.576 203.450,187.863 202.167 C 187.150 200.883,185.637 198.108,184.501 196.000 C 183.365 193.892,182.112 191.600,181.718 190.907 C 180.282 188.386,180.946 187.922,184.269 189.121 C 190.220 191.267,199.811 193.134,206.965 193.539 L 211.000 193.767 211.000 192.465 C 211.000 191.366,210.857 191.099,210.083 190.754 C 205.782 188.837,200.327 181.339,200.341 177.363 C 200.357 172.352,202.293 171.037,210.833 170.237 C 211.567 170.168,210.667 170.107,208.833 170.100 C 207.000 170.093,204.525 170.201,203.333 170.339 M224.258 172.373 C 229.460 175.405,226.287 184.755,218.389 189.667 C 217.210 190.400,217.022 190.693,216.824 192.105 C 216.541 194.113,216.106 193.961,221.135 193.614 C 229.030 193.068,235.096 191.184,236.002 188.995 C 236.469 187.868,237.736 187.366,238.504 188.004 C 239.123 188.517,239.135 189.425,238.541 190.783 C 238.288 191.361,237.753 193.558,237.352 195.667 C 235.184 207.054,228.785 219.302,222.895 223.338 C 221.904 224.017,221.000 225.667,221.000 226.797 C 221.000 227.349,223.262 225.750,225.571 223.566 C 234.277 215.330,240.193 204.737,241.823 194.465 C 242.860 187.935,243.973 184.590,245.286 184.065 C 245.852 183.839,250.864 178.464,252.142 176.713 C 252.708 175.937,252.649 175.957,251.642 176.884 C 248.718 179.573,246.005 180.548,243.833 179.690 C 243.377 179.509,242.916 179.621,242.372 180.046 C 240.639 181.398,238.911 180.657,237.683 178.035 C 236.807 176.165,235.901 175.710,226.718 172.528 C 222.512 171.071,221.966 171.036,224.258 172.373 M216.667 202.933 C 216.667 203.929,217.191 204.667,217.900 204.667 C 218.449 204.667,218.475 202.941,217.933 202.400 C 217.241 201.708,216.667 201.949,216.667 202.933 M200.992 203.188 C 200.402 204.738,200.576 206.333,201.333 206.333 C 201.766 206.333,202.000 206.111,202.000 205.701 C 202.000 205.225,202.227 205.076,202.917 205.101 C 206.728 205.235,208.174 203.702,204.667 203.245 C 204.208 203.185,203.506 202.956,203.105 202.735 C 201.984 202.116,201.347 202.253,200.992 203.188 M207.434 203.884 C 207.207 204.476,207.655 205.385,208.274 205.591 C 208.881 205.794,208.763 203.775,208.154 203.541 C 207.852 203.425,207.556 203.566,207.434 203.884 M216.513 219.417 C 215.811 221.629,215.398 228.000,215.957 228.000 C 216.484 228.000,217.667 222.667,217.667 220.288 C 217.667 219.021,216.838 218.395,216.513 219.417 M160.545 228.691 C 159.068 229.853,159.338 231.068,161.417 232.614 C 166.269 236.224,168.853 240.106,169.635 244.963 C 169.970 247.042,170.304 247.861,171.461 249.432 L 172.148 250.364 172.738 247.765 C 173.063 246.336,173.462 244.492,173.625 243.667 C 174.534 239.074,176.651 237.761,176.630 241.802 C 176.610 245.624,179.230 250.144,183.853 254.265 C 190.439 260.135,208.270 263.944,222.277 262.473 C 228.321 261.838,227.655 262.213,232.272 256.833 C 233.846 255.000,235.943 252.612,236.934 251.528 C 239.006 249.258,241.725 245.680,243.462 242.935 L 244.664 241.036 242.581 242.011 C 240.012 243.213,237.322 243.759,235.297 243.489 C 233.885 243.300,233.522 243.421,230.798 244.983 C 225.104 248.248,218.005 250.449,213.355 250.391 C 210.687 250.358,209.141 250.081,203.336 248.597 C 194.977 246.459,187.982 241.532,183.444 234.583 C 181.509 231.622,181.228 231.333,180.282 231.333 C 179.711 231.333,178.702 231.188,178.039 231.011 C 173.236 229.728,164.061 228.000,162.047 228.000 C 161.704 228.000,161.028 228.311,160.545 228.691 M181.332 264.218 C 181.893 265.163,182.704 266.963,183.134 268.218 C 183.564 269.473,185.191 272.900,186.748 275.833 C 188.306 278.767,189.819 281.617,190.111 282.167 C 190.590 283.071,192.672 291.265,192.668 292.235 C 192.667 292.456,192.292 293.011,191.833 293.470 C 191.375 293.928,191.000 294.610,191.000 294.985 C 191.000 295.808,191.207 295.806,188.913 295.000 C 185.899 293.941,184.013 294.813,184.461 297.057 C 184.633 297.916,184.577 298.037,184.097 297.853 C 179.734 296.179,178.344 298.091,180.689 302.542 L 182.044 305.115 181.939 302.352 C 181.793 298.544,183.353 297.353,183.891 300.862 C 184.000 301.580,184.271 302.392,184.492 302.667 C 184.713 302.942,185.078 304.817,185.303 306.833 C 185.528 308.850,185.927 311.522,186.189 312.772 C 186.452 314.021,186.667 315.514,186.667 316.088 C 186.667 316.901,186.756 317.044,187.067 316.733 C 187.606 316.194,188.314 316.228,188.535 316.805 C 188.717 317.280,187.549 320.635,184.766 327.630 C 183.487 330.845,183.287 331.653,183.458 332.907 C 183.851 335.771,183.903 335.701,189.987 324.000 C 192.198 319.747,192.600 319.167,193.329 319.167 C 194.951 319.167,195.126 320.460,194.011 324.204 C 192.962 327.726,191.524 334.634,191.202 337.698 L 191.006 339.563 196.686 339.458 C 199.810 339.400,202.529 339.252,202.730 339.128 C 203.323 338.761,202.821 328.059,202.052 324.678 C 201.336 321.535,201.350 321.419,202.535 320.552 C 205.105 318.671,209.383 324.670,211.983 333.803 C 212.519 335.687,212.606 335.791,213.977 336.196 L 215.410 336.619 215.239 331.226 C 215.033 324.739,214.151 320.051,212.883 318.702 C 211.816 317.566,208.112 310.104,204.676 302.167 C 199.989 291.342,198.869 289.667,196.322 289.667 C 195.196 289.667,194.514 288.599,192.686 283.979 C 189.266 275.330,185.022 267.669,181.528 263.833 L 180.313 262.500 181.332 264.218 M233.889 270.167 C 233.980 272.000,234.118 273.701,234.195 273.946 C 235.254 277.323,233.065 293.643,230.468 301.730 C 229.449 304.903,227.581 311.680,226.317 316.788 C 225.053 321.897,223.870 326.255,223.689 326.473 C 223.469 326.739,223.607 328.223,224.109 330.970 L 224.857 335.070 225.445 332.003 C 226.554 326.220,227.986 323.565,229.809 323.914 C 231.049 324.151,231.043 324.108,230.711 330.333 C 230.550 333.358,230.436 335.853,230.459 335.878 C 230.481 335.902,231.971 335.760,233.770 335.562 L 237.040 335.201 236.833 332.184 C 236.720 330.524,236.477 328.086,236.293 326.766 C 235.882 323.811,236.197 323.002,237.762 322.995 C 238.351 322.993,239.164 322.902,239.568 322.794 C 241.052 322.396,245.537 329.422,247.032 334.486 C 247.453 335.912,247.547 336.000,248.656 336.000 L 249.834 336.000 249.605 331.750 C 249.434 328.577,249.106 326.486,248.311 323.500 C 245.124 311.537,245.117 310.868,248.095 303.012 C 249.309 299.810,250.236 297.125,250.155 297.044 C 250.075 296.964,249.772 297.465,249.482 298.159 C 249.089 299.098,248.858 299.325,248.577 299.044 C 247.968 298.434,247.346 298.607,246.939 299.500 C 246.346 300.803,246.071 300.492,246.047 298.488 C 246.019 296.166,244.995 294.992,244.167 296.333 C 243.792 296.940,243.333 296.680,243.333 295.861 C 243.333 292.417,241.022 293.673,240.930 297.167 L 240.882 299.005 240.170 298.336 C 239.778 297.968,239.146 297.667,238.767 297.667 C 238.387 297.667,237.831 297.292,237.531 296.833 C 237.230 296.375,236.712 296.000,236.378 296.000 C 235.164 296.000,234.537 292.658,234.810 287.641 C 235.228 279.951,235.044 272.823,234.347 269.667 L 233.722 266.833 233.889 270.167 " stroke="none" fill="#ccb49c" fill-rule="evenodd"></path><path id="path1" d="M130.034 36.309 C 130.328 36.493,132.653 37.386,135.201 38.293 C 137.749 39.199,141.108 40.469,142.667 41.114 C 144.225 41.760,147.375 42.834,149.667 43.501 C 165.980 48.251,174.491 58.065,177.129 75.167 C 177.214 75.717,177.207 74.904,177.114 73.362 C 176.673 66.068,171.501 55.184,166.996 52.068 C 165.511 51.042,165.232 50.000,166.441 50.000 C 170.021 50.000,178.396 61.487,180.537 69.333 C 181.957 74.539,180.967 82.629,178.515 85.843 C 177.646 86.982,176.512 87.370,176.260 86.613 C 176.189 86.401,175.856 86.963,175.519 87.863 C 174.433 90.765,169.996 99.246,169.067 100.195 C 168.572 100.701,168.347 101.010,168.567 100.882 C 168.798 100.746,169.119 100.933,169.329 101.325 C 170.210 102.971,168.042 106.667,166.197 106.667 C 165.526 106.667,165.231 106.933,164.825 107.904 C 164.097 109.648,163.379 110.333,162.282 110.333 C 161.210 110.333,160.957 109.394,161.833 108.667 C 162.108 108.438,162.333 108.100,162.333 107.914 C 162.333 107.729,162.033 107.958,161.667 108.424 C 161.300 108.890,161.000 109.492,161.000 109.760 C 161.000 110.029,160.716 110.905,160.369 111.708 C 159.251 114.293,159.169 114.775,159.927 114.302 C 161.685 113.204,162.172 115.067,160.862 117.880 C 157.990 124.048,152.090 125.585,145.017 122.007 C 142.271 120.617,141.212 119.535,141.672 118.587 C 142.004 117.901,141.994 117.887,141.559 118.425 C 140.806 119.358,136.545 115.799,136.260 114.000 C 136.187 113.542,136.007 114.475,135.859 116.073 C 135.469 120.279,135.468 120.277,139.869 123.533 C 146.621 128.529,152.744 132.000,154.805 132.000 C 154.871 132.000,155.025 131.328,155.148 130.508 C 155.621 127.353,156.822 128.315,157.116 132.083 C 157.480 136.767,160.250 147.000,161.153 147.000 C 162.099 147.000,162.327 148.020,162.503 153.028 C 162.756 160.230,164.708 169.759,165.792 169.089 C 165.978 168.974,166.021 169.131,165.894 169.463 C 165.773 169.777,165.809 169.951,165.974 169.849 C 166.139 169.747,167.041 170.628,167.978 171.806 C 171.019 175.628,174.191 176.424,178.236 174.382 L 180.289 173.346 180.432 174.090 C 180.511 174.499,180.596 174.191,180.621 173.406 C 180.710 170.624,183.481 166.339,187.339 163.018 C 191.087 159.792,192.152 160.325,189.230 163.963 C 185.892 168.121,183.229 172.765,184.601 172.038 C 187.410 170.551,212.707 169.154,218.696 170.155 C 223.402 170.942,235.352 174.977,236.766 176.257 C 237.387 176.818,237.390 176.805,236.891 175.666 C 236.611 175.025,235.980 173.150,235.489 171.500 C 234.444 167.988,232.517 163.981,230.520 161.167 C 229.148 159.234,228.924 158.333,229.816 158.333 C 232.782 158.333,241.470 173.921,240.017 176.635 C 239.472 177.654,239.578 177.862,240.917 178.408 C 246.438 180.660,247.694 180.288,253.417 174.710 C 255.204 172.967,256.667 171.745,256.667 171.993 C 256.667 172.241,256.742 172.369,256.835 172.276 C 256.927 172.184,256.840 171.640,256.640 171.068 C 256.177 169.738,256.912 167.020,258.521 164.123 C 261.627 158.527,263.256 152.559,263.685 145.204 C 263.998 139.847,264.317 138.628,265.211 139.370 C 265.462 139.578,265.667 140.010,265.667 140.330 C 265.667 141.615,275.620 141.377,279.977 139.987 C 288.490 137.273,294.725 132.108,294.608 127.865 C 294.550 125.773,294.608 125.589,295.690 124.418 C 296.319 123.738,296.533 123.421,296.167 123.715 C 295.800 124.009,293.850 125.269,291.833 126.516 C 289.817 127.763,288.111 128.825,288.044 128.876 C 287.976 128.927,288.163 129.211,288.460 129.508 C 289.974 131.022,286.687 133.506,282.299 134.164 C 275.978 135.112,265.763 129.905,264.289 124.983 C 263.732 123.125,264.296 122.547,265.553 123.688 L 266.449 124.500 265.594 123.333 C 261.919 118.316,259.671 110.546,259.099 100.884 C 258.932 98.055,258.800 97.497,258.141 96.838 C 256.596 95.293,256.644 90.743,258.250 86.607 C 260.474 80.879,269.905 70.711,270.021 73.917 C 270.038 74.388,270.097 74.365,270.327 73.795 C 270.873 72.443,282.970 68.034,290.333 66.502 C 292.625 66.025,295.730 65.261,297.232 64.803 C 300.604 63.776,306.159 62.680,308.262 62.627 C 309.458 62.597,309.037 62.473,306.500 62.108 C 290.984 59.871,271.735 66.161,260.999 76.976 C 254.954 83.066,249.281 91.071,250.519 91.764 C 253.241 93.287,254.433 95.665,252.839 96.391 C 252.116 96.721,251.786 96.619,250.230 95.586 C 236.707 86.607,197.277 82.724,183.137 88.979 C 181.321 89.782,180.474 89.848,180.227 89.205 C 179.738 87.930,182.439 86.209,186.990 84.895 C 188.467 84.468,189.599 84.044,189.507 83.951 C 189.414 83.859,189.106 82.444,188.822 80.808 C 184.705 57.075,160.776 38.060,132.667 36.184 C 130.485 36.039,129.666 36.077,130.034 36.309 M320.114 69.167 C 320.115 70.633,320.174 71.192,320.244 70.408 C 320.315 69.624,320.314 68.424,320.242 67.741 C 320.171 67.059,320.113 67.700,320.114 69.167 M268.484 76.083 L 267.167 77.500 268.583 76.182 C 269.901 74.957,270.153 74.667,269.901 74.667 C 269.847 74.667,269.209 75.304,268.484 76.083 M260.433 92.333 C 260.433 93.342,260.496 93.754,260.572 93.250 C 260.648 92.746,260.648 91.921,260.572 91.417 C 260.496 90.912,260.433 91.325,260.433 92.333 M125.008 95.078 C 124.991 95.593,127.655 101.448,128.660 103.107 C 130.148 105.562,131.312 106.974,130.221 105.000 C 129.765 104.175,128.407 101.550,127.204 99.167 C 126.000 96.783,125.012 94.943,125.008 95.078 M191.846 110.959 C 192.586 111.296,194.108 112.419,195.228 113.456 C 202.005 119.730,196.249 125.226,187.387 120.944 C 180.364 117.551,184.748 107.735,191.846 110.959 M240.319 115.326 C 245.319 117.877,243.582 124.582,237.513 126.152 C 228.868 128.390,224.672 123.647,230.389 118.098 C 233.693 114.891,237.424 113.849,240.319 115.326 M152.333 120.000 C 151.647 120.220,151.617 120.272,152.167 120.295 C 152.533 120.310,153.058 120.178,153.333 120.000 C 153.917 119.623,153.512 119.623,152.333 120.000 M187.115 123.836 C 191.797 125.205,194.522 127.401,193.326 128.842 C 192.669 129.633,191.027 129.329,187.667 127.794 L 184.833 126.500 180.167 126.511 C 176.146 126.520,175.248 126.623,173.678 127.256 C 171.719 128.046,171.029 127.858,171.647 126.704 C 172.983 124.208,182.410 122.460,187.115 123.836 M267.658 126.009 C 268.478 126.769,269.453 127.547,269.825 127.740 C 270.702 128.195,270.555 128.058,268.167 126.192 C 266.214 124.666,266.202 124.662,267.658 126.009 M251.123 129.137 C 253.400 129.673,254.512 130.579,254.179 131.627 C 253.849 132.667,252.579 132.824,249.794 132.168 C 244.496 130.921,238.074 131.623,233.196 133.984 C 229.827 135.615,229.166 134.406,232.315 132.371 C 236.951 129.375,245.722 127.867,251.123 129.137 M165.797 133.532 C 165.760 134.526,164.953 138.130,164.236 140.500 C 163.314 143.551,161.351 141.992,162.011 138.734 C 162.902 134.340,165.922 130.191,165.797 133.532 M260.926 133.755 C 263.053 136.019,263.134 140.699,261.061 141.495 C 260.193 141.828,259.233 140.414,259.444 139.113 C 259.540 138.525,259.401 137.115,259.136 135.980 C 258.474 133.140,259.339 132.065,260.926 133.755 M185.183 135.827 C 190.147 137.491,193.668 140.128,196.708 144.457 C 198.702 147.296,198.670 149.000,196.622 149.000 C 196.242 149.000,195.743 149.531,195.292 150.417 C 191.580 157.708,180.178 161.809,170.501 159.334 C 166.461 158.300,164.364 156.670,166.725 156.397 C 167.589 156.297,167.603 156.261,167.184 155.230 C 166.812 154.316,166.400 152.675,165.822 149.806 C 165.727 149.336,165.437 149.121,164.924 149.139 C 162.037 149.243,167.485 138.835,171.572 136.440 C 174.998 134.432,180.309 134.193,185.183 135.827 M252.223 137.831 C 255.393 138.773,260.333 142.849,260.333 144.524 C 260.333 145.834,258.655 146.180,257.750 145.056 C 257.408 144.632,257.331 145.014,257.323 147.186 C 257.279 158.638,252.649 165.162,245.950 163.215 C 242.417 162.188,237.757 158.656,234.452 154.500 C 231.720 151.066,231.972 151.425,230.935 149.500 C 230.173 148.087,229.906 147.850,229.185 147.941 C 226.507 148.278,230.723 143.777,236.000 140.664 C 241.679 137.314,247.222 136.346,252.223 137.831 M201.329 139.714 C 203.485 142.690,204.343 147.046,202.815 147.265 C 201.806 147.409,201.090 146.407,200.473 143.986 C 199.887 141.685,199.311 140.394,198.206 138.900 C 197.631 138.121,197.594 137.917,197.988 137.674 C 198.696 137.236,200.199 138.154,201.329 139.714 M100.077 139.000 C 100.077 139.642,100.146 139.904,100.230 139.583 C 100.314 139.262,100.314 138.737,100.230 138.417 C 100.146 138.096,100.077 138.358,100.077 139.000 M226.730 142.675 C 226.581 147.230,225.764 148.795,224.251 147.426 C 222.907 146.209,224.675 139.088,226.243 139.399 C 226.767 139.503,226.822 139.871,226.730 142.675 M100.084 141.833 C 100.088 142.567,100.156 142.827,100.236 142.413 C 100.315 141.998,100.312 141.398,100.229 141.079 C 100.146 140.761,100.080 141.100,100.084 141.833 M154.591 146.959 C 144.232 158.149,136.571 185.472,134.985 216.885 C 134.374 228.995,135.375 240.658,138.828 261.659 C 139.656 266.696,140.333 271.258,140.333 271.797 C 140.333 273.328,140.656 272.630,141.029 270.294 C 141.391 268.030,142.060 266.926,142.689 267.556 C 143.032 267.899,142.766 270.965,141.680 279.167 C 141.511 280.450,141.273 282.398,141.152 283.497 C 140.897 285.816,139.570 290.590,138.757 292.115 C 138.449 292.693,138.230 293.289,138.272 293.438 C 138.396 293.884,137.644 296.407,136.968 297.808 C 136.172 299.460,136.250 299.517,137.804 298.411 C 138.845 297.670,139.512 297.487,141.537 297.385 L 144.002 297.260 147.085 294.017 C 148.781 292.234,150.593 289.996,151.111 289.044 L 152.052 287.314 151.693 280.852 C 151.235 272.629,151.222 262.775,151.668 262.499 C 151.871 262.374,151.887 262.072,151.709 261.730 C 150.665 259.719,149.248 251.269,148.262 241.167 C 146.837 226.568,148.683 194.955,150.935 195.404 C 151.617 195.540,151.614 196.007,150.892 201.727 C 148.416 221.328,150.132 248.246,154.680 261.167 C 155.861 264.520,157.703 267.493,164.495 277.000 C 170.793 285.816,173.509 289.927,176.343 294.928 C 177.713 297.347,178.890 299.139,178.959 298.912 C 179.456 297.284,181.072 296.685,183.269 297.315 C 184.252 297.597,184.346 297.566,184.173 297.020 C 183.493 294.877,185.788 293.642,188.654 294.610 C 190.458 295.219,190.667 295.233,190.667 294.746 C 190.667 294.448,191.072 293.780,191.567 293.263 L 192.467 292.324 191.367 287.579 C 190.762 284.969,189.998 282.383,189.671 281.833 C 189.343 281.283,188.215 279.183,187.164 277.167 C 186.112 275.150,184.834 272.750,184.324 271.833 C 183.813 270.917,183.168 269.391,182.890 268.443 C 182.273 266.339,182.013 265.834,179.912 262.667 C 178.364 260.331,178.328 260.232,179.372 261.167 C 180.049 261.773,180.234 261.863,179.840 261.395 C 179.058 260.465,175.192 257.667,174.690 257.667 C 174.494 257.667,174.333 258.023,174.333 258.459 C 174.333 259.953,172.662 260.506,171.883 259.270 C 171.528 258.706,172.005 252.012,172.508 250.500 C 172.661 250.039,172.633 249.967,172.418 250.267 C 171.663 251.318,169.881 247.917,169.134 244.000 C 168.374 240.017,164.916 235.038,161.412 232.884 C 158.898 231.339,158.645 229.059,160.884 228.124 C 162.234 227.560,166.778 228.054,172.333 229.369 C 177.012 230.476,184.370 231.930,186.464 232.161 C 191.747 232.742,197.951 235.019,200.396 237.273 C 203.163 239.824,207.518 241.121,209.993 240.130 C 211.432 239.555,211.757 239.000,210.656 239.000 C 207.921 239.000,200.492 232.794,199.506 229.685 C 199.396 229.341,198.000 228.110,196.404 226.950 C 186.713 219.911,180.216 209.678,176.648 195.833 C 176.223 194.183,175.702 192.727,175.491 192.597 C 174.519 191.998,168.509 182.010,165.539 176.060 C 162.394 169.757,160.822 164.403,160.484 158.841 C 160.317 156.105,160.106 155.138,159.318 153.500 C 158.387 151.567,157.000 146.841,157.000 145.604 C 157.000 144.615,156.503 144.895,154.591 146.959 M216.456 150.618 C 217.876 152.187,215.993 153.000,210.940 153.000 C 207.142 153.000,206.238 152.617,207.371 151.488 C 208.729 150.135,215.438 149.493,216.456 150.618 M113.595 156.370 C 114.030 156.941,115.320 163.489,115.328 165.170 C 115.334 166.247,116.847 167.149,121.332 168.745 C 125.933 170.382,133.030 170.795,138.149 169.722 L 140.798 169.167 142.060 165.833 C 142.754 164.000,143.324 162.489,143.327 162.476 C 143.331 162.462,142.246 162.740,140.917 163.092 C 132.768 165.253,120.495 162.273,114.010 156.559 C 113.557 156.160,113.371 156.075,113.595 156.370 M206.860 173.678 C 203.804 174.026,203.593 174.224,203.763 176.588 C 204.110 181.423,210.277 186.336,214.145 184.859 C 217.090 183.735,221.667 178.585,221.667 176.396 C 221.667 174.018,214.854 172.768,206.860 173.678 M209.652 177.571 C 210.245 179.285,209.855 180.780,208.775 180.936 C 207.796 181.077,207.000 179.832,207.000 178.159 C 207.000 175.587,208.826 175.182,209.652 177.571 M217.267 176.400 C 217.894 177.027,217.767 180.135,217.080 180.983 C 215.803 182.561,214.380 180.643,215.028 178.218 C 215.596 176.094,216.349 175.482,217.267 176.400 M255.039 182.840 C 252.526 187.722,247.635 194.161,246.159 194.532 C 245.520 194.692,245.349 195.020,245.160 196.446 C 243.512 208.876,230.273 227.973,221.075 231.187 C 219.091 231.880,218.836 232.082,217.988 233.633 C 217.479 234.563,216.578 235.937,215.985 236.686 L 214.907 238.047 216.037 237.352 C 217.797 236.269,221.857 235.104,225.333 234.685 C 229.451 234.189,235.113 232.660,242.248 230.117 C 247.377 228.289,248.578 233.598,244.748 241.168 C 242.568 245.477,231.633 258.719,227.183 262.439 C 226.074 263.366,225.467 264.005,225.833 263.859 C 226.200 263.713,227.512 263.514,228.750 263.418 C 230.952 263.247,231.000 263.224,231.000 262.308 C 231.000 259.618,232.628 261.176,232.979 264.201 C 233.126 265.466,233.271 266.275,233.303 266.000 C 233.415 265.013,234.360 267.839,234.842 270.602 C 235.357 273.557,235.457 282.400,235.048 288.933 C 234.821 292.571,235.504 295.667,236.535 295.667 C 236.780 295.667,237.304 296.105,237.699 296.640 C 238.119 297.207,238.615 297.538,238.889 297.433 C 239.147 297.334,239.631 297.500,239.965 297.802 C 240.544 298.325,240.581 298.262,240.770 296.433 C 240.951 294.671,241.534 293.667,242.373 293.667 C 242.908 293.667,243.667 294.758,243.667 295.527 C 243.667 296.256,243.735 296.296,244.334 295.922 C 245.421 295.244,246.149 295.957,246.270 297.818 C 246.371 299.377,246.383 299.392,247.038 298.799 C 247.587 298.302,247.818 298.267,248.352 298.601 C 248.882 298.932,249.000 298.918,249.000 298.521 C 249.000 297.361,250.445 296.266,251.465 296.653 C 251.993 296.854,252.459 296.977,252.499 296.926 C 253.314 295.891,259.197 276.891,261.145 269.003 C 262.930 261.771,262.890 262.248,261.835 260.865 C 260.229 258.759,259.920 251.063,260.658 231.500 C 261.715 203.474,260.325 185.724,256.731 181.339 C 256.178 180.663,256.145 180.692,255.039 182.840 M174.593 184.015 C 174.512 184.573,174.569 185.107,174.722 185.201 C 174.875 185.295,175.000 184.839,175.000 184.186 C 175.000 182.733,174.794 182.646,174.593 184.015 M204.667 185.167 C 205.289 185.808,205.872 186.333,205.964 186.333 C 206.056 186.333,205.622 185.808,205.000 185.167 C 204.378 184.525,203.794 184.000,203.703 184.000 C 203.611 184.000,204.045 184.525,204.667 185.167 M210.730 188.540 C 211.040 188.632,211.354 189.111,211.428 189.604 C 211.549 190.414,211.559 190.405,211.531 189.503 C 211.508 188.762,211.328 188.488,210.833 188.439 C 210.351 188.390,210.323 188.418,210.730 188.540 M190.362 197.279 C 189.811 198.309,190.750 201.215,192.964 205.333 C 194.453 208.103,195.003 208.889,194.944 208.167 C 194.567 203.500,196.563 198.690,199.322 197.615 C 200.873 197.011,199.316 196.677,194.928 196.672 C 191.154 196.667,190.654 196.734,190.362 197.279 M221.357 197.636 C 220.962 197.893,221.037 198.152,221.791 199.140 C 224.224 202.331,224.894 209.887,223.351 216.755 C 222.991 218.357,223.371 218.090,225.554 215.204 C 228.095 211.847,230.000 205.633,230.000 200.706 C 230.000 198.154,229.712 197.944,226.087 197.842 C 224.481 197.797,222.867 197.662,222.500 197.542 C 222.133 197.423,221.619 197.465,221.357 197.636 M175.077 248.667 C 175.077 249.308,175.146 249.571,175.230 249.250 C 175.314 248.929,175.314 248.404,175.230 248.083 C 175.146 247.762,175.077 248.025,175.077 248.667 M174.738 253.398 C 174.698 255.316,174.780 255.658,175.321 255.829 C 175.667 255.939,176.486 256.393,177.141 256.838 C 178.657 257.866,178.647 257.820,176.750 254.920 C 175.879 253.589,175.081 252.200,174.976 251.833 C 174.871 251.467,174.764 252.171,174.738 253.398 M183.667 262.704 C 183.667 262.878,183.929 263.114,184.250 263.228 C 185.024 263.502,186.000 264.356,186.000 264.759 C 186.000 264.937,185.737 264.876,185.417 264.624 C 184.889 264.210,184.877 264.222,185.288 264.746 C 185.538 265.065,185.875 265.244,186.038 265.143 C 186.200 265.043,186.352 265.120,186.375 265.314 C 186.398 265.508,186.435 265.810,186.458 265.986 C 186.481 266.161,186.800 266.531,187.167 266.808 C 187.533 267.085,187.713 267.317,187.566 267.323 C 186.080 267.382,190.019 269.287,195.280 271.054 L 201.500 273.144 207.333 273.155 C 214.095 273.169,214.863 272.938,219.720 269.441 C 222.805 267.220,222.741 267.338,220.750 267.548 C 213.793 268.280,207.912 267.492,204.094 265.313 C 202.428 264.363,198.159 263.895,195.457 264.365 C 191.974 264.972,188.047 264.575,185.644 263.375 C 184.556 262.831,183.667 262.529,183.667 262.704 M152.452 268.167 C 152.451 269.817,152.507 270.534,152.577 269.760 C 152.647 268.986,152.648 267.636,152.579 266.760 C 152.510 265.884,152.453 266.517,152.452 268.167 M225.829 267.654 C 226.575 270.002,215.972 276.667,211.492 276.667 L 210.268 276.667 210.985 277.750 C 211.889 279.115,212.023 279.401,215.631 287.667 C 217.271 291.425,218.720 294.923,218.849 295.441 L 219.085 296.382 220.126 295.395 C 220.698 294.851,221.494 294.308,221.894 294.188 C 222.294 294.068,223.012 293.303,223.489 292.488 C 224.008 291.602,224.680 290.926,225.159 290.805 C 225.692 290.672,226.030 290.287,226.168 289.658 C 226.424 288.494,227.081 287.917,228.149 287.917 C 229.254 287.917,230.206 286.775,230.442 285.167 C 230.861 282.309,227.197 267.000,226.095 267.000 C 225.776 267.000,225.690 267.214,225.829 267.654 M152.757 274.333 C 152.757 275.158,152.822 275.496,152.902 275.083 C 152.981 274.671,152.981 273.996,152.902 273.583 C 152.822 273.171,152.757 273.508,152.757 274.333 M233.751 279.833 C 233.754 280.567,233.823 280.827,233.902 280.413 C 233.982 279.998,233.979 279.398,233.896 279.079 C 233.812 278.761,233.747 279.100,233.751 279.833 M184.790 312.000 C 184.790 313.925,184.845 314.712,184.912 313.750 C 184.980 312.787,184.980 311.212,184.912 310.250 C 184.845 309.287,184.790 310.075,184.790 312.000 M247.744 312.333 C 247.744 312.975,247.813 313.237,247.896 312.917 C 247.980 312.596,247.980 312.071,247.896 311.750 C 247.813 311.429,247.744 311.692,247.744 312.333 M184.473 319.222 C 184.490 320.419,184.653 321.164,184.917 321.251 C 185.146 321.327,185.333 321.218,185.333 321.008 C 185.333 320.799,185.191 320.715,185.017 320.823 C 184.837 320.934,184.645 320.224,184.573 319.174 L 184.445 317.330 184.473 319.222 M131.773 321.000 C 131.773 322.192,131.834 322.679,131.908 322.083 C 131.982 321.487,131.982 320.512,131.908 319.917 C 131.834 319.321,131.773 319.808,131.773 321.000 M114.799 320.802 C 114.701 321.059,114.672 321.772,114.736 322.385 C 114.838 323.363,114.872 323.305,115.012 321.917 C 115.176 320.293,115.115 319.978,114.799 320.802 M134.720 323.417 L 134.667 324.667 136.417 324.607 L 138.167 324.547 136.603 324.422 C 135.126 324.305,135.032 324.239,134.906 323.233 C 134.778 322.205,134.771 322.211,134.720 323.417 M215.417 326.833 C 215.421 327.567,215.489 327.827,215.569 327.413 C 215.649 326.998,215.646 326.398,215.562 326.079 C 215.479 325.761,215.414 326.100,215.417 326.833 M116.583 326.244 C 117.362 326.314,118.638 326.314,119.417 326.244 C 120.196 326.174,119.558 326.116,118.000 326.116 C 116.442 326.116,115.804 326.174,116.583 326.244 M126.417 326.245 C 127.287 326.314,128.712 326.314,129.583 326.245 C 130.454 326.176,129.742 326.120,128.000 326.120 C 126.258 326.120,125.546 326.176,126.417 326.245 M252.126 333.000 C 252.126 335.108,252.180 335.971,252.246 334.917 C 252.312 333.862,252.312 332.137,252.246 331.083 C 252.180 330.029,252.126 330.892,252.126 333.000 M238.417 332.833 C 238.421 333.567,238.489 333.827,238.569 333.413 C 238.649 332.998,238.646 332.398,238.562 332.079 C 238.479 331.761,238.414 332.100,238.417 332.833 M215.411 335.333 C 215.411 335.975,215.479 336.237,215.563 335.917 C 215.647 335.596,215.647 335.071,215.563 334.750 C 215.479 334.429,215.411 334.692,215.411 335.333 M185.084 338.000 C 185.172 338.326,185.672 338.515,186.526 338.542 C 187.778 338.583,187.784 338.578,186.670 338.432 C 186.030 338.348,185.381 338.104,185.228 337.890 C 185.038 337.624,184.992 337.659,185.084 338.000 " stroke="none" fill="#59442f" fill-rule="evenodd"></path><path id="path2" d="M126.054 33.708 C 123.436 34.328,121.697 40.174,120.016 54.000 C 116.588 82.208,119.709 98.669,131.216 113.066 L 133.000 115.298 133.000 117.829 C 133.000 121.052,133.566 122.196,136.559 125.018 C 143.272 131.347,150.824 136.000,154.386 136.000 C 155.228 136.000,155.333 136.118,155.333 137.056 C 155.333 137.637,155.499 139.065,155.702 140.229 L 156.071 142.346 153.904 144.491 C 151.130 147.238,146.137 154.928,145.198 157.899 C 144.086 161.416,130.049 161.482,122.745 158.004 C 112.552 153.151,107.838 147.719,104.827 137.353 C 102.899 130.715,102.508 130.104,100.782 131.027 C 96.087 133.540,97.828 149.168,103.802 158.130 C 111.045 168.995,126.252 175.472,138.462 172.893 C 139.708 172.630,139.748 172.649,139.532 173.393 C 133.788 193.169,131.111 220.547,133.119 239.000 C 133.992 247.030,135.260 256.842,136.145 262.419 C 136.588 265.214,137.120 268.925,137.328 270.667 C 137.862 275.138,138.356 277.685,138.900 278.769 C 139.308 279.582,139.299 280.051,138.826 282.367 C 137.372 289.500,135.066 293.810,125.385 307.500 C 118.107 317.792,118.216 317.667,116.543 317.667 C 112.947 317.669,111.710 319.607,112.328 324.266 C 112.968 329.082,113.035 329.133,118.365 328.885 C 120.273 328.797,124.084 328.722,126.835 328.718 C 132.077 328.712,133.798 328.398,133.458 327.511 C 133.115 326.617,135.955 326.743,138.618 327.740 C 142.506 329.194,145.083 327.300,144.383 323.503 L 143.987 321.352 145.993 317.458 C 148.203 313.171,148.231 313.034,147.472 310.327 L 146.943 308.443 149.093 305.138 C 150.816 302.491,154.847 295.398,157.887 289.667 C 158.477 288.555,158.451 288.204,157.664 286.661 C 156.251 283.892,154.033 266.815,155.391 269.167 C 155.603 269.533,157.674 272.533,159.994 275.833 C 168.106 287.371,170.223 290.664,173.819 297.333 C 178.466 305.950,178.734 306.406,179.914 307.712 C 180.554 308.420,181.378 309.000,181.744 309.000 C 182.470 309.000,182.438 310.746,181.628 315.449 C 180.869 319.852,181.042 321.829,182.299 323.128 L 183.430 324.299 181.982 327.733 C 180.153 332.072,180.090 333.852,181.618 337.969 C 183.018 341.740,183.289 342.000,185.818 342.000 C 186.945 342.000,188.040 342.173,188.251 342.385 C 188.512 342.645,190.981 342.803,195.893 342.873 C 203.917 342.987,205.674 342.582,206.197 340.498 C 206.376 339.784,206.459 339.745,206.891 340.177 C 208.649 341.935,215.301 340.442,217.663 337.758 L 219.000 336.239 219.000 331.673 C 219.000 325.540,217.460 319.758,215.308 317.810 C 214.943 317.480,214.667 316.793,214.667 316.215 C 214.667 315.598,213.306 312.446,211.198 308.183 C 209.291 304.324,207.257 300.042,206.679 298.667 C 203.912 292.087,201.326 288.271,199.238 287.687 C 198.019 287.345,197.703 287.096,197.556 286.363 C 197.346 285.316,193.994 278.255,192.065 274.802 L 190.745 272.436 194.099 273.737 C 198.504 275.445,202.769 276.667,204.329 276.667 C 207.017 276.667,207.598 276.965,208.795 278.959 C 211.852 284.052,218.710 301.826,221.142 310.960 C 221.600 312.680,222.191 314.330,222.456 314.627 C 222.878 315.101,222.798 315.715,221.806 319.646 L 220.676 324.125 220.994 329.406 C 221.455 337.043,221.505 337.162,224.477 337.642 C 225.795 337.854,227.114 337.935,227.409 337.822 C 227.705 337.709,228.296 337.838,228.723 338.109 C 229.294 338.472,230.736 338.625,234.167 338.687 C 241.339 338.817,241.640 338.788,241.990 337.917 C 242.186 337.429,242.298 337.352,242.312 337.698 C 242.367 339.078,243.349 339.349,248.872 339.511 C 255.205 339.696,254.831 339.890,255.689 335.981 C 256.936 330.293,256.249 325.490,253.024 317.354 C 251.275 312.941,251.066 314.290,255.640 300.488 C 263.127 277.894,266.494 263.887,265.209 260.676 C 264.341 258.506,264.042 251.721,263.827 229.333 C 263.510 196.288,262.199 185.132,257.914 179.013 C 257.436 178.331,257.467 178.063,258.313 175.554 C 258.818 174.057,259.424 172.008,259.661 171.000 C 259.898 169.992,260.966 167.367,262.035 165.167 C 264.933 159.202,266.606 152.069,266.177 147.500 L 265.958 145.161 269.863 145.285 C 282.434 145.684,297.661 137.036,298.114 129.241 C 298.199 127.782,298.320 127.637,304.684 121.420 C 311.707 114.557,313.865 111.864,316.813 106.284 C 322.537 95.449,324.587 82.030,322.609 68.333 C 322.384 66.775,322.228 64.790,322.263 63.922 C 322.357 61.597,321.258 61.176,308.833 58.775 C 287.685 54.690,258.814 68.509,248.972 87.427 C 247.881 89.523,247.497 89.999,247.054 89.803 C 235.516 84.675,213.319 81.742,196.250 83.090 L 193.000 83.347 193.000 82.196 C 193.000 81.563,192.558 79.331,192.018 77.236 C 186.091 54.248,162.815 36.515,135.287 34.016 C 128.378 33.389,127.522 33.361,126.054 33.708 M139.500 36.997 C 164.987 41.364,185.075 59.208,188.822 80.808 C 189.106 82.444,189.414 83.859,189.507 83.951 C 189.599 84.044,188.467 84.468,186.990 84.895 C 182.439 86.209,179.738 87.930,180.227 89.205 C 180.474 89.848,181.321 89.782,183.137 88.979 C 197.277 82.724,236.707 86.607,250.230 95.586 C 251.786 96.619,252.116 96.721,252.839 96.391 C 254.433 95.665,253.241 93.287,250.519 91.764 C 249.281 91.071,254.954 83.066,260.999 76.976 C 273.073 64.814,294.721 58.844,311.667 63.005 C 313.042 63.342,315.469 63.873,317.061 64.184 L 319.956 64.749 320.185 66.888 C 320.715 71.837,320.126 85.219,319.182 89.667 C 316.353 102.995,311.828 109.952,297.689 122.708 L 294.544 125.545 294.606 127.810 C 294.725 132.110,288.543 137.256,279.977 139.987 C 275.620 141.377,265.667 141.615,265.667 140.330 C 265.667 140.010,265.462 139.578,265.211 139.370 C 264.317 138.628,263.998 139.847,263.685 145.204 C 263.256 152.559,261.627 158.527,258.521 164.123 C 256.922 167.003,256.177 169.739,256.635 171.052 C 257.404 173.257,252.097 183.570,247.236 189.317 C 246.040 190.731,245.933 190.570,246.380 188.033 C 246.780 185.764,246.445 184.333,245.515 184.333 C 244.305 184.333,243.462 186.824,242.178 194.193 C 240.299 204.976,234.750 215.041,226.085 223.385 C 223.286 226.080,221.164 227.608,220.768 227.213 C 220.280 226.724,221.747 223.781,222.855 223.027 C 228.919 218.898,235.314 206.214,237.321 194.333 C 237.522 193.142,237.920 191.625,238.206 190.964 C 239.340 188.338,237.705 186.766,236.307 189.137 C 234.673 191.906,228.648 193.588,219.250 193.900 C 215.996 194.007,213.333 194.017,213.333 193.922 C 213.333 193.826,213.568 193.185,213.856 192.498 C 214.143 191.810,214.336 190.668,214.285 189.960 C 214.195 188.710,214.244 188.646,215.950 187.796 C 221.537 185.012,225.950 177.782,224.167 174.334 C 221.582 169.335,203.434 169.008,201.260 173.921 C 199.122 178.754,205.415 188.331,210.730 188.333 C 211.593 188.333,211.681 188.725,211.446 191.513 L 211.228 194.094 207.364 193.874 C 200.060 193.459,189.841 191.498,184.492 189.485 C 180.915 188.139,180.647 188.406,182.392 191.576 C 187.059 200.054,188.340 202.479,190.628 207.167 C 192.060 210.100,193.801 213.387,194.495 214.472 C 195.468 215.991,195.897 217.160,196.361 219.558 C 196.693 221.271,197.068 222.841,197.195 223.046 C 198.283 224.807,191.420 218.823,189.026 215.924 C 184.002 209.840,178.819 196.313,176.795 184.003 C 176.328 181.163,175.778 178.735,175.572 178.608 C 174.746 178.098,174.578 178.849,174.792 182.110 C 174.913 183.950,174.937 185.381,174.846 185.291 C 174.073 184.518,166.934 172.603,166.149 170.777 C 163.726 165.136,162.748 160.343,162.492 152.860 C 162.326 148.016,162.094 147.000,161.153 147.000 C 160.250 147.000,157.480 136.767,157.116 132.083 C 156.822 128.315,155.621 127.353,155.148 130.508 C 155.025 131.328,154.871 132.000,154.805 132.000 C 152.780 132.000,147.094 128.812,140.414 123.931 C 135.453 120.306,135.527 120.427,135.815 116.363 L 136.042 113.162 133.810 110.331 C 126.738 101.361,123.596 94.001,122.146 83.000 C 120.609 71.340,122.882 41.869,125.730 36.549 C 126.180 35.707,133.332 35.940,139.500 36.997 M165.679 50.583 C 165.686 50.904,166.279 51.572,166.996 52.068 C 173.667 56.681,178.626 71.263,176.709 80.630 C 175.462 86.721,176.207 88.870,178.515 85.843 C 183.955 78.711,181.133 64.747,172.130 54.244 C 169.306 50.950,165.642 48.871,165.679 50.583 M265.241 76.750 C 258.539 83.367,255.263 91.577,257.561 95.999 C 258.848 98.477,260.328 96.930,260.339 93.094 C 260.355 87.713,262.473 82.841,267.027 77.709 C 271.952 72.159,270.617 71.442,265.241 76.750 M168.029 101.372 C 167.618 101.809,167.040 102.574,166.743 103.071 C 166.423 103.608,165.790 104.063,165.185 104.191 C 163.741 104.498,163.033 105.241,162.619 106.885 C 162.421 107.670,162.051 108.486,161.796 108.697 C 160.952 109.398,161.230 110.333,162.282 110.333 C 163.379 110.333,164.097 109.648,164.825 107.904 C 165.206 106.993,165.541 106.667,166.097 106.667 C 168.190 106.667,170.405 102.803,169.231 101.199 C 168.793 100.599,168.749 100.606,168.029 101.372 M158.940 115.066 C 158.310 115.671,157.391 116.705,156.899 117.363 C 154.603 120.429,150.941 121.082,146.000 119.306 C 144.442 118.746,142.917 118.209,142.612 118.113 C 141.466 117.750,141.199 119.240,142.236 120.205 C 147.108 124.736,155.123 125.063,158.898 120.884 C 162.375 117.036,162.413 111.726,158.940 115.066 M264.126 123.486 C 263.765 124.428,264.747 126.382,266.572 128.353 C 272.223 134.457,284.880 136.174,288.412 131.317 C 289.822 129.379,288.533 128.796,285.190 129.857 C 278.993 131.825,271.347 129.872,266.850 125.172 C 264.640 122.861,264.418 122.724,264.126 123.486 M177.167 123.965 C 174.342 124.670,172.154 125.756,171.647 126.704 C 171.029 127.858,171.719 128.046,173.678 127.256 C 175.248 126.623,176.146 126.520,180.167 126.511 L 184.833 126.500 187.667 127.794 C 192.169 129.851,194.277 129.706,193.466 127.397 C 192.405 124.373,183.252 122.446,177.167 123.965 M241.833 129.029 C 236.067 129.841,228.363 133.839,230.780 134.767 C 231.025 134.861,232.113 134.509,233.196 133.984 C 238.074 131.623,244.496 130.921,249.794 132.168 C 252.579 132.824,253.849 132.667,254.179 131.627 C 254.901 129.353,248.743 128.057,241.833 129.029 M164.414 133.081 C 162.813 134.785,161.289 140.004,162.002 141.338 C 162.623 142.498,163.761 142.072,164.236 140.500 C 166.170 134.106,166.241 131.137,164.414 133.081 M259.035 133.458 C 258.749 133.803,258.774 134.425,259.136 135.980 C 259.401 137.115,259.540 138.525,259.444 139.113 C 259.053 141.521,261.117 142.333,262.141 140.174 C 263.554 137.196,260.827 131.299,259.035 133.458 M174.795 135.115 C 170.888 136.114,168.283 138.552,165.778 143.553 C 163.988 147.126,163.673 149.184,164.924 149.139 C 165.437 149.121,165.727 149.336,165.822 149.806 C 166.400 152.675,166.812 154.316,167.184 155.230 C 167.603 156.261,167.589 156.297,166.725 156.397 C 164.364 156.670,166.461 158.300,170.501 159.334 C 180.178 161.809,191.580 157.708,195.292 150.417 C 195.743 149.531,196.242 149.000,196.622 149.000 C 199.567 149.000,197.839 144.662,193.208 140.429 C 188.356 135.994,180.368 133.689,174.795 135.115 M102.145 139.500 C 106.424 155.584,125.487 167.184,140.917 163.092 C 142.246 162.740,143.331 162.462,143.327 162.476 C 143.324 162.489,142.754 164.000,142.060 165.833 L 140.798 169.167 138.149 169.722 C 121.789 173.151,105.217 163.250,100.956 147.500 C 100.192 144.677,99.868 136.896,100.456 135.500 L 100.737 134.833 100.998 135.500 C 101.141 135.867,101.657 137.667,102.145 139.500 M244.384 137.354 C 241.057 137.945,236.116 140.258,232.833 142.763 C 229.027 145.666,227.140 148.306,229.144 147.923 C 229.852 147.787,230.135 148.069,231.366 150.134 C 235.110 156.418,241.125 161.812,245.950 163.215 C 252.649 165.162,257.279 158.638,257.323 147.186 C 257.331 145.014,257.408 144.632,257.750 145.056 C 259.651 147.416,261.037 145.017,259.178 142.583 C 256.102 138.555,249.925 136.371,244.384 137.354 M197.988 137.674 C 197.594 137.917,197.631 138.121,198.206 138.900 C 199.311 140.394,199.887 141.685,200.473 143.986 C 201.345 147.407,203.372 148.695,203.600 145.974 C 203.880 142.635,199.778 136.568,197.988 137.674 M224.761 141.224 C 223.579 143.798,223.348 146.608,224.251 147.426 C 225.764 148.795,226.581 147.230,226.730 142.675 C 226.863 138.615,226.188 138.118,224.761 141.224 M184.533 141.467 C 185.807 142.740,186.004 144.047,185.169 145.663 C 183.399 149.086,179.000 147.977,179.000 144.108 C 179.000 142.173,180.625 140.333,182.333 140.333 C 183.102 140.333,183.717 140.650,184.533 141.467 M193.277 144.995 L 194.610 146.991 193.638 148.031 C 193.104 148.603,192.667 149.205,192.667 149.369 C 192.667 149.533,192.545 149.667,192.396 149.667 C 192.247 149.667,192.134 148.804,192.146 147.750 C 192.157 146.696,192.041 145.196,191.887 144.417 C 191.519 142.551,191.693 142.623,193.277 144.995 M244.113 143.646 C 246.508 144.557,247.176 147.694,245.384 149.612 C 243.785 151.324,241.715 151.412,240.138 149.835 C 237.742 147.439,240.951 142.444,244.113 143.646 M157.000 145.604 C 157.000 146.841,158.387 151.567,159.318 153.500 C 160.106 155.138,160.317 156.105,160.484 158.841 C 160.822 164.403,162.394 169.757,165.539 176.060 C 168.509 182.010,174.519 191.998,175.491 192.597 C 175.702 192.727,176.223 194.183,176.648 195.833 C 180.216 209.678,186.713 219.911,196.404 226.950 C 198.000 228.110,199.396 229.341,199.506 229.685 C 199.946 231.073,202.788 234.424,204.750 235.869 C 211.283 240.683,214.430 240.140,218.016 233.582 C 218.832 232.089,219.106 231.875,221.075 231.187 C 230.273 227.973,243.512 208.876,245.160 196.446 C 245.350 195.009,245.517 194.693,246.174 194.528 C 247.631 194.162,252.047 188.370,254.941 183.030 L 256.279 180.561 256.972 181.697 C 260.484 187.457,261.699 203.877,260.658 231.500 C 259.920 251.063,260.229 258.759,261.835 260.865 C 262.890 262.248,262.930 261.771,261.147 269.003 C 259.167 277.034,258.507 279.185,252.921 295.833 C 247.293 312.604,247.293 312.602,249.562 317.500 C 251.308 321.270,251.961 324.664,252.226 331.333 L 252.432 336.500 248.632 336.430 L 244.833 336.360 243.988 333.263 C 242.435 327.570,240.153 323.529,238.340 323.263 C 236.754 323.030,236.454 323.696,237.279 325.615 C 237.661 326.503,238.131 328.640,238.323 330.365 C 238.515 332.089,238.733 333.966,238.807 334.535 L 238.942 335.570 235.388 335.794 C 233.433 335.917,231.354 336.104,230.767 336.211 L 229.701 336.404 229.992 335.285 C 230.476 333.424,230.567 324.253,230.103 324.094 C 229.186 323.779,227.664 329.670,227.666 333.528 L 227.667 335.222 226.187 335.222 L 224.707 335.222 224.352 333.694 C 223.380 329.508,223.021 326.877,223.364 326.464 C 223.558 326.230,224.749 321.867,226.011 316.769 C 227.273 311.671,229.058 305.164,229.979 302.309 C 233.081 292.679,233.703 288.513,233.757 277.000 C 233.790 269.864,233.027 262.218,232.200 261.390 C 231.550 260.741,231.000 261.182,231.000 262.353 C 231.000 263.299,230.945 263.334,229.417 263.340 C 227.489 263.348,221.969 264.725,220.805 265.488 C 219.530 266.323,219.809 267.528,221.250 267.415 C 222.699 267.302,222.709 267.289,219.720 269.441 C 212.297 274.786,205.531 274.823,191.088 269.600 C 188.393 268.625,188.301 268.555,186.161 265.814 C 182.159 260.689,178.786 257.508,175.890 256.127 L 174.634 255.528 174.829 252.014 C 174.936 250.081,175.310 246.925,175.659 245.000 C 176.571 239.980,176.578 239.865,175.963 239.743 C 173.983 239.348,170.576 258.605,172.417 259.788 C 173.218 260.303,174.136 259.691,174.272 258.550 C 174.414 257.362,174.705 257.423,177.119 259.145 C 182.383 262.901,188.369 272.191,192.705 283.333 C 194.746 288.578,194.971 288.984,195.956 289.194 C 199.325 289.914,200.157 291.078,204.509 301.167 C 207.516 308.138,212.109 317.536,212.981 318.500 C 215.089 320.832,216.532 331.277,215.474 336.542 L 215.282 337.500 212.308 337.508 L 209.335 337.516 209.139 336.341 C 207.923 329.056,204.755 320.667,203.218 320.667 C 201.791 320.667,201.644 321.344,202.347 324.667 C 203.291 329.127,203.650 338.431,202.909 339.251 C 202.439 339.771,201.755 339.823,196.533 339.735 L 190.683 339.637 190.869 338.069 C 191.318 334.281,192.403 328.854,193.476 325.027 C 194.114 322.751,194.560 320.763,194.465 320.611 C 193.484 319.022,190.802 325.654,188.984 334.167 C 188.077 338.415,188.029 338.500,186.525 338.500 C 183.511 338.500,182.408 332.716,184.461 327.667 C 186.400 322.896,188.333 317.629,188.333 317.120 C 188.333 315.470,186.359 317.623,185.606 320.093 C 184.780 322.805,184.498 321.237,184.597 314.471 C 184.688 308.198,183.962 300.184,183.237 299.459 C 182.308 298.531,181.960 299.744,182.148 303.248 C 182.323 306.518,182.300 306.731,181.883 305.667 C 179.435 299.424,173.357 289.403,164.496 277.000 C 157.705 267.496,155.861 264.521,154.680 261.167 C 150.132 248.246,148.416 221.328,150.892 201.727 C 151.614 196.007,151.617 195.540,150.935 195.404 C 150.243 195.266,149.904 196.427,149.203 201.333 C 146.415 220.854,147.902 252.657,152.063 262.500 C 152.650 263.888,152.756 264.752,152.701 267.667 C 152.613 272.294,153.166 277.780,154.298 283.494 L 155.222 288.154 150.993 296.327 C 145.223 307.478,145.314 307.327,144.380 307.331 C 143.465 307.334,143.497 308.280,144.508 311.082 L 145.078 312.664 143.972 315.249 C 142.518 318.647,142.614 318.594,141.377 316.684 C 140.233 314.918,138.878 313.667,138.111 313.667 C 137.259 313.667,137.256 314.645,138.105 315.654 C 139.388 317.179,140.550 319.893,141.136 322.736 C 141.913 326.499,141.929 326.454,140.117 325.491 C 138.991 324.892,138.048 324.667,136.666 324.667 L 134.765 324.667 134.565 322.083 C 134.268 318.254,133.059 315.333,131.771 315.333 C 131.098 315.333,130.890 316.172,131.351 317.033 C 131.572 317.446,131.862 319.520,131.995 321.642 C 132.129 323.764,132.360 325.789,132.510 326.141 C 132.733 326.665,132.675 326.741,132.197 326.558 C 131.875 326.434,129.845 326.333,127.684 326.333 L 123.756 326.333 124.818 322.750 C 125.402 320.779,126.203 318.544,126.597 317.783 C 127.173 316.671,127.229 316.328,126.884 316.042 C 125.615 314.989,123.339 319.000,121.707 325.167 L 121.354 326.500 118.371 326.394 C 114.977 326.273,115.149 326.435,114.815 323.042 C 114.584 320.699,114.588 320.680,115.479 320.341 C 116.656 319.894,116.667 319.897,116.667 320.626 C 116.667 325.134,122.753 318.145,133.323 301.500 C 138.360 293.569,140.614 288.386,141.152 283.497 C 141.273 282.398,141.511 280.450,141.680 279.167 C 142.766 270.965,143.032 267.899,142.689 267.556 C 142.060 266.926,141.391 268.030,141.029 270.294 C 140.656 272.630,140.333 273.328,140.333 271.797 C 140.333 271.258,139.656 266.696,138.828 261.659 C 136.709 248.773,135.393 238.101,134.982 230.479 C 133.696 206.621,139.329 174.357,147.714 157.548 C 151.091 150.780,157.000 143.179,157.000 145.604 M233.389 147.667 C 233.522 150.457,233.391 150.523,232.169 148.278 L 231.231 146.555 231.986 145.944 C 233.145 145.006,233.270 145.159,233.389 147.667 M182.057 149.552 C 183.251 150.632,182.451 153.000,180.891 153.000 C 179.260 153.000,178.416 150.864,179.552 149.610 C 180.238 148.852,181.257 148.828,182.057 149.552 M209.667 150.536 C 207.612 151.086,206.811 151.694,207.111 152.474 C 207.570 153.672,216.328 153.029,216.815 151.762 C 217.454 150.095,213.708 149.452,209.667 150.536 M247.143 151.857 C 247.798 152.512,247.821 153.791,247.187 154.317 C 246.353 155.008,244.884 154.609,244.529 153.593 C 243.950 151.939,245.918 150.632,247.143 151.857 M229.245 158.750 C 229.165 158.979,229.739 160.067,230.520 161.167 C 232.526 163.993,234.449 167.999,235.480 171.500 C 236.749 175.808,237.630 177.476,238.702 177.601 C 240.069 177.759,240.482 176.381,239.832 173.833 C 238.153 167.253,230.216 155.946,229.245 158.750 M187.339 163.018 C 183.210 166.572,180.554 170.829,180.733 173.606 C 180.915 176.440,182.148 175.872,184.040 172.081 C 185.845 168.467,186.807 166.960,189.223 163.963 C 192.156 160.326,191.089 159.791,187.339 163.018 M219.154 174.139 C 222.701 175.625,222.281 178.184,217.820 182.272 C 214.121 185.661,211.727 185.977,208.072 183.558 C 205.321 181.738,202.771 176.105,203.928 174.406 C 204.678 173.304,216.661 173.094,219.154 174.139 M207.413 176.387 C 206.827 176.973,206.901 179.377,207.532 180.278 C 208.247 181.298,209.389 181.111,209.812 179.904 C 210.532 177.848,208.675 175.125,207.413 176.387 M215.740 176.417 C 215.096 177.202,214.643 179.561,214.970 180.422 C 215.829 182.681,217.667 181.391,217.667 178.530 C 217.667 176.331,216.689 175.259,215.740 176.417 M199.655 196.986 C 200.052 197.237,199.990 197.355,199.322 197.615 C 196.563 198.690,194.567 203.500,194.944 208.167 C 195.063 209.633,191.017 201.975,190.469 199.696 C 189.764 196.763,189.907 196.666,194.928 196.672 C 197.259 196.675,199.387 196.816,199.655 196.986 M226.087 197.842 C 229.712 197.944,230.000 198.154,230.000 200.706 C 230.000 205.633,228.095 211.847,225.554 215.204 C 223.371 218.090,222.991 218.357,223.351 216.755 C 224.894 209.887,224.224 202.331,221.791 199.140 C 220.798 197.839,221.129 197.095,222.500 197.542 C 222.867 197.662,224.481 197.797,226.087 197.842 M218.858 199.690 C 224.837 205.485,217.864 237.039,210.856 235.902 C 206.337 235.168,200.344 226.957,198.642 219.167 C 195.922 206.717,199.042 197.796,205.391 199.867 C 210.800 201.632,210.832 201.659,212.164 205.659 C 213.245 208.905,213.826 209.527,214.119 207.754 C 214.634 204.637,214.167 201.949,212.843 200.417 L 212.051 199.500 213.109 198.912 C 214.858 197.939,217.407 198.284,218.858 199.690 M212.036 217.724 C 211.599 218.826,210.887 227.452,211.161 228.316 C 211.793 230.307,212.820 227.748,213.344 222.873 C 213.822 218.437,213.013 215.255,212.036 217.724 M231.309 270.417 L 231.284 274.500 230.217 270.667 L 229.150 266.833 229.992 266.623 C 230.455 266.507,230.946 266.394,231.083 266.373 C 231.221 266.351,231.322 268.171,231.309 270.417 M227.811 271.158 C 231.467 283.381,231.227 288.209,226.152 304.628 C 224.381 310.359,224.552 310.161,223.667 307.493 C 223.242 306.214,221.943 302.879,220.781 300.084 C 219.618 297.289,218.667 294.915,218.667 294.809 C 218.667 294.623,213.141 281.877,212.175 279.833 C 211.915 279.283,211.379 278.346,210.985 277.750 L 210.268 276.667 211.492 276.667 C 215.972 276.667,226.575 270.002,225.829 267.654 C 225.690 267.214,225.776 267.000,226.095 267.000 C 226.411 267.000,226.979 268.375,227.811 271.158 " stroke="none" fill="#050404" fill-rule="evenodd"></path><path id="path3" d="M213.774 198.759 C 212.259 199.342,212.135 199.576,212.897 200.418 C 213.921 201.550,214.333 203.160,214.333 206.030 C 214.333 209.897,213.381 209.892,212.167 206.019 C 210.873 201.889,210.293 201.310,206.504 200.365 C 205.590 200.137,204.690 199.825,204.504 199.672 C 203.456 198.807,200.259 200.889,198.867 203.344 L 197.833 205.167 197.862 210.167 C 197.936 223.126,204.496 235.667,211.201 235.667 C 216.089 235.667,222.373 216.461,221.019 205.663 C 220.304 199.958,217.528 197.312,213.774 198.759 M218.143 202.190 C 218.845 202.892,218.827 204.626,218.115 204.899 C 217.088 205.293,215.745 202.700,216.556 201.889 C 216.930 201.514,217.593 201.640,218.143 202.190 M202.899 202.365 C 203.100 202.566,203.842 202.807,204.549 202.900 C 206.224 203.121,207.787 204.897,206.417 205.023 C 206.279 205.036,205.717 205.129,205.167 205.230 C 204.617 205.331,203.757 205.418,203.257 205.422 C 202.669 205.427,202.278 205.648,202.151 206.048 C 201.912 206.803,200.814 206.866,200.536 206.140 C 199.727 204.032,201.590 201.056,202.899 202.365 M208.943 204.457 C 209.096 205.802,208.524 206.276,207.675 205.507 C 206.557 204.495,206.847 203.216,208.153 203.403 C 208.625 203.470,208.867 203.793,208.943 204.457 M213.366 217.729 C 214.469 219.789,212.450 230.774,211.302 228.961 C 210.826 228.210,211.180 221.122,211.861 217.750 C 212.054 216.795,212.860 216.783,213.366 217.729 M217.630 218.970 C 218.439 219.483,217.396 226.552,216.321 227.848 C 215.299 229.079,215.028 226.611,215.703 222.231 C 216.214 218.914,216.575 218.302,217.630 218.970 " stroke="none" fill="#ab3204" fill-rule="evenodd"></path><path id="path4" d="M313.760 65.245 C 314.636 65.314,315.986 65.313,316.760 65.244 C 317.534 65.174,316.817 65.117,315.167 65.118 C 313.517 65.119,312.884 65.177,313.760 65.245 M320.091 76.667 C 320.091 77.492,320.156 77.829,320.235 77.417 C 320.315 77.004,320.315 76.329,320.235 75.917 C 320.156 75.504,320.091 75.842,320.091 76.667 M320.084 79.500 C 320.088 80.233,320.156 80.494,320.236 80.079 C 320.315 79.665,320.312 79.065,320.229 78.746 C 320.146 78.427,320.080 78.767,320.084 79.500 M170.109 82.500 C 170.111 83.783,170.171 84.267,170.243 83.576 C 170.315 82.884,170.314 81.834,170.241 81.243 C 170.167 80.651,170.108 81.217,170.109 82.500 M236.921 114.902 C 237.335 114.982,237.935 114.979,238.254 114.896 C 238.573 114.812,238.233 114.747,237.500 114.751 C 236.767 114.754,236.506 114.823,236.921 114.902 M213.750 169.896 C 214.071 169.980,214.596 169.980,214.917 169.896 C 215.237 169.813,214.975 169.744,214.333 169.744 C 213.692 169.744,213.429 169.813,213.750 169.896 M193.083 170.896 C 193.404 170.980,193.929 170.980,194.250 170.896 C 194.571 170.813,194.308 170.744,193.667 170.744 C 193.025 170.744,192.762 170.813,193.083 170.896 M226.757 176.667 C 226.757 177.492,226.822 177.829,226.902 177.417 C 226.981 177.004,226.981 176.329,226.902 175.917 C 226.822 175.504,226.757 175.842,226.757 176.667 M251.809 176.415 C 251.272 177.006,251.146 177.229,251.527 176.911 C 251.909 176.592,252.345 176.445,252.497 176.583 C 252.649 176.721,252.674 176.659,252.551 176.445 C 252.429 176.232,252.518 175.990,252.748 175.907 C 252.978 175.825,253.081 175.664,252.976 175.549 C 252.871 175.434,252.346 175.824,251.809 176.415 M224.812 221.417 L 223.833 222.500 224.917 221.521 C 225.512 220.983,226.000 220.495,226.000 220.438 C 226.000 220.180,225.725 220.407,224.812 221.417 M226.151 223.083 L 224.833 224.500 226.250 223.182 C 227.567 221.957,227.820 221.667,227.568 221.667 C 227.513 221.667,226.876 222.304,226.151 223.083 M187.319 239.417 C 188.701 240.888,189.000 241.153,189.000 240.903 C 189.000 240.849,188.287 240.137,187.417 239.319 L 185.833 237.833 187.319 239.417 M211.250 250.235 C 211.662 250.315,212.338 250.315,212.750 250.235 C 213.162 250.156,212.825 250.091,212.000 250.091 C 211.175 250.091,210.838 250.156,211.250 250.235 M210.254 262.902 C 210.669 262.982,211.269 262.979,211.587 262.896 C 211.906 262.812,211.567 262.747,210.833 262.751 C 210.100 262.754,209.839 262.823,210.254 262.902 M216.088 263.239 C 216.595 263.316,217.345 263.314,217.755 263.235 C 218.165 263.156,217.750 263.093,216.833 263.095 C 215.917 263.098,215.581 263.163,216.088 263.239 M235.077 284.000 C 235.077 284.642,235.146 284.904,235.230 284.583 C 235.314 284.262,235.314 283.737,235.230 283.417 C 235.146 283.096,235.077 283.358,235.077 284.000 M234.751 289.167 C 234.754 289.900,234.823 290.161,234.902 289.746 C 234.982 289.331,234.979 288.731,234.896 288.413 C 234.812 288.094,234.747 288.433,234.751 289.167 M184.744 304.667 C 184.744 305.308,184.813 305.571,184.896 305.250 C 184.980 304.929,184.980 304.404,184.896 304.083 C 184.813 303.762,184.744 304.025,184.744 304.667 M186.333 316.147 C 186.333 316.595,186.456 317.037,186.606 317.129 C 186.757 317.222,186.814 316.856,186.735 316.316 C 186.560 315.124,186.333 315.029,186.333 316.147 M237.045 334.229 C 237.005 335.166,236.872 335.307,235.917 335.426 L 234.833 335.560 235.927 335.613 C 237.120 335.671,237.481 335.211,237.238 333.941 C 237.124 333.340,237.081 333.404,237.045 334.229 M248.254 336.236 C 248.669 336.315,249.269 336.312,249.587 336.229 C 249.906 336.146,249.567 336.080,248.833 336.084 C 248.100 336.088,247.839 336.156,248.254 336.236 M199.250 339.569 C 199.662 339.648,200.338 339.648,200.750 339.569 C 201.162 339.489,200.825 339.424,200.000 339.424 C 199.175 339.424,198.838 339.489,199.250 339.569 " stroke="none" fill="#978672" fill-rule="evenodd"></path><path id="path5" d="M142.535 41.555 C 142.921 41.892,145.246 43.760,147.702 45.708 C 161.728 56.831,170.345 70.861,170.331 82.552 C 170.328 85.529,165.373 96.514,161.727 101.629 C 160.892 102.800,159.430 105.350,158.477 107.296 C 155.885 112.588,153.398 114.560,148.880 114.906 C 143.587 115.311,134.604 109.747,129.391 102.833 L 128.637 101.833 129.362 103.333 C 130.280 105.231,132.500 108.556,134.660 111.269 C 135.595 112.443,136.333 113.716,136.333 114.152 C 136.333 115.501,141.066 119.512,141.456 118.494 C 141.726 117.791,142.736 117.880,144.927 118.801 C 150.486 121.138,153.537 120.663,157.042 116.918 C 159.129 114.689,161.000 111.220,161.000 109.581 C 161.000 109.307,161.217 108.902,161.482 108.682 C 161.747 108.462,162.209 107.544,162.508 106.641 C 163.088 104.897,164.010 104.000,165.225 104.000 C 165.723 104.000,166.291 103.533,166.948 102.583 C 167.488 101.804,168.320 100.830,168.798 100.419 C 169.276 100.008,169.667 99.453,169.667 99.185 C 169.667 98.918,169.868 98.580,170.114 98.433 C 171.345 97.700,175.797 87.671,175.900 85.398 C 175.955 84.171,176.241 82.117,176.535 80.833 C 178.183 73.637,175.077 62.717,169.378 55.669 C 164.999 50.252,158.009 45.936,149.667 43.495 C 147.375 42.825,144.900 42.047,144.167 41.768 C 141.968 40.931,141.791 40.908,142.535 41.555 M303.094 63.338 C 301.403 63.677,298.778 64.332,297.260 64.794 C 295.742 65.257,292.625 66.025,290.333 66.502 C 282.479 68.136,270.861 72.446,270.294 73.937 C 270.116 74.404,268.952 75.859,267.708 77.169 C 262.744 82.395,261.245 85.581,260.653 92.167 C 260.397 95.021,260.167 96.046,259.619 96.795 C 258.389 98.472,259.310 108.322,261.228 114.000 C 263.807 121.635,266.892 124.516,265.593 118.075 C 263.068 105.552,267.894 90.705,277.646 80.991 C 288.205 70.473,300.261 65.317,314.551 65.208 C 319.920 65.167,321.107 64.944,318.091 64.543 C 317.216 64.427,314.953 63.957,313.062 63.499 C 309.049 62.527,307.286 62.499,303.094 63.338 M121.751 65.167 C 121.754 65.900,121.823 66.161,121.902 65.746 C 121.982 65.331,121.979 64.731,121.896 64.413 C 121.812 64.094,121.747 64.433,121.751 65.167 M320.103 73.500 C 320.105 74.600,320.167 75.010,320.242 74.411 C 320.316 73.812,320.314 72.912,320.238 72.411 C 320.162 71.910,320.101 72.400,320.103 73.500 M185.146 112.083 L 184.167 113.167 185.250 112.188 C 185.846 111.649,186.333 111.162,186.333 111.104 C 186.333 110.847,186.058 111.074,185.146 112.083 M195.500 114.000 C 196.403 114.917,197.217 115.667,197.308 115.667 C 197.400 115.667,196.736 114.917,195.833 114.000 C 194.930 113.083,194.117 112.333,194.025 112.333 C 193.933 112.333,194.597 113.083,195.500 114.000 M243.077 120.000 C 243.077 120.642,243.146 120.904,243.230 120.583 C 243.314 120.263,243.314 119.737,243.230 119.417 C 243.146 119.096,243.077 119.358,243.077 120.000 M108.333 151.771 C 108.333 151.828,108.821 152.316,109.417 152.854 L 110.500 153.833 109.521 152.750 C 108.608 151.740,108.333 151.513,108.333 151.771 M113.000 164.400 C 114.296 165.561,115.333 166.011,115.333 165.412 C 115.333 165.063,115.146 164.776,114.917 164.775 C 114.688 164.773,114.125 164.654,113.667 164.511 C 113.208 164.368,112.908 164.318,113.000 164.400 M165.667 169.155 C 165.667 169.939,173.391 183.404,174.562 184.662 C 174.645 184.751,174.683 183.551,174.645 181.995 C 174.574 179.016,174.035 177.404,172.710 176.205 C 172.328 175.860,172.098 175.444,172.199 175.281 C 172.300 175.117,172.259 175.022,172.108 175.068 C 171.433 175.276,169.443 173.633,167.635 171.374 C 166.552 170.021,165.667 169.022,165.667 169.155 M197.254 170.569 C 197.669 170.649,198.269 170.646,198.587 170.562 C 198.906 170.479,198.567 170.414,197.833 170.417 C 197.100 170.421,196.839 170.489,197.254 170.569 M221.500 171.695 C 223.876 173.096,225.241 175.445,224.824 177.418 C 224.132 180.691,219.419 186.264,215.904 187.966 C 214.345 188.720,214.333 188.739,214.333 190.380 C 214.333 191.289,214.104 192.476,213.825 193.017 L 213.316 194.000 214.783 194.000 C 216.333 194.000,216.667 193.501,216.667 191.181 C 216.667 190.668,217.155 190.129,218.282 189.399 C 226.105 184.330,229.206 175.336,224.078 172.588 C 222.395 171.686,220.189 170.922,221.500 171.695 M254.766 173.425 C 253.833 174.383,252.957 175.541,252.820 176.000 C 252.682 176.458,251.647 177.808,250.520 179.000 C 249.393 180.191,247.965 181.767,247.347 182.500 C 246.729 183.233,245.986 183.935,245.695 184.060 C 245.235 184.257,245.242 184.290,245.744 184.310 C 246.525 184.342,246.798 185.630,246.551 188.115 L 246.347 190.167 247.347 189.000 C 250.854 184.911,257.445 172.668,256.597 171.819 C 256.522 171.744,255.698 172.467,254.766 173.425 M178.214 174.390 L 176.261 175.380 177.022 176.190 C 178.012 177.244,179.378 177.235,180.532 176.167 C 181.026 175.708,181.263 175.333,181.058 175.333 C 180.853 175.333,180.569 174.898,180.426 174.367 L 180.167 173.400 178.214 174.390 M238.000 177.903 C 238.000 179.155,240.153 180.833,241.246 180.434 C 242.544 179.960,243.514 179.000,242.695 179.000 C 242.295 179.000,241.487 178.750,240.900 178.445 C 239.937 177.943,238.000 177.582,238.000 177.903 M201.706 181.417 C 203.451 184.725,206.596 188.291,209.315 190.044 C 211.200 191.260,211.333 191.246,211.333 189.833 C 211.333 189.122,211.171 188.667,210.917 188.666 C 208.834 188.665,204.544 185.481,202.784 182.630 C 201.588 180.692,200.937 179.960,201.706 181.417 M190.333 217.438 C 190.333 217.495,190.821 217.983,191.417 218.521 L 192.500 219.500 191.521 218.417 C 190.608 217.407,190.333 217.180,190.333 217.438 M242.000 230.161 C 236.974 232.145,229.435 234.191,225.333 234.685 C 221.433 235.155,217.702 236.302,215.500 237.707 C 214.583 238.293,213.233 238.959,212.500 239.189 C 211.767 239.419,210.609 239.845,209.927 240.137 C 207.584 241.139,203.141 239.804,200.396 237.273 C 197.954 235.022,191.784 232.756,186.464 232.155 C 185.384 232.033,183.874 231.820,183.109 231.681 L 181.719 231.429 182.577 232.798 C 188.501 242.250,194.764 246.484,206.796 249.169 C 215.230 251.052,224.847 249.049,232.148 243.889 C 232.965 243.312,233.668 243.188,236.315 243.154 C 241.591 243.086,244.826 241.515,246.022 238.442 C 248.320 232.535,246.336 228.450,242.000 230.161 M175.732 245.444 C 174.565 252.620,175.002 253.851,180.746 259.578 C 185.277 264.096,189.365 265.426,195.457 264.365 C 198.005 263.922,202.562 264.364,203.801 265.176 C 207.403 267.536,221.134 269.104,219.838 267.008 C 219.228 266.021,220.967 264.911,224.530 264.013 C 225.280 263.824,226.166 263.369,226.499 263.001 C 227.230 262.193,227.506 262.203,221.667 262.828 C 210.640 264.009,196.278 261.593,187.500 257.079 C 183.351 254.946,178.114 248.942,176.663 244.654 L 176.121 243.054 175.732 245.444 M151.570 262.541 C 151.214 262.897,151.285 273.526,151.693 280.852 L 152.052 287.314 151.111 289.044 C 150.593 289.996,148.781 292.234,147.085 294.017 L 144.002 297.260 141.537 297.385 C 139.512 297.487,138.845 297.670,137.804 298.411 C 136.542 299.309,135.921 299.401,136.589 298.591 C 136.977 298.121,138.333 294.254,138.333 293.617 C 138.333 293.395,137.266 295.078,135.962 297.357 C 132.281 303.791,122.581 317.949,119.935 320.750 C 118.492 322.279,117.185 322.437,116.600 321.154 C 116.381 320.672,115.989 320.350,115.691 320.407 C 114.931 320.551,114.754 323.669,115.482 324.076 C 115.893 324.307,115.927 324.513,115.642 325.046 C 115.162 325.944,115.082 325.914,118.379 326.049 L 121.257 326.167 122.027 323.500 C 123.545 318.240,125.877 314.744,127.071 315.937 C 127.363 316.230,127.270 316.697,126.687 317.865 C 126.263 318.712,125.570 320.666,125.146 322.207 C 124.722 323.748,124.293 325.269,124.192 325.588 C 124.026 326.107,127.847 326.315,132.024 326.014 C 132.128 326.006,132.102 325.212,131.965 324.250 C 131.827 323.287,131.704 321.558,131.691 320.406 C 131.678 319.254,131.458 317.812,131.202 317.201 C 130.653 315.885,130.947 315.232,132.020 315.388 C 133.193 315.557,134.267 317.963,134.713 321.417 L 135.089 324.333 136.461 324.348 C 137.216 324.356,138.433 324.579,139.167 324.843 C 141.292 325.609,141.404 325.547,141.149 323.750 C 140.661 320.316,138.452 315.335,137.417 315.334 C 136.910 315.333,136.897 315.148,137.345 314.311 C 138.055 312.986,140.873 314.892,142.062 317.503 C 142.426 318.302,142.489 318.229,143.554 315.780 C 144.864 312.769,144.903 312.174,143.942 309.940 C 143.160 308.120,143.339 307.252,144.535 307.071 C 145.321 306.952,145.460 306.715,150.739 296.518 L 155.044 288.203 154.194 283.852 C 152.890 277.177,152.632 274.941,152.500 269.167 C 152.384 264.090,152.093 262.018,151.570 262.541 M185.185 264.417 C 185.722 265.012,186.294 265.650,186.455 265.833 C 186.616 266.017,186.561 265.792,186.331 265.333 C 185.781 264.234,184.980 263.333,184.553 263.333 C 184.363 263.333,184.648 263.821,185.185 264.417 M229.540 287.290 C 229.227 287.634,228.604 287.917,228.154 287.917 C 227.081 287.917,226.425 288.493,226.168 289.658 C 226.030 290.287,225.692 290.672,225.159 290.805 C 224.678 290.926,224.007 291.606,223.479 292.505 C 222.974 293.367,222.276 294.085,221.837 294.196 C 221.417 294.301,220.687 294.790,220.215 295.282 L 219.358 296.178 221.845 302.339 C 223.213 305.727,224.342 308.725,224.355 309.000 C 224.425 310.602,228.982 294.509,229.841 289.624 C 230.378 286.571,230.354 286.390,229.540 287.290 M250.476 296.628 C 250.600 296.829,249.870 299.156,248.852 301.799 C 245.539 310.405,245.459 311.684,247.710 320.000 C 249.375 326.150,249.979 329.609,249.990 333.046 L 250.000 336.258 251.000 336.404 L 252.000 336.551 251.993 332.192 C 251.983 325.270,251.250 321.330,249.135 316.833 C 247.307 312.947,247.377 312.009,250.098 303.842 C 251.319 300.180,252.208 297.084,252.075 296.963 C 251.601 296.529,250.239 296.244,250.476 296.628 M184.110 303.167 C 184.721 305.363,185.037 310.949,184.820 315.727 C 184.557 321.529,184.641 321.830,185.796 319.218 C 186.557 317.498,186.569 317.341,186.148 314.635 C 185.908 313.094,185.452 309.883,185.135 307.500 C 184.817 305.117,184.415 303.017,184.241 302.833 C 184.039 302.620,183.992 302.739,184.110 303.167 M192.724 319.431 C 192.517 319.680,191.233 322.048,189.870 324.692 C 188.507 327.336,186.673 330.869,185.794 332.542 L 184.195 335.585 184.815 336.959 C 185.765 339.067,187.824 339.041,188.176 336.917 C 189.514 328.822,193.004 319.401,194.290 320.413 C 194.780 320.798,194.781 320.765,194.301 320.018 C 193.651 319.009,193.211 318.845,192.724 319.431 M204.017 321.083 C 205.831 323.002,209.331 333.199,209.333 336.571 C 209.333 337.283,209.438 337.307,212.333 337.240 C 215.692 337.163,216.014 336.987,213.856 336.410 L 212.378 336.015 211.496 333.123 C 209.453 326.426,205.853 320.365,203.904 320.341 C 203.365 320.334,203.376 320.406,204.017 321.083 M239.802 323.771 C 241.008 324.978,243.252 329.866,244.115 333.167 C 244.874 336.071,244.930 336.167,245.862 336.167 C 247.291 336.167,247.238 335.456,245.506 331.424 C 243.238 326.145,241.069 323.000,239.698 323.000 C 239.060 323.000,239.065 323.034,239.802 323.771 M236.501 325.500 C 236.970 330.138,237.322 335.082,237.198 335.283 C 237.124 335.402,237.425 335.500,237.866 335.500 C 239.011 335.500,238.475 329.295,236.987 325.333 L 236.299 323.500 236.501 325.500 M228.227 324.600 C 227.549 325.349,226.815 327.388,225.982 330.833 C 225.063 334.638,225.095 334.899,226.500 335.063 L 227.667 335.199 227.667 332.788 C 227.667 330.432,228.280 326.726,228.971 324.909 C 229.367 323.867,229.021 323.723,228.227 324.600 " stroke="none" fill="#77685c" fill-rule="evenodd"></path><path id="path6" d="M153.000 50.438 C 153.000 50.495,153.487 50.983,154.083 51.521 L 155.167 52.500 154.188 51.417 C 153.275 50.407,153.000 50.180,153.000 50.438 M155.333 52.771 C 155.333 52.828,155.821 53.316,156.417 53.854 L 157.500 54.833 156.521 53.750 C 155.608 52.740,155.333 52.513,155.333 52.771 M242.744 120.000 C 242.744 120.642,242.813 120.904,242.896 120.583 C 242.980 120.263,242.980 119.737,242.896 119.417 C 242.813 119.096,242.744 119.358,242.744 120.000 M192.406 145.733 C 192.580 146.690,192.634 147.913,192.526 148.451 C 192.336 149.402,192.356 149.393,193.203 148.145 C 194.066 146.872,194.069 146.847,193.483 145.758 C 192.423 143.791,192.051 143.782,192.406 145.733 M232.381 145.953 L 231.595 146.557 232.262 147.858 L 232.929 149.158 233.048 147.245 C 233.113 146.193,233.167 145.336,233.167 145.340 C 233.167 145.345,232.813 145.620,232.381 145.953 M212.583 170.235 C 212.996 170.315,213.671 170.315,214.083 170.235 C 214.496 170.156,214.158 170.091,213.333 170.091 C 212.508 170.091,212.171 170.156,212.583 170.235 M235.921 243.569 C 236.335 243.649,236.935 243.646,237.254 243.562 C 237.573 243.479,237.233 243.414,236.500 243.417 C 235.767 243.421,235.506 243.489,235.921 243.569 M234.100 275.667 C 234.100 276.675,234.162 277.087,234.239 276.583 C 234.315 276.079,234.315 275.254,234.239 274.750 C 234.162 274.246,234.100 274.658,234.100 275.667 M235.091 277.667 C 235.091 278.492,235.156 278.829,235.235 278.417 C 235.315 278.004,235.315 277.329,235.235 276.917 C 235.156 276.504,235.091 276.842,235.091 277.667 M235.084 280.833 C 235.088 281.567,235.156 281.827,235.236 281.413 C 235.315 280.998,235.312 280.398,235.229 280.079 C 235.146 279.761,235.080 280.100,235.084 280.833 M249.770 333.833 C 249.772 334.933,249.834 335.343,249.908 334.744 C 249.982 334.145,249.981 333.245,249.905 332.744 C 249.829 332.243,249.768 332.733,249.770 333.833 M195.755 339.573 C 196.261 339.649,197.011 339.647,197.421 339.568 C 197.831 339.489,197.417 339.426,196.500 339.429 C 195.583 339.431,195.248 339.496,195.755 339.573 " stroke="none" fill="#aca48c" fill-rule="evenodd"></path><path id="path7" d="M209.250 169.911 C 210.029 169.981,211.304 169.981,212.083 169.911 C 212.862 169.841,212.225 169.783,210.667 169.783 C 209.108 169.783,208.471 169.841,209.250 169.911 M250.484 178.750 L 249.167 180.167 250.583 178.849 C 251.901 177.624,252.153 177.333,251.901 177.333 C 251.847 177.333,251.209 177.971,250.484 178.750 " stroke="none" fill="#ac988c" fill-rule="evenodd"></path><path id="path8" d="M201.067 202.400 C 200.847 202.620,200.667 202.949,200.667 203.130 C 200.667 203.312,200.854 203.220,201.083 202.925 C 201.313 202.631,201.800 202.319,202.167 202.233 C 202.819 202.081,202.819 202.077,202.150 202.039 C 201.774 202.017,201.287 202.180,201.067 202.400 M207.222 203.556 C 206.921 203.857,206.940 204.924,207.250 205.115 C 207.387 205.200,207.500 204.834,207.500 204.302 C 207.500 203.769,207.487 203.333,207.472 203.333 C 207.457 203.333,207.344 203.433,207.222 203.556 M216.957 204.417 C 217.463 205.061,218.183 205.180,218.498 204.670 C 218.615 204.481,218.480 204.426,218.180 204.541 C 217.893 204.651,217.398 204.537,217.079 204.287 C 216.555 203.877,216.544 203.889,216.957 204.417 M215.417 224.833 C 215.421 225.567,215.489 225.827,215.569 225.413 C 215.649 224.998,215.646 224.398,215.562 224.079 C 215.479 223.761,215.414 224.100,215.417 224.833 " stroke="none" fill="#b94415" fill-rule="evenodd"></path></g></svg>