<svg id="svg" version="1.1" xmlns="http://www.w3.org/2000/svg" width="400"
     height="400" viewBox="0, 0, 400,400">
    <g id="svgg">
        <path id="path0"
              d="M167.127 67.817 C 167.025 68.084,167.037 68.456,167.153 68.645 C 167.270 68.834,166.982 70.204,166.513 71.688 C 160.024 92.230,163.791 116.390,175.774 131.079 C 176.848 132.396,177.333 133.297,177.333 133.976 C 177.333 135.747,184.574 142.333,186.522 142.333 C 186.778 142.333,187.056 142.671,187.140 143.083 C 188.460 149.581,192.062 157.115,195.856 161.314 C 196.528 162.058,196.912 162.667,196.709 162.667 C 196.507 162.667,195.737 163.867,195.000 165.333 L 193.659 168.000 189.746 168.007 C 183.215 168.017,173.698 169.611,161.667 172.708 C 144.505 177.125,135.790 180.543,128.056 185.890 L 125.946 187.349 123.487 186.841 C 113.268 184.730,103.119 187.565,87.163 196.986 C 69.142 207.625,67.433 208.477,60.333 210.353 C 53.632 212.123,52.762 212.517,53.571 213.413 C 54.681 214.641,57.378 215.762,59.223 215.762 C 60.666 215.762,60.976 215.870,61.121 216.428 C 61.387 217.444,64.724 217.057,68.423 215.582 C 70.030 214.941,71.427 214.548,71.526 214.708 C 72.389 216.105,79.547 212.567,83.867 208.609 C 87.921 204.894,90.927 202.996,94.780 201.718 C 96.541 201.135,100.423 199.692,103.408 198.514 C 108.863 196.359,111.646 195.674,114.957 195.669 L 116.748 195.667 115.276 197.417 C 108.437 205.548,106.878 211.331,105.004 235.500 C 104.365 243.750,103.466 265.484,103.530 271.167 C 103.563 274.124,104.882 279.575,106.793 284.654 L 107.895 287.581 107.291 291.374 C 106.695 295.126,104.667 317.881,104.667 320.827 C 104.667 321.848,104.986 322.986,105.634 324.268 C 106.165 325.321,106.773 326.825,106.985 327.609 C 107.196 328.394,107.656 329.322,108.007 329.673 C 108.583 330.250,108.602 330.433,108.206 331.572 C 105.301 339.924,107.494 343.894,114.537 343.033 C 116.407 342.804,117.640 342.800,118.218 343.020 C 119.173 343.383,120.063 343.207,121.326 342.408 C 121.966 342.002,122.942 341.903,125.670 341.966 C 130.273 342.072,130.483 341.888,130.268 337.927 C 130.036 333.665,128.138 330.403,124.327 327.716 L 122.742 326.599 122.500 315.549 L 122.258 304.500 123.293 301.167 C 124.747 296.478,126.113 289.699,127.309 281.233 C 129.309 267.078,132.459 256.466,137.917 245.500 C 141.164 238.977,142.878 237.328,146.400 237.341 C 150.281 237.356,150.745 237.593,154.334 241.391 C 156.123 243.284,158.504 245.583,159.625 246.500 C 161.978 248.426,162.011 248.578,161.157 253.540 C 159.537 262.939,157.254 269.284,152.005 278.970 C 149.765 283.103,150.098 284.799,156.488 301.833 C 160.208 311.751,162.421 317.019,163.365 318.207 C 165.154 320.458,166.578 323.971,166.415 325.731 C 166.038 329.781,169.050 333.435,172.500 333.114 C 179.157 332.495,181.455 331.792,181.840 330.257 C 181.946 329.837,182.489 329.231,183.048 328.911 C 184.056 328.332,184.063 328.310,183.838 326.247 C 183.444 322.644,182.734 321.621,179.101 319.423 L 175.921 317.500 174.613 313.333 C 172.563 306.804,171.956 303.847,171.683 299.049 L 171.430 294.590 172.569 292.897 C 173.568 291.412,173.699 290.975,173.633 289.343 C 173.561 287.580,173.651 287.349,175.362 284.908 C 176.354 283.493,178.102 280.647,179.245 278.584 L 181.323 274.833 181.328 277.071 C 181.341 282.703,184.140 298.525,185.912 302.985 L 186.767 305.137 186.478 316.152 C 186.319 322.210,186.170 330.092,186.147 333.667 L 186.106 340.167 184.533 344.000 C 183.580 346.322,182.883 348.597,182.765 349.771 L 182.570 351.709 184.315 353.347 C 186.455 355.356,187.520 355.701,192.067 355.862 C 196.240 356.009,196.093 356.118,196.361 352.667 L 196.556 350.167 196.611 352.886 L 196.667 355.604 199.868 355.844 C 201.965 356.002,203.503 355.955,204.324 355.709 C 205.013 355.502,206.117 355.333,206.777 355.333 C 208.090 355.333,208.667 354.685,208.667 353.209 C 208.667 352.750,209.103 351.897,209.636 351.313 C 210.170 350.729,210.878 349.747,211.210 349.130 L 211.814 348.008 210.749 345.921 C 210.163 344.773,208.510 341.663,207.076 339.010 L 204.469 334.186 205.043 331.177 C 206.246 324.876,207.396 315.297,207.565 310.167 L 207.740 304.833 206.552 300.771 L 205.363 296.709 207.363 287.938 C 208.463 283.114,209.966 276.467,210.702 273.167 C 211.439 269.867,212.100 266.985,212.172 266.762 C 212.268 266.467,212.697 266.532,213.763 267.003 C 217.983 268.870,230.929 271.083,234.391 270.529 C 235.835 270.299,235.862 270.365,235.151 272.375 C 234.867 273.177,234.708 274.114,234.797 274.457 C 234.886 274.800,234.737 276.975,234.466 279.289 C 233.023 291.621,232.669 300.275,233.347 306.596 C 233.818 310.978,235.914 327.285,236.369 330.108 C 236.825 332.936,238.646 336.660,240.199 337.940 C 241.293 338.842,241.392 339.095,241.886 342.261 C 242.504 346.219,242.879 346.716,245.824 347.484 C 248.319 348.133,249.152 348.133,249.802 347.484 C 250.227 347.058,250.450 347.040,251.075 347.379 C 252.168 347.971,259.595 347.970,260.860 347.378 C 261.395 347.127,262.058 346.814,262.333 346.683 C 262.608 346.551,263.283 346.573,263.833 346.732 C 265.827 347.307,270.911 347.342,271.375 346.783 C 272.237 345.744,269.746 338.310,267.626 335.595 C 266.052 333.580,265.792 333.433,263.099 333.032 C 260.241 332.607,256.478 331.176,256.157 330.392 C 256.031 330.085,255.425 328.359,254.810 326.556 L 253.693 323.279 254.008 314.890 C 254.435 303.538,255.068 299.266,258.013 287.833 C 260.153 279.526,260.730 275.788,260.641 270.833 L 260.568 266.833 262.077 263.333 C 265.079 256.371,267.057 244.683,268.013 228.255 C 268.523 219.489,268.247 202.025,267.569 200.167 C 266.481 197.187,259.179 180.887,257.185 176.990 C 252.907 168.628,252.842 168.175,255.495 165.274 C 258.155 162.368,260.792 158.253,262.577 154.226 C 264.269 150.408,264.631 150.000,266.327 150.000 C 272.900 150.000,282.651 142.799,282.664 137.937 C 282.667 136.762,282.900 136.508,287.965 132.197 C 297.117 124.405,301.406 118.439,304.440 109.286 C 307.375 100.426,308.799 86.993,307.337 81.942 C 305.988 77.279,295.992 78.353,283.388 84.514 C 278.292 87.005,276.628 87.583,270.000 89.160 C 267.640 89.721,265.322 90.579,262.883 91.792 L 259.267 93.592 256.543 92.316 C 242.944 85.943,219.342 84.767,206.333 89.814 C 206.003 89.942,205.694 89.695,205.423 89.087 C 203.861 85.574,191.384 75.031,185.044 71.868 C 178.906 68.805,167.718 66.276,167.127 67.817 M171.667 69.685 C 181.968 71.991,191.937 78.074,201.065 87.626 L 204.297 91.007 202.661 91.836 C 199.433 93.472,196.667 96.722,196.667 98.879 C 196.667 100.507,197.180 100.499,197.805 98.861 C 203.194 84.751,254.610 86.126,264.010 100.632 C 265.136 102.371,266.162 102.836,266.563 101.790 C 266.892 100.932,265.716 99.122,263.453 97.005 L 261.367 95.054 262.183 94.520 C 263.911 93.387,268.882 91.646,272.666 90.847 C 277.487 89.829,279.535 89.064,285.333 86.116 C 293.566 81.930,301.396 79.997,304.795 81.313 L 305.758 81.685 305.572 88.259 C 304.958 109.979,299.386 120.136,279.583 135.633 C 276.616 137.956,276.579 139.960,279.530 138.553 C 281.000 137.852,280.964 138.231,279.368 140.249 C 276.941 143.320,271.925 146.233,267.667 147.044 C 266.475 147.272,265.263 147.654,264.974 147.895 C 264.684 148.136,264.200 148.333,263.897 148.333 C 263.585 148.333,263.037 148.945,262.630 149.750 C 256.666 161.528,252.088 166.385,244.667 168.810 C 241.794 169.748,241.500 169.921,241.500 170.672 C 241.500 172.193,247.328 171.208,250.572 169.138 C 251.501 168.545,251.667 168.547,251.667 169.155 C 251.667 170.244,252.867 173.042,255.028 176.994 C 256.357 179.423,258.900 185.143,261.116 190.686 C 263.209 195.921,265.261 200.871,265.677 201.686 C 268.243 206.706,264.269 251.999,260.459 261.167 C 258.027 267.021,257.683 267.989,257.869 268.472 C 257.980 268.763,258.205 269.000,258.369 269.000 C 259.453 269.000,258.250 278.935,256.391 285.333 C 251.740 301.341,250.045 316.950,252.194 324.000 C 254.604 331.908,255.122 333.398,255.726 334.166 C 256.611 335.291,257.108 335.222,256.929 334.000 C 256.848 333.450,256.813 333.000,256.851 333.000 C 256.889 333.000,257.730 333.371,258.720 333.824 C 259.710 334.278,261.552 334.795,262.813 334.973 C 264.074 335.152,265.237 335.493,265.398 335.732 C 267.163 338.355,269.545 344.387,269.101 345.106 C 268.939 345.368,266.645 345.236,263.585 344.791 C 262.418 344.621,262.249 344.439,260.979 341.999 C 258.734 337.684,255.998 335.578,252.026 335.108 C 249.603 334.821,249.876 335.434,252.642 336.491 C 255.883 337.729,257.704 339.442,259.331 342.781 C 260.900 346.002,260.986 345.913,256.292 345.967 C 251.600 346.021,250.704 345.443,249.216 341.402 C 248.909 340.566,247.737 340.520,247.965 341.353 C 248.219 342.285,248.670 345.774,248.551 345.893 C 248.363 346.081,244.877 345.290,244.475 344.968 C 244.277 344.810,243.852 342.840,243.530 340.591 C 242.662 334.533,242.415 333.833,241.814 335.729 C 241.587 336.444,241.573 336.446,241.087 335.812 C 239.318 333.509,238.718 331.279,237.682 323.167 C 237.120 318.767,236.409 313.517,236.102 311.500 C 234.797 302.917,235.345 287.288,237.550 270.230 C 238.020 266.598,238.309 263.532,238.194 263.416 C 237.729 262.951,236.961 264.324,236.599 266.270 L 236.216 268.333 233.191 268.331 C 228.610 268.326,224.818 267.790,218.711 266.281 C 212.159 264.661,212.218 264.699,212.648 262.430 C 213.222 259.402,213.470 254.667,213.054 254.667 C 212.623 254.667,212.511 255.121,211.988 259.000 C 211.778 260.558,210.491 266.183,209.127 271.500 C 206.551 281.549,202.504 298.126,202.028 300.579 C 201.486 303.376,202.901 303.804,203.832 301.125 C 204.329 299.695,204.357 299.736,205.143 303.021 C 206.020 306.685,204.917 319.137,202.661 331.028 C 202.139 333.782,202.231 335.036,202.968 335.228 C 203.354 335.329,203.958 336.198,204.510 337.447 C 205.008 338.576,206.318 341.407,207.420 343.739 C 209.372 347.866,209.410 348.000,208.871 348.822 C 208.223 349.812,207.667 349.921,207.667 349.058 C 207.667 346.294,204.045 339.252,201.900 337.846 C 200.651 337.028,200.355 337.465,201.397 338.587 C 203.510 340.862,205.820 346.778,206.203 350.897 C 206.469 353.766,206.586 353.682,202.211 353.766 L 198.744 353.833 198.548 352.000 C 197.981 346.681,194.574 338.295,194.727 342.594 C 194.745 343.092,194.642 345.825,194.499 348.667 L 194.238 353.833 190.851 353.643 C 185.855 353.363,185.847 353.341,188.510 346.343 C 190.078 342.222,190.214 341.667,189.656 341.667 C 189.232 341.667,186.527 347.161,185.773 349.553 C 185.218 351.312,184.667 351.628,184.667 350.187 C 184.667 349.114,187.398 341.504,189.186 337.596 C 190.848 333.963,190.837 334.000,190.213 334.000 C 189.963 334.000,189.401 334.675,188.964 335.500 C 188.223 336.895,187.353 337.632,187.790 336.493 C 189.075 333.144,188.814 298.616,187.507 299.118 C 185.916 299.728,182.692 273.612,183.694 268.223 C 183.988 266.640,184.010 265.877,183.766 265.723 C 183.525 265.570,183.505 264.243,183.703 261.500 C 183.862 259.300,184.127 252.451,184.291 246.280 C 184.456 240.109,184.685 234.907,184.801 234.720 C 184.916 234.533,184.869 234.292,184.696 234.185 C 184.048 233.784,183.182 239.554,182.663 247.723 C 182.473 250.717,182.096 255.478,181.825 258.304 C 181.555 261.129,181.331 265.029,181.328 266.970 C 181.321 271.388,178.222 277.596,172.553 284.551 C 171.424 285.936,170.207 287.431,169.849 287.872 C 168.983 288.939,169.772 289.991,170.961 289.354 C 172.122 288.733,171.858 290.173,170.432 292.243 L 169.198 294.035 169.290 298.268 C 169.454 305.761,172.792 318.333,174.618 318.333 C 175.523 318.333,180.809 322.149,181.253 323.123 C 181.847 324.426,182.162 327.333,181.710 327.333 C 181.503 327.333,181.333 327.039,181.333 326.679 C 181.333 325.466,180.005 322.463,179.074 321.570 C 178.197 320.730,172.862 317.667,172.276 317.667 C 171.479 317.667,172.269 318.442,174.583 319.932 C 177.960 322.106,178.653 322.901,179.201 325.230 C 180.166 329.335,179.467 330.667,176.346 330.667 C 175.847 330.667,174.710 330.886,173.819 331.154 C 171.751 331.777,171.825 331.990,172.637 327.745 C 173.456 323.465,173.480 323.000,172.885 323.000 C 172.451 323.000,170.667 328.207,170.667 329.473 C 170.667 330.422,169.634 329.938,168.956 328.672 C 168.204 327.269,168.175 325.916,168.828 322.833 C 169.099 321.550,169.324 320.313,169.328 320.083 C 169.338 319.312,168.348 319.658,168.137 320.500 C 168.022 320.958,167.821 321.333,167.690 321.333 C 166.874 321.333,162.357 311.173,159.391 302.667 C 158.847 301.108,157.805 298.333,157.075 296.500 C 155.312 292.077,153.863 287.782,152.995 284.411 L 152.286 281.656 153.677 280.078 C 157.905 275.284,163.333 258.843,163.333 250.836 C 163.333 249.721,163.737 249.304,164.157 249.984 C 165.858 252.737,178.443 259.206,180.703 258.489 C 182.504 257.917,181.028 256.832,175.667 254.791 C 166.530 251.311,149.002 235.016,145.808 227.033 C 145.088 225.234,144.475 225.706,145.127 227.556 C 145.795 229.447,146.890 231.533,148.337 233.667 L 149.579 235.500 146.373 235.391 C 141.602 235.229,134.304 237.903,133.260 240.195 C 132.642 241.550,133.193 241.500,136.626 239.885 C 140.736 237.952,141.060 237.950,139.368 239.873 C 135.520 244.245,130.222 256.521,127.517 267.333 C 126.075 273.099,125.897 274.018,124.512 282.885 C 123.127 291.757,122.132 296.201,120.137 302.426 C 118.464 307.647,118.395 308.527,119.667 308.449 L 120.500 308.398 120.500 316.616 C 120.500 321.701,120.373 324.924,120.167 325.071 C 119.747 325.371,120.943 327.668,121.657 327.933 C 124.755 329.081,128.000 334.257,128.000 338.050 L 128.000 340.000 125.500 340.000 C 124.125 340.000,122.911 340.000,122.802 340.001 C 122.694 340.001,122.568 338.689,122.524 337.084 C 122.469 335.113,122.212 333.531,121.731 332.207 C 120.055 327.587,118.848 327.568,120.003 332.180 C 120.773 335.254,120.843 339.623,120.134 340.333 C 119.535 340.931,111.667 341.095,111.667 340.509 C 111.667 340.244,112.475 337.544,113.462 334.510 C 114.938 329.977,115.333 327.810,114.517 328.717 C 114.026 329.263,112.159 333.528,111.180 336.340 C 109.734 340.495,109.803 340.409,109.156 338.859 C 108.656 337.661,108.687 337.416,110.013 332.114 C 110.770 329.088,111.306 326.528,111.203 326.425 C 110.927 326.149,110.000 327.008,110.000 327.541 C 110.000 328.437,109.383 327.983,109.152 326.917 C 109.023 326.321,108.447 324.896,107.871 323.751 L 106.826 321.669 107.395 314.918 C 107.708 311.205,108.126 305.467,108.325 302.167 C 108.524 298.867,108.916 294.060,109.196 291.484 C 109.768 286.241,109.965 287.562,107.183 278.008 C 105.730 273.017,105.729 272.995,106.268 257.500 C 107.360 226.121,109.099 211.891,112.679 205.019 C 116.346 197.982,126.732 188.492,135.706 183.980 C 148.288 177.654,175.631 170.487,190.761 169.549 C 193.416 169.384,193.411 168.649,190.802 175.572 C 186.320 187.463,184.457 199.605,186.762 201.906 C 187.772 202.914,187.989 201.897,187.995 196.127 C 188.004 186.488,189.865 179.671,195.422 168.912 C 198.022 163.878,198.494 163.281,199.023 164.353 C 199.153 164.617,199.896 166.170,200.673 167.805 C 203.235 173.191,207.299 176.539,213.810 178.628 C 222.345 181.367,222.720 179.937,214.317 176.693 C 209.085 174.673,205.423 172.012,202.960 168.440 C 201.639 166.522,201.712 166.495,204.073 168.021 C 206.314 169.470,207.438 169.604,207.603 168.442 C 207.687 167.855,207.146 167.347,204.770 165.781 C 195.353 159.576,189.372 149.148,188.739 137.828 C 188.436 132.418,187.844 131.857,187.501 136.654 L 187.261 140.005 185.321 138.939 C 182.117 137.177,181.772 136.847,182.440 136.179 C 183.279 135.340,183.218 135.224,180.250 132.045 C 169.737 120.784,165.203 107.560,165.778 89.833 C 166.061 81.091,168.158 68.825,169.316 69.136 C 169.601 69.213,170.658 69.460,171.667 69.685 M269.615 94.250 C 267.302 96.171,266.055 98.127,266.463 99.190 C 266.622 99.604,266.961 99.360,267.961 98.112 C 268.672 97.226,269.872 95.907,270.627 95.182 C 272.707 93.186,271.848 92.395,269.615 94.250 M192.165 96.669 C 192.039 96.874,192.174 97.306,192.467 97.630 C 192.759 97.953,193.411 99.615,193.916 101.324 C 195.199 105.668,197.332 106.771,196.373 102.594 C 195.460 98.613,193.056 95.228,192.165 96.669 M206.577 103.867 C 206.492 103.953,206.965 105.030,207.628 106.261 C 208.813 108.462,208.833 108.564,208.833 112.329 C 208.833 115.708,208.902 116.171,209.416 116.270 C 210.632 116.504,211.162 111.302,210.197 108.599 C 209.317 106.136,207.146 103.298,206.577 103.867 M196.883 105.036 L 195.319 106.072 194.635 105.203 C 193.837 104.188,192.908 104.038,193.062 104.949 C 193.120 105.287,192.962 105.810,192.713 106.111 C 191.864 107.134,193.455 110.322,194.367 109.426 C 194.687 109.112,194.694 108.825,194.398 108.176 C 194.187 107.712,194.149 107.333,194.313 107.333 C 194.477 107.333,194.661 107.472,194.722 107.641 C 194.856 108.012,199.333 104.795,199.333 104.327 C 199.333 103.735,198.472 103.984,196.883 105.036 M240.435 104.813 C 237.037 106.395,234.296 109.812,234.804 111.835 C 235.135 113.156,236.056 112.749,236.701 110.997 C 237.736 108.190,242.013 104.667,244.387 104.667 C 244.724 104.667,245.000 104.517,245.000 104.333 C 245.000 103.706,242.176 104.002,240.435 104.813 M269.560 106.582 C 267.714 106.662,266.993 106.813,267.087 107.098 C 267.291 107.718,268.707 108.322,270.000 108.340 L 271.167 108.357 270.250 109.108 C 268.175 110.807,270.457 112.507,273.160 111.276 C 274.331 110.742,274.044 110.200,272.484 110.000 L 271.187 109.833 272.082 109.250 C 273.688 108.203,273.913 105.839,272.353 106.400 C 272.250 106.437,270.994 106.519,269.560 106.582 M196.914 109.810 C 194.064 110.827,190.333 115.005,190.333 117.180 C 190.333 118.177,191.476 117.520,192.281 116.060 C 193.376 114.076,193.416 114.412,192.433 117.333 C 191.773 119.296,191.629 120.251,191.767 121.775 C 191.931 123.604,191.908 123.686,191.361 123.192 C 189.934 121.900,189.455 123.314,190.821 124.788 C 192.943 127.078,196.781 126.788,200.781 124.036 C 202.540 122.826,202.828 123.068,201.333 124.500 C 200.783 125.027,200.333 125.730,200.333 126.062 C 200.333 126.863,200.901 126.837,201.159 126.024 C 201.539 124.827,205.582 121.412,208.068 120.188 C 214.250 117.145,222.340 117.360,226.516 120.680 C 228.133 121.964,229.537 122.026,228.742 120.778 C 225.927 116.352,214.457 115.277,208.067 118.839 C 206.480 119.724,206.498 119.740,206.196 117.210 C 205.500 111.389,201.477 108.181,196.914 109.810 M255.333 109.980 C 255.333 110.153,255.487 110.389,255.675 110.505 C 256.510 111.022,258.322 115.477,259.151 119.055 C 260.116 123.221,260.842 124.493,261.679 123.485 C 262.742 122.204,259.614 113.033,257.336 110.750 C 256.290 109.703,255.333 109.335,255.333 109.980 M198.960 112.925 C 199.411 113.768,198.874 114.547,197.283 115.359 C 194.963 116.543,194.097 115.185,195.974 113.308 C 197.079 112.203,198.478 112.024,198.960 112.925 M243.572 113.004 C 241.038 113.445,237.885 115.108,235.855 117.075 C 233.130 119.714,233.435 120.756,236.256 118.445 C 237.610 117.335,237.720 117.297,237.457 118.028 C 237.297 118.471,237.167 119.912,237.167 121.230 L 237.167 123.626 236.452 122.955 C 235.472 122.034,235.154 122.689,235.859 124.174 C 238.276 129.268,247.334 132.769,252.417 130.574 C 253.694 130.022,254.227 128.667,253.167 128.667 C 252.519 128.667,252.521 128.656,253.496 126.951 C 253.952 126.153,254.327 125.237,254.329 124.917 C 254.332 124.596,254.483 124.333,254.667 124.333 C 254.850 124.333,255.000 124.761,255.000 125.284 C 255.000 127.572,256.063 128.963,256.973 127.866 C 257.503 127.227,256.378 121.759,255.155 119.033 C 253.130 114.521,248.550 112.137,243.572 113.004 M268.052 113.437 C 267.512 114.088,268.703 115.000,270.093 115.000 C 271.384 115.000,274.000 114.317,274.000 113.980 C 274.000 113.181,268.668 112.695,268.052 113.437 M204.475 115.578 C 205.280 117.940,205.506 120.445,204.954 120.882 C 204.219 121.462,201.910 121.044,202.174 120.378 C 202.513 119.523,203.321 115.581,203.328 114.750 C 203.337 113.498,203.906 113.908,204.475 115.578 M201.667 117.022 C 201.667 117.954,200.332 121.000,199.923 121.000 C 199.743 121.000,199.684 120.769,199.792 120.488 C 199.900 120.206,200.227 119.156,200.518 118.154 C 201.047 116.334,201.667 115.723,201.667 117.022 M246.332 116.832 C 247.269 117.961,244.801 119.667,242.231 119.667 C 241.059 119.667,240.854 119.183,241.537 118.026 C 242.488 116.417,245.388 115.694,246.332 116.832 M175.705 119.250 C 176.303 120.304,177.347 121.917,178.024 122.833 C 178.701 123.750,180.095 125.850,181.123 127.500 C 184.201 132.444,185.733 133.804,187.167 132.864 C 188.303 132.119,188.213 131.389,186.917 130.844 C 185.648 130.310,184.820 129.451,182.088 125.833 C 180.980 124.367,179.592 122.717,179.002 122.167 C 178.412 121.617,177.340 120.304,176.619 119.250 C 175.898 118.196,175.153 117.333,174.963 117.333 C 174.773 117.333,175.107 118.196,175.705 119.250 M269.563 119.917 C 270.073 122.901,269.857 131.023,269.231 132.457 C 268.399 134.360,268.507 134.893,269.850 135.530 C 274.280 137.632,283.583 132.353,289.660 124.289 C 292.398 120.656,292.004 120.664,288.065 124.322 C 281.700 130.234,277.337 132.997,273.353 133.638 C 270.770 134.054,270.954 134.219,271.527 132.010 C 272.445 128.474,271.923 122.086,270.491 119.317 C 269.701 117.789,269.249 118.081,269.563 119.917 M210.470 120.988 C 207.894 122.281,206.000 123.870,206.000 124.739 C 206.000 125.957,208.933 128.512,211.118 129.198 L 213.069 129.810 212.868 131.155 C 212.757 131.895,212.569 133.447,212.450 134.604 L 212.233 136.708 210.275 137.696 C 207.458 139.118,204.609 139.778,202.450 139.508 C 200.966 139.323,200.667 139.372,200.667 139.802 C 200.667 141.687,204.963 141.796,208.833 140.009 C 214.284 137.492,214.065 137.459,220.837 141.801 C 226.043 145.138,231.167 145.976,231.167 143.490 C 231.167 142.911,230.928 142.831,229.142 142.815 C 226.970 142.795,223.554 141.430,220.585 139.396 C 218.591 138.030,216.556 137.038,215.089 136.717 C 214.398 136.565,213.868 136.275,213.911 136.070 C 213.954 135.866,214.060 134.392,214.147 132.795 L 214.306 129.890 215.442 129.500 C 219.757 128.016,221.611 125.167,219.907 122.638 C 218.033 119.857,214.096 119.169,210.470 120.988 M231.667 124.000 C 231.667 124.183,231.810 124.333,231.986 124.333 C 233.722 124.333,237.903 136.431,238.235 142.417 C 238.442 146.165,238.840 147.164,239.706 146.118 C 241.834 143.546,237.950 129.600,233.838 125.049 C 232.657 123.742,231.667 123.264,231.667 124.000 M252.667 124.938 C 252.667 125.802,249.276 128.085,248.459 127.771 C 247.862 127.542,247.866 127.000,248.464 127.000 C 248.719 127.000,249.656 126.484,250.547 125.854 C 252.224 124.667,252.667 124.475,252.667 124.938 M190.111 127.526 C 189.548 128.992,194.117 130.341,196.082 129.289 C 197.074 128.758,196.033 128.000,194.312 128.000 C 193.636 128.000,192.459 127.779,191.694 127.510 C 190.460 127.074,190.283 127.076,190.111 127.526 M240.333 130.734 C 240.333 132.848,248.005 137.333,251.619 137.333 C 254.821 137.333,253.968 135.498,250.611 135.161 C 248.091 134.908,243.423 132.874,241.341 131.122 C 240.671 130.559,240.333 130.428,240.333 130.734 M197.202 134.194 C 196.320 136.493,197.278 142.524,198.775 144.093 C 200.048 145.426,200.370 144.743,199.497 142.564 C 198.811 140.852,198.000 136.737,198.000 134.971 C 198.000 133.648,197.572 133.231,197.202 134.194 M241.852 147.402 C 241.735 148.189,241.325 150.283,240.940 152.055 C 240.206 155.439,240.280 156.457,241.249 156.270 C 242.835 155.965,243.910 147.504,242.510 146.342 C 242.152 146.045,242.021 146.255,241.852 147.402 M214.535 155.277 C 214.435 155.438,214.727 155.920,215.183 156.349 C 217.156 158.202,218.382 160.753,219.821 166.000 C 220.248 167.558,220.702 169.089,220.829 169.402 C 221.033 169.904,220.931 169.934,219.949 169.652 C 218.299 169.179,215.914 169.239,216.081 169.750 C 216.286 170.379,222.221 172.707,223.791 172.774 C 226.119 172.874,225.792 171.392,223.289 170.501 C 221.725 169.945,221.488 169.761,221.872 169.404 C 223.056 168.301,220.809 160.793,218.376 157.720 C 217.325 156.394,214.827 154.805,214.535 155.277 M240.000 175.673 C 236.416 176.945,234.118 177.408,230.333 177.619 C 224.155 177.964,225.299 179.332,231.833 179.411 C 235.674 179.457,237.956 178.908,241.392 177.109 C 245.117 175.158,244.178 174.189,240.000 175.673 M123.739 188.289 C 124.615 188.493,124.550 188.581,121.662 191.083 L 118.681 193.667 115.757 193.678 C 111.497 193.695,108.364 194.379,103.667 196.315 C 101.375 197.260,97.625 198.773,95.333 199.677 C 90.166 201.715,86.943 203.591,83.500 206.566 C 78.874 210.564,73.000 214.148,73.000 212.973 C 73.000 211.827,72.154 211.915,69.286 213.358 C 66.771 214.622,63.305 216.000,62.637 216.000 C 62.494 216.000,62.330 215.588,62.272 215.083 C 62.171 214.203,62.075 214.159,59.833 213.969 C 58.550 213.861,56.975 213.546,56.333 213.269 L 55.167 212.767 57.333 212.520 C 65.755 211.562,67.221 210.904,86.105 199.602 C 99.178 191.779,105.044 189.131,111.333 188.212 C 112.755 188.005,122.783 188.067,123.739 188.289 M229.333 271.500 C 229.333 271.775,229.483 272.000,229.667 272.000 C 229.850 272.000,230.000 271.775,230.000 271.500 C 230.000 271.225,229.850 271.000,229.667 271.000 C 229.483 271.000,229.333 271.225,229.333 271.500 "
              stroke="none" fill="#070504" fill-rule="evenodd"></path>
        <path id="path1"
              d="M168.232 72.405 C 165.986 82.116,165.219 99.056,166.885 102.167 C 168.002 104.254,172.555 110.931,174.564 113.430 C 177.568 117.167,182.273 119.644,186.394 119.660 C 188.589 119.668,188.855 119.315,188.490 116.881 C 188.323 115.767,188.514 114.555,189.294 111.793 C 191.847 102.748,191.021 96.206,186.097 86.501 C 182.333 79.080,179.778 76.340,172.637 72.067 C 168.562 69.628,168.880 69.603,168.232 72.405 M188.667 82.500 C 189.289 83.142,189.872 83.667,189.964 83.667 C 190.056 83.667,189.622 83.142,189.000 82.500 C 188.378 81.858,187.794 81.333,187.703 81.333 C 187.611 81.333,188.045 81.858,188.667 82.500 M300.197 83.008 C 295.696 84.645,293.013 86.104,289.532 88.805 C 288.048 89.958,284.433 92.478,281.500 94.405 C 275.694 98.219,273.399 100.358,272.175 103.094 C 270.790 106.192,270.792 106.277,272.234 106.396 C 273.906 106.534,274.203 107.863,272.807 108.961 C 272.027 109.575,271.995 109.667,272.558 109.667 C 273.844 109.667,274.611 110.542,273.833 111.122 C 272.232 112.316,269.589 112.024,269.012 110.588 C 268.724 109.871,268.708 109.868,268.688 110.524 C 268.661 111.388,271.013 113.000,272.300 113.000 C 273.571 113.000,274.686 113.864,274.000 114.318 C 273.291 114.787,270.076 115.420,269.671 115.170 C 269.138 114.840,269.279 115.411,270.000 116.500 C 270.364 117.050,270.663 117.820,270.664 118.212 C 270.667 119.028,272.921 122.536,274.379 123.994 C 276.104 125.719,279.107 126.133,281.620 124.993 C 282.419 124.630,283.368 124.333,283.728 124.333 C 285.322 124.333,294.529 115.883,298.076 111.167 C 302.966 104.662,304.816 99.254,305.316 90.000 C 305.826 80.575,306.049 80.880,300.197 83.008 M220.772 105.155 C 219.167 105.852,218.111 108.311,219.023 109.223 C 219.244 109.444,219.339 110.853,219.273 112.928 L 219.167 116.276 220.833 116.613 C 221.750 116.799,222.753 117.049,223.062 117.169 C 223.487 117.335,223.799 117.047,224.334 115.998 C 225.015 114.663,225.018 114.616,224.402 114.811 C 223.404 115.128,222.879 114.225,223.134 112.630 C 223.442 110.706,224.222 109.333,225.009 109.333 C 226.404 109.333,224.845 105.847,223.130 105.130 C 221.827 104.585,222.086 104.583,220.772 105.155 M195.864 113.691 C 194.345 115.497,195.581 116.332,197.680 114.917 C 199.179 113.907,199.234 112.872,197.795 112.732 C 196.970 112.652,196.572 112.849,195.864 113.691 M243.084 116.823 C 241.926 117.334,241.004 118.810,241.526 119.316 C 242.001 119.776,245.225 119.005,245.888 118.272 C 247.141 116.888,245.204 115.886,243.084 116.823 M200.578 118.578 C 199.973 120.750,200.067 121.286,200.759 119.619 C 201.437 117.988,201.721 116.667,201.395 116.667 C 201.238 116.667,200.870 117.527,200.578 118.578 M215.000 118.365 C 209.654 118.983,202.127 123.166,202.602 125.254 C 202.658 125.501,202.225 126.248,201.639 126.915 C 201.054 127.583,199.974 129.379,199.241 130.907 L 197.908 133.686 198.438 137.112 C 199.000 140.750,199.634 142.867,199.899 142.000 C 199.984 141.725,200.137 141.275,200.241 141.000 C 200.344 140.725,200.445 140.206,200.465 139.846 C 200.497 139.248,200.758 139.191,203.500 139.179 C 206.195 139.168,206.754 139.050,209.000 138.022 C 212.074 136.615,211.873 136.813,212.112 134.957 L 212.309 133.415 211.071 133.215 C 208.233 132.759,205.333 129.085,205.333 125.947 L 205.333 124.025 207.250 122.726 C 212.632 119.079,217.259 118.802,220.772 121.916 C 224.660 125.363,222.516 132.818,217.400 133.642 C 215.684 133.919,215.324 136.380,216.898 137.079 C 217.412 137.308,219.370 138.421,221.247 139.553 C 225.300 141.997,227.533 142.817,229.436 142.562 C 232.953 142.090,234.293 144.450,231.333 145.903 C 228.826 147.134,224.316 146.603,216.619 144.171 C 212.909 143.000,210.426 142.812,207.333 143.468 C 204.461 144.079,200.966 144.166,200.441 143.641 C 200.185 143.385,200.131 143.537,200.252 144.170 C 200.506 145.495,199.088 145.170,198.054 143.667 L 197.252 142.500 197.473 149.000 C 197.594 152.575,197.800 156.250,197.930 157.167 L 198.167 158.833 201.500 161.072 C 203.333 162.303,206.108 163.957,207.667 164.748 C 211.174 166.529,211.880 168.667,208.959 168.667 C 207.252 168.667,207.774 169.230,212.159 172.123 C 213.263 172.851,214.771 173.938,215.511 174.537 C 220.013 178.190,235.185 178.535,239.521 175.083 L 240.672 174.167 239.150 173.942 C 237.410 173.684,236.667 173.191,236.667 172.293 C 236.667 171.830,236.424 171.667,235.741 171.667 C 231.931 171.667,232.673 168.973,236.695 168.203 C 239.994 167.572,242.589 166.671,247.267 164.532 C 249.412 163.551,251.467 162.645,251.833 162.519 C 252.422 162.316,252.266 162.079,250.500 160.492 C 248.353 158.563,247.893 158.430,247.728 159.693 C 247.094 164.541,245.329 163.582,244.806 158.105 C 244.428 154.146,243.456 153.349,242.592 156.289 C 242.000 158.305,240.471 160.333,239.545 160.333 C 238.561 160.333,238.309 159.202,238.871 157.310 C 239.160 156.338,239.438 153.954,239.492 151.991 C 239.546 150.035,239.692 148.112,239.817 147.717 C 239.997 147.150,239.868 146.933,239.198 146.679 C 238.200 146.299,238.095 145.891,237.867 141.500 C 237.605 136.453,234.545 127.367,232.294 124.958 C 231.766 124.392,231.333 123.823,231.333 123.694 C 231.333 123.021,229.440 121.701,228.738 121.885 C 228.195 122.027,227.559 121.746,226.425 120.862 C 223.817 118.830,219.372 117.859,215.000 118.365 M250.667 126.000 C 249.842 126.548,248.979 126.998,248.750 126.999 C 248.521 126.999,248.333 127.150,248.333 127.333 C 248.333 127.980,249.552 127.654,250.934 126.638 C 251.704 126.072,252.333 125.472,252.333 125.304 C 252.333 124.887,252.353 124.879,250.667 126.000 M216.220 155.645 C 216.799 155.998,217.560 156.212,217.910 156.120 C 219.373 155.738,221.982 159.825,224.124 165.855 C 224.771 167.677,225.632 170.036,226.037 171.099 L 226.773 173.032 226.103 173.933 C 225.259 175.068,223.568 175.261,221.203 174.492 C 215.557 172.656,209.890 168.131,214.083 168.807 C 214.862 168.933,216.175 169.025,217.000 169.011 C 217.825 168.997,218.990 169.130,219.590 169.305 C 220.189 169.480,220.600 169.494,220.502 169.336 C 220.404 169.178,219.953 167.587,219.500 165.801 C 218.496 161.843,217.139 158.858,215.537 157.085 C 213.714 155.067,214.063 154.330,216.220 155.645 M208.726 181.059 C 208.778 183.422,208.117 186.412,207.134 188.260 C 206.694 189.088,206.333 189.989,206.333 190.261 C 206.333 190.534,205.958 191.104,205.500 191.529 C 204.441 192.511,204.443 193.581,205.508 195.682 L 206.349 197.343 205.764 199.255 C 204.336 203.925,205.227 209.964,207.932 213.950 C 209.012 215.542,209.189 216.045,209.075 217.198 C 209.001 217.948,209.176 219.823,209.463 221.364 C 209.929 223.854,209.932 224.371,209.497 226.000 C 209.228 227.008,209.006 228.397,209.004 229.087 C 209.002 229.776,208.692 231.724,208.315 233.414 C 207.537 236.910,207.643 245.448,208.502 248.333 C 208.747 249.158,209.115 252.880,209.320 256.604 C 209.701 263.538,209.906 265.333,210.318 265.333 C 210.653 265.333,211.674 260.378,211.903 257.640 C 212.142 254.789,212.707 253.803,213.482 254.887 C 214.251 255.964,221.541 260.973,223.833 262.000 C 228.741 264.199,232.208 264.548,236.326 263.257 L 238.819 262.476 240.425 257.488 C 242.705 250.408,243.229 247.934,243.841 241.345 C 244.139 238.143,244.445 235.422,244.521 235.299 C 244.598 235.175,244.733 229.957,244.821 223.702 C 244.909 217.447,245.135 211.093,245.322 209.581 C 246.432 200.604,246.330 182.943,245.158 181.079 C 245.127 181.031,244.223 181.380,243.149 181.855 C 233.886 185.952,221.829 185.771,213.000 181.403 C 210.892 180.360,209.059 179.456,208.927 179.395 C 208.795 179.334,208.704 180.083,208.726 181.059 M79.833 203.564 C 68.753 210.263,63.014 212.587,57.281 212.694 L 55.833 212.721 56.833 213.179 C 57.383 213.431,58.536 213.643,59.395 213.652 C 61.496 213.672,62.667 214.151,62.667 214.992 C 62.667 216.057,64.158 215.633,69.304 213.103 L 72.441 211.561 73.042 212.302 L 73.642 213.043 75.071 212.182 C 80.004 209.212,83.365 205.952,84.523 203.012 C 85.135 201.460,85.605 200.179,85.568 200.164 C 85.530 200.150,82.950 201.679,79.833 203.564 M145.218 221.943 C 144.287 222.972,144.583 223.208,146.833 223.229 C 149.216 223.252,149.366 223.126,148.229 222.058 C 147.287 221.174,145.961 221.123,145.218 221.943 M140.576 223.000 C 140.110 223.367,139.506 223.667,139.234 223.667 C 138.616 223.667,137.096 224.871,137.368 225.145 C 137.479 225.256,138.378 224.973,139.366 224.515 C 140.354 224.058,141.838 223.580,142.664 223.454 L 144.167 223.225 143.167 222.794 C 141.809 222.209,141.556 222.229,140.576 223.000 M157.333 225.364 C 156.892 225.676,156.892 225.740,157.329 225.913 C 157.601 226.020,159.851 227.146,162.329 228.416 C 164.806 229.685,166.758 230.650,166.667 230.560 C 166.464 230.361,161.606 226.857,160.037 225.777 C 158.802 224.928,158.101 224.821,157.333 225.364 M184.833 237.000 C 184.705 237.758,184.670 238.448,184.756 238.534 C 184.841 238.619,185.011 238.064,185.133 237.300 C 185.255 236.536,185.290 235.846,185.211 235.766 C 185.131 235.687,184.961 236.242,184.833 237.000 M108.327 306.449 C 108.324 306.661,108.035 310.143,107.685 314.187 L 107.049 321.541 108.191 323.811 C 108.819 325.059,109.333 326.362,109.333 326.707 C 109.333 327.519,109.732 327.505,110.250 326.676 C 110.791 325.810,111.791 326.157,111.559 327.130 C 111.467 327.517,110.854 329.910,110.196 332.447 C 108.899 337.450,108.668 339.240,109.690 336.359 C 111.032 332.578,112.993 328.986,113.904 328.640 C 115.527 328.023,115.576 328.704,114.207 332.862 C 113.510 334.981,112.660 337.690,112.320 338.880 L 111.701 341.045 112.767 340.810 C 113.353 340.681,115.157 340.549,116.775 340.517 C 118.923 340.475,119.798 340.330,120.020 339.980 C 120.556 339.133,120.354 334.291,119.674 331.671 C 118.974 328.974,119.099 328.511,120.437 328.847 C 122.039 329.249,124.605 333.552,125.547 337.417 C 126.072 339.570,126.139 339.667,127.091 339.667 L 128.086 339.667 127.861 337.583 C 127.495 334.192,123.556 328.054,121.974 328.409 C 121.752 328.459,121.147 327.900,120.630 327.167 C 119.654 325.783,119.426 325.000,120.000 325.000 C 121.541 325.000,119.939 316.267,117.369 310.667 C 116.991 309.842,116.678 308.629,116.674 307.972 L 116.667 306.777 114.083 306.913 C 112.388 307.002,110.956 306.879,109.917 306.557 C 108.783 306.205,108.332 306.174,108.327 306.449 M188.843 323.590 C 188.719 326.107,188.504 329.967,188.366 332.167 C 188.072 336.854,188.051 336.760,189.028 335.022 C 189.758 333.723,190.419 333.330,190.811 333.964 C 190.912 334.128,190.454 335.440,189.792 336.881 C 187.656 341.532,187.297 342.444,187.741 342.093 C 190.035 340.278,190.596 341.589,189.136 345.354 C 188.465 347.084,187.643 349.444,187.310 350.599 L 186.705 352.698 187.541 353.016 C 188.001 353.190,189.101 353.333,189.987 353.333 L 191.598 353.333 191.995 350.417 C 192.924 343.605,194.318 340.504,196.139 341.202 C 197.522 341.733,200.375 347.912,201.472 352.750 C 201.694 353.732,202.846 353.947,205.280 353.461 C 206.288 353.259,206.306 353.222,206.127 351.711 C 205.567 346.976,203.461 341.307,201.381 338.939 C 200.370 337.787,200.028 336.561,200.618 336.197 C 201.038 335.937,203.761 337.757,204.619 338.870 C 205.200 339.625,205.141 339.383,204.342 337.750 C 203.782 336.604,203.181 335.667,203.007 335.667 C 201.812 335.667,201.843 334.891,203.464 324.391 C 203.567 323.724,203.474 323.643,202.805 323.811 C 202.320 323.932,201.613 323.754,200.930 323.338 C 199.640 322.551,198.547 322.509,195.857 323.142 L 193.880 323.607 192.034 321.610 C 189.014 318.342,189.103 318.286,188.843 323.590 M238.438 321.884 C 238.532 322.223,238.793 323.325,239.018 324.333 C 239.680 327.291,240.739 329.310,243.278 332.457 C 246.158 336.026,247.271 339.494,247.327 345.083 C 247.331 345.404,247.558 345.667,247.833 345.667 C 248.462 345.667,248.458 345.220,247.806 341.737 C 247.237 338.703,247.450 337.823,248.579 338.535 C 249.484 339.106,251.606 342.370,252.185 344.083 L 252.720 345.667 256.522 345.667 L 260.324 345.667 259.668 344.003 C 258.153 340.159,256.509 338.442,252.803 336.830 C 249.923 335.579,249.541 334.999,251.333 334.603 C 255.628 333.655,262.474 338.045,265.335 343.583 C 266.287 345.425,269.222 345.850,268.787 344.083 C 267.458 338.688,265.495 335.333,263.667 335.333 C 262.244 335.333,258.135 334.154,257.828 333.658 C 257.436 333.024,257.095 333.346,257.257 334.196 C 257.401 334.948,257.321 335.044,256.633 334.946 C 255.532 334.789,254.589 332.928,253.189 328.149 C 252.547 325.959,251.829 323.642,251.594 323.000 L 251.167 321.833 245.333 321.726 C 242.125 321.666,239.223 321.539,238.884 321.443 C 238.409 321.308,238.307 321.409,238.438 321.884 "
              stroke="none" fill="#f3c49c" fill-rule="evenodd"></path>
        <path id="path2"
              d="M174.000 70.480 C 174.000 70.552,176.588 72.522,179.750 74.858 C 190.366 82.698,196.667 90.196,196.667 94.989 C 196.667 96.973,196.895 97.061,197.964 95.491 C 198.788 94.281,201.017 92.502,202.927 91.529 L 204.022 90.972 201.792 88.490 C 195.259 81.220,186.483 74.958,178.985 72.220 C 177.252 71.586,175.421 70.907,174.917 70.709 C 174.412 70.511,174.000 70.409,174.000 70.480 M284.771 86.502 C 278.967 89.399,277.254 90.034,272.589 91.016 C 268.873 91.799,264.466 93.285,262.732 94.341 L 261.632 95.011 263.566 96.922 C 264.630 97.973,265.773 99.185,266.107 99.615 C 266.441 100.045,266.797 100.315,266.897 100.214 C 266.997 100.114,266.845 99.797,266.559 99.511 C 265.029 97.981,270.128 92.344,272.191 93.284 C 272.676 93.505,273.000 93.524,273.000 93.332 C 273.000 92.824,276.331 91.242,276.343 91.744 C 276.349 91.986,276.499 91.918,276.693 91.583 C 276.880 91.263,277.213 91.002,277.433 91.005 C 277.685 91.008,277.647 91.144,277.333 91.370 C 276.917 91.669,276.936 91.696,277.444 91.531 C 277.780 91.422,278.126 91.333,278.214 91.333 C 278.301 91.333,278.291 91.201,278.191 91.039 C 277.939 90.632,279.865 89.877,280.365 90.186 C 280.608 90.337,280.684 90.297,280.553 90.086 C 280.330 89.726,281.292 89.181,281.603 89.492 C 281.699 89.588,281.578 89.667,281.333 89.667 C 281.089 89.667,280.967 89.745,281.063 89.841 C 281.329 90.106,282.353 89.635,282.167 89.333 C 281.961 89.001,282.956 88.600,283.363 88.852 C 283.530 88.955,283.667 88.872,283.667 88.667 C 283.667 88.462,283.812 88.384,283.990 88.494 C 284.306 88.689,286.333 87.814,286.333 87.483 C 286.333 87.391,285.883 87.549,285.333 87.833 C 283.612 88.724,284.241 88.133,286.357 86.872 C 288.627 85.520,289.245 85.336,288.000 86.382 L 287.167 87.082 288.000 86.584 C 288.458 86.310,288.833 85.891,288.833 85.654 C 288.833 85.416,289.042 85.153,289.296 85.068 C 289.613 84.962,289.675 85.059,289.493 85.373 C 289.336 85.645,289.351 85.720,289.530 85.556 C 289.697 85.403,289.836 85.178,289.838 85.056 C 289.841 84.933,289.963 84.646,290.108 84.417 C 290.576 83.680,289.880 83.952,284.771 86.502 M218.863 89.344 C 207.788 90.606,200.408 93.889,198.116 98.573 C 197.643 99.541,197.098 100.333,196.905 100.333 C 196.713 100.333,196.650 100.428,196.766 100.544 C 196.882 100.660,196.833 101.023,196.656 101.352 C 196.286 102.045,196.743 103.685,197.131 103.057 C 197.504 102.455,199.451 102.547,199.217 103.156 C 199.114 103.425,199.173 103.734,199.348 103.842 C 199.987 104.237,199.619 104.664,197.170 106.375 C 194.444 108.278,194.202 108.633,196.198 107.799 C 201.788 105.463,208.266 111.514,207.030 117.917 C 206.716 119.540,206.731 119.551,208.127 118.699 C 209.716 117.730,213.526 116.670,216.249 116.440 C 219.148 116.195,219.318 115.992,218.994 113.167 C 218.773 111.239,218.763 111.222,218.716 112.698 C 218.660 114.433,217.645 115.778,216.930 115.063 C 216.574 114.707,216.876 112.045,217.552 109.583 C 217.793 108.702,218.271 108.884,218.428 109.917 C 218.504 110.421,218.589 109.956,218.617 108.883 C 218.747 103.807,224.263 103.256,225.630 108.182 C 226.295 110.575,225.746 114.322,224.464 116.153 C 223.762 117.154,223.896 117.565,225.054 117.969 C 225.633 118.171,226.590 118.704,227.179 119.154 C 227.769 119.603,228.331 119.892,228.428 119.794 C 228.525 119.697,229.073 119.860,229.645 120.156 C 230.218 120.452,230.841 120.598,231.029 120.482 C 231.472 120.208,233.921 121.903,234.615 122.962 L 235.150 123.778 235.340 122.972 C 235.445 122.529,235.323 121.749,235.068 121.238 C 234.688 120.475,234.683 120.207,235.037 119.738 C 235.402 119.254,235.397 119.230,235.001 119.583 C 234.294 120.214,234.090 120.097,233.925 118.970 C 233.420 115.533,242.549 110.030,247.454 110.814 C 252.151 111.565,256.510 116.242,259.310 123.535 C 260.302 126.119,259.274 129.560,257.915 128.201 C 257.295 127.581,256.726 128.093,256.167 129.772 C 254.986 133.323,245.849 132.759,240.250 128.790 C 239.379 128.173,238.667 127.809,238.667 127.982 C 238.667 128.628,240.078 130.658,240.393 130.463 C 240.573 130.352,241.121 130.642,241.610 131.108 C 243.210 132.633,248.121 134.745,250.603 134.976 C 253.487 135.244,253.739 135.416,253.478 136.943 C 252.939 140.092,248.630 139.955,244.889 136.670 C 243.707 135.633,242.812 135.470,243.616 136.438 C 245.630 138.866,249.080 158.714,247.276 157.500 C 247.004 157.317,247.313 157.617,247.963 158.167 C 248.614 158.717,249.948 159.910,250.929 160.819 C 253.989 163.657,255.854 162.431,258.763 155.667 C 264.044 143.386,263.501 144.033,269.400 143.004 C 275.297 141.975,278.265 140.772,280.202 138.626 L 280.833 137.926 279.628 138.636 C 278.351 139.389,277.522 139.307,277.171 138.392 C 276.918 137.732,277.502 137.179,284.770 131.207 C 292.798 124.609,297.039 119.710,299.833 113.804 C 301.110 111.105,300.623 111.220,298.999 114.001 C 296.779 117.802,284.624 130.302,280.239 133.293 C 276.620 135.762,272.155 136.834,269.934 135.768 C 268.299 134.983,268.235 134.734,269.091 132.437 C 269.791 130.560,269.984 125.524,269.588 119.500 C 269.527 118.576,269.628 118.192,269.917 118.250 C 270.938 118.454,269.558 115.228,268.393 114.686 C 267.110 114.089,267.599 113.194,269.315 113.000 L 270.791 112.833 269.562 111.900 C 268.093 110.783,268.080 110.685,269.239 109.309 C 270.027 108.371,270.052 108.282,269.427 108.616 C 267.889 109.440,266.071 107.544,267.201 106.295 C 267.662 105.787,267.707 105.564,267.392 105.370 C 267.164 105.229,267.074 104.863,267.191 104.557 C 267.309 104.251,267.249 104.000,267.058 104.000 C 266.868 104.000,266.616 103.700,266.500 103.333 C 266.384 102.967,266.078 102.667,265.821 102.667 C 265.565 102.667,264.760 101.862,264.034 100.880 C 257.982 92.687,236.862 87.293,218.863 89.344 M209.630 104.170 C 210.435 104.810,211.206 105.333,211.344 105.333 C 212.140 105.333,213.171 109.694,213.103 112.768 C 213.034 115.900,212.477 116.706,210.471 116.575 C 208.602 116.453,208.362 116.085,208.730 113.899 C 209.158 111.354,208.773 109.037,207.471 106.319 C 206.835 104.993,206.357 103.891,206.407 103.870 C 206.458 103.850,206.800 103.655,207.167 103.436 C 208.079 102.893,207.991 102.867,209.630 104.170 M243.687 103.538 C 245.605 104.166,245.758 104.522,244.250 104.848 C 241.091 105.531,237.948 108.164,236.816 111.074 C 236.382 112.191,235.934 112.835,235.589 112.838 C 235.291 112.840,234.936 112.952,234.801 113.088 C 234.417 113.472,232.732 113.375,232.472 112.954 C 230.724 110.127,234.219 104.484,238.229 103.658 C 239.295 103.439,240.317 103.213,240.500 103.156 C 241.251 102.923,242.127 103.028,243.687 103.538 M192.317 109.575 C 192.226 110.349,192.278 110.856,192.433 110.700 C 192.588 110.545,192.663 109.912,192.599 109.292 C 192.486 108.194,192.479 108.201,192.317 109.575 M259.813 110.866 C 264.794 115.847,266.060 126.611,261.380 124.191 C 260.250 123.606,259.660 122.232,258.797 118.167 C 258.458 116.570,257.650 114.369,256.782 112.682 C 255.076 109.363,255.162 109.746,256.083 109.569 C 257.894 109.220,258.313 109.365,259.813 110.866 M168.012 110.223 C 167.906 113.670,174.497 125.591,178.572 129.326 C 181.313 131.838,185.842 133.886,183.893 131.733 C 183.595 131.403,181.626 128.515,179.519 125.316 C 177.412 122.117,175.399 119.200,175.046 118.833 C 174.692 118.467,173.843 117.267,173.159 116.167 C 172.474 115.067,171.596 113.912,171.207 113.601 C 170.818 113.290,170.500 112.765,170.500 112.434 C 170.499 112.104,170.310 111.833,170.079 111.833 C 169.847 111.833,169.290 111.383,168.841 110.833 C 168.392 110.283,168.019 110.009,168.012 110.223 M189.744 118.000 C 189.744 118.642,189.813 118.904,189.896 118.583 C 189.980 118.263,189.980 117.737,189.896 117.417 C 189.813 117.096,189.744 117.358,189.744 118.000 M228.868 120.727 C 228.978 120.969,229.685 121.692,230.440 122.333 C 231.666 123.375,231.735 123.400,231.093 122.564 C 230.249 121.466,228.580 120.088,228.868 120.727 M201.375 123.783 C 199.515 126.024,194.239 127.077,191.788 125.696 C 190.258 124.835,189.594 124.879,189.470 125.852 C 189.425 126.209,189.289 126.817,189.167 127.204 C 189.021 127.671,189.110 127.971,189.432 128.094 C 189.744 128.214,189.902 128.082,189.875 127.724 C 189.829 127.109,190.113 127.101,193.550 127.613 C 195.919 127.967,196.285 128.144,196.641 129.106 C 196.880 129.754,196.970 129.701,197.770 128.433 C 198.248 127.676,198.782 126.968,198.956 126.860 C 199.375 126.602,202.107 123.333,201.905 123.333 C 201.819 123.333,201.580 123.536,201.375 123.783 M187.757 126.000 C 187.757 126.825,187.822 127.162,187.902 126.750 C 187.981 126.337,187.981 125.662,187.902 125.250 C 187.822 124.837,187.757 125.175,187.757 126.000 M199.151 129.031 C 198.857 129.598,198.677 130.121,198.749 130.193 C 198.821 130.266,199.130 129.802,199.435 129.162 C 200.120 127.725,199.883 127.615,199.151 129.031 M255.176 128.319 C 255.067 128.494,254.774 128.559,254.523 128.463 C 253.953 128.244,253.522 128.871,254.028 129.184 C 254.233 129.311,254.719 129.096,255.108 128.707 C 255.497 128.318,255.715 128.000,255.594 128.000 C 255.472 128.000,255.284 128.143,255.176 128.319 M187.258 129.135 C 187.163 129.629,187.230 129.897,187.417 129.782 C 187.609 129.663,187.647 129.869,187.513 130.292 C 187.383 130.701,187.433 131.000,187.631 131.000 C 188.194 131.000,188.598 133.217,188.966 138.333 C 189.454 145.114,190.321 147.889,193.785 153.755 C 195.480 156.625,197.448 158.997,197.822 158.622 C 197.912 158.533,197.840 157.193,197.662 155.646 C 197.484 154.099,197.337 150.896,197.336 148.528 C 197.334 146.160,197.265 144.290,197.182 144.373 C 197.099 144.456,197.008 146.469,196.980 148.845 C 196.931 152.978,196.514 155.000,195.710 155.000 C 192.957 155.000,192.667 138.782,195.313 132.801 C 195.691 131.947,196.000 131.208,196.000 131.159 C 196.000 131.110,195.438 131.198,194.750 131.354 C 192.803 131.797,190.316 130.923,188.293 129.085 L 187.419 128.291 187.258 129.135 M240.746 132.250 C 240.966 132.846,241.263 133.333,241.406 133.333 C 241.830 133.333,241.694 132.887,240.999 132.000 L 240.346 131.167 240.746 132.250 M196.744 141.000 C 196.744 141.642,196.813 141.904,196.896 141.583 C 196.980 141.262,196.980 140.737,196.896 140.417 C 196.813 140.096,196.744 140.358,196.744 141.000 M243.333 149.433 C 243.333 151.322,243.184 153.016,243.002 153.198 C 242.783 153.417,243.259 154.087,244.412 155.181 C 245.370 156.090,245.835 156.458,245.446 156.000 C 244.907 155.365,244.691 154.533,244.535 152.500 C 243.978 145.201,243.333 143.557,243.333 149.433 M199.810 174.971 C 197.688 176.282,193.961 180.992,192.359 184.387 C 189.735 189.948,189.291 191.897,188.890 199.615 C 188.717 202.957,188.127 203.942,186.985 202.800 C 185.943 201.757,185.560 198.551,185.896 193.667 C 186.475 185.247,184.494 182.709,174.167 178.638 C 170.207 177.077,165.431 177.038,158.667 178.509 C 158.208 178.609,157.008 178.845,156.000 179.034 C 154.992 179.224,153.267 179.610,152.167 179.892 C 151.067 180.175,150.017 180.436,149.833 180.473 C 146.137 181.220,122.727 192.827,122.212 194.168 C 122.107 194.442,121.809 194.667,121.551 194.667 C 120.356 194.667,114.378 201.938,112.507 205.667 C 109.321 212.016,107.198 229.921,106.439 256.833 C 105.982 273.053,106.019 273.821,107.487 278.667 C 109.810 286.335,109.844 286.553,109.397 290.753 C 108.570 298.516,108.228 305.729,108.674 306.004 C 109.949 306.793,113.050 307.086,115.565 306.656 C 116.971 306.415,117.880 306.132,117.585 306.026 C 116.949 305.798,117.675 303.354,119.113 300.887 C 120.027 299.318,121.824 295.248,122.594 293.000 C 123.001 291.810,123.156 288.914,123.344 279.000 C 123.841 252.675,127.883 235.384,135.332 227.708 L 136.744 226.253 137.524 227.210 C 137.993 227.786,138.237 228.432,138.136 228.833 C 137.989 229.418,138.012 229.431,138.322 228.938 C 138.596 228.503,138.487 228.098,137.838 227.142 C 136.696 225.459,137.323 223.667,139.053 223.667 C 139.334 223.667,139.849 223.351,140.197 222.966 C 140.837 222.259,142.542 222.200,144.083 222.832 C 144.494 223.001,144.667 222.915,144.667 222.543 C 144.667 220.448,147.579 220.746,149.204 223.008 C 149.860 223.920,150.475 224.667,150.572 224.667 C 150.669 224.667,150.562 224.442,150.333 224.167 C 149.653 223.346,155.236 224.793,156.129 225.668 C 156.296 225.832,156.630 225.751,156.902 225.479 C 157.763 224.618,159.162 224.928,161.213 226.435 C 168.263 231.615,177.688 236.923,176.542 235.068 C 176.251 234.597,181.784 233.233,182.947 233.488 C 183.529 233.616,183.929 233.845,183.836 233.996 C 183.742 234.147,183.956 234.195,184.312 234.102 C 185.295 233.845,185.491 235.711,184.864 239.360 C 184.523 241.347,184.334 244.424,184.336 247.975 C 184.338 251.014,184.161 256.102,183.942 259.281 C 183.635 263.762,183.635 265.206,183.944 265.700 C 184.249 266.190,184.252 266.695,183.955 267.874 C 182.742 272.693,185.855 298.623,187.706 299.107 C 188.395 299.287,188.561 301.075,188.854 311.490 C 189.052 318.504,189.091 318.833,189.780 319.301 C 190.176 319.569,191.268 320.609,192.206 321.612 L 193.911 323.435 195.437 323.051 C 197.662 322.490,200.008 322.575,201.167 323.258 C 203.170 324.439,203.530 324.050,204.125 320.065 C 205.482 310.982,205.694 305.750,204.838 302.466 C 204.299 300.393,204.000 299.838,204.000 300.908 C 204.000 301.910,202.886 303.156,202.219 302.899 C 201.289 302.543,202.946 294.885,208.918 271.924 C 209.812 268.490,210.412 265.637,210.253 265.584 C 209.705 265.402,209.384 262.816,209.167 256.833 C 209.028 253.008,208.760 250.169,208.427 249.000 C 208.139 247.992,207.921 246.192,207.942 245.000 C 207.963 243.808,207.821 241.633,207.625 240.167 C 207.330 237.949,207.364 237.079,207.829 235.000 C 208.136 233.625,208.512 231.300,208.663 229.833 C 208.814 228.367,209.118 226.460,209.339 225.596 C 209.641 224.410,209.649 223.505,209.370 221.902 C 209.166 220.734,209.000 218.860,209.000 217.737 C 209.000 215.894,208.870 215.511,207.660 213.783 C 205.036 210.037,204.190 203.997,205.637 199.345 L 206.274 197.298 205.475 195.899 C 204.407 194.032,204.417 192.351,205.500 191.333 C 205.958 190.903,206.334 190.239,206.335 189.859 C 206.335 189.478,206.639 188.669,207.011 188.060 C 207.895 186.609,208.656 183.317,208.662 180.913 L 208.667 178.992 206.917 177.889 C 201.926 174.744,200.875 174.313,199.810 174.971 M251.486 176.178 C 249.549 178.164,246.198 180.495,245.712 180.195 C 245.285 179.931,245.481 181.548,246.200 184.225 C 246.677 186.004,246.701 186.772,246.375 189.891 C 246.168 191.876,245.997 196.050,245.997 199.167 C 245.996 202.283,245.835 206.108,245.640 207.667 C 245.175 211.384,244.844 220.869,244.957 227.274 C 245.011 230.345,244.845 234.066,244.542 236.607 C 244.264 238.932,243.863 242.558,243.652 244.667 C 243.313 248.041,241.332 256.117,240.042 259.379 C 239.871 259.812,239.482 260.871,239.178 261.732 C 238.755 262.931,238.494 263.255,238.063 263.117 C 237.594 262.967,237.581 262.995,237.989 263.283 C 238.306 263.507,238.614 263.515,238.867 263.306 C 239.837 262.500,239.900 264.808,238.999 268.169 C 238.632 269.539,238.188 271.674,238.012 272.913 C 237.835 274.153,237.617 275.692,237.526 276.333 C 236.618 282.729,236.718 306.382,237.696 316.913 C 237.887 318.974,237.959 320.796,237.856 320.963 C 237.594 321.387,241.346 321.664,246.750 321.619 L 251.333 321.581 251.339 316.040 C 251.350 305.390,252.363 299.332,256.833 283.167 C 258.430 277.393,259.188 269.271,258.167 268.879 C 257.350 268.566,257.577 267.502,259.305 263.533 C 263.193 254.603,265.440 238.262,265.980 215.000 C 266.247 203.475,266.236 203.132,265.576 201.833 C 265.203 201.100,263.187 196.225,261.097 191.000 C 257.633 182.343,254.550 175.726,253.554 174.811 C 253.271 174.550,252.714 174.919,251.486 176.178 M134.667 184.667 C 134.025 185.018,133.620 185.312,133.767 185.319 C 134.120 185.338,136.000 184.360,136.000 184.158 C 136.000 183.940,135.980 183.947,134.667 184.667 M108.129 188.992 C 103.556 190.191,96.830 193.321,89.700 197.569 L 85.900 199.833 84.811 202.667 C 84.212 204.225,83.767 205.544,83.821 205.599 C 83.876 205.654,86.301 204.139,89.210 202.232 C 94.920 198.490,98.051 196.661,103.000 194.177 C 105.866 192.739,109.561 190.165,110.657 188.844 C 111.180 188.214,111.069 188.221,108.129 188.992 M136.392 234.614 C 136.357 235.483,136.067 236.400,135.667 236.909 C 134.926 237.850,134.820 238.333,135.353 238.333 C 135.547 238.333,135.624 238.201,135.524 238.039 C 135.424 237.877,135.649 237.355,136.024 236.879 C 136.534 236.230,136.673 235.654,136.578 234.589 L 136.450 233.167 136.392 234.614 M181.000 234.667 C 180.358 235.018,179.983 235.305,180.167 235.305 C 180.350 235.305,181.025 235.018,181.667 234.667 C 182.308 234.315,182.683 234.028,182.500 234.028 C 182.317 234.028,181.642 234.315,181.000 234.667 M177.587 235.569 C 178.002 235.649,178.602 235.646,178.921 235.562 C 179.239 235.479,178.900 235.414,178.167 235.417 C 177.433 235.421,177.173 235.489,177.587 235.569 M134.705 244.397 C 134.684 245.257,134.785 246.034,134.930 246.124 C 135.075 246.213,135.142 245.735,135.078 245.060 C 134.882 242.999,134.746 242.756,134.705 244.397 M165.250 306.569 C 165.662 306.648,166.337 306.648,166.750 306.569 C 167.162 306.489,166.825 306.424,166.000 306.424 C 165.175 306.424,164.837 306.489,165.250 306.569 M120.084 312.833 C 120.088 313.567,120.156 313.827,120.236 313.413 C 120.315 312.998,120.312 312.398,120.229 312.079 C 120.146 311.761,120.080 312.100,120.084 312.833 M256.421 345.906 C 256.928 345.982,257.678 345.980,258.088 345.901 C 258.498 345.822,258.083 345.760,257.167 345.762 C 256.250 345.765,255.915 345.829,256.421 345.906 M190.083 353.563 C 190.404 353.647,190.929 353.647,191.250 353.563 C 191.571 353.479,191.308 353.411,190.667 353.411 C 190.025 353.411,189.762 353.479,190.083 353.563 "
              stroke="none" fill="#a45f1a" fill-rule="evenodd"></path>
        <path id="path3"
              d="M168.899 69.545 C 168.783 69.661,170.221 70.659,172.094 71.761 C 179.709 76.242,182.250 78.916,186.097 86.501 C 191.021 96.206,191.847 102.748,189.294 111.793 C 188.514 114.555,188.323 115.767,188.490 116.881 C 188.855 119.315,188.589 119.668,186.394 119.660 C 179.868 119.635,175.105 115.572,167.968 103.943 C 167.031 102.416,166.342 101.467,166.438 101.833 C 166.534 102.200,166.708 103.348,166.826 104.384 C 167.054 106.394,168.210 108.572,172.768 115.583 C 174.742 118.620,175.955 120.119,175.012 118.355 C 173.994 116.453,174.952 116.618,176.334 118.583 C 176.947 119.454,178.220 120.992,179.164 122.000 C 180.107 123.008,181.715 124.958,182.736 126.333 C 183.757 127.708,185.046 129.261,185.600 129.784 L 186.607 130.734 186.992 130.014 C 187.204 129.618,187.515 127.965,187.684 126.340 C 187.852 124.715,188.305 122.586,188.690 121.609 C 189.076 120.633,189.599 118.552,189.852 116.987 C 190.393 113.649,191.131 111.388,191.853 110.860 C 192.221 110.591,192.370 109.882,192.378 108.361 C 192.383 107.193,192.515 105.996,192.670 105.702 C 192.825 105.408,193.039 104.889,193.145 104.549 C 193.272 104.145,193.526 104.003,193.879 104.138 C 194.331 104.312,194.384 104.172,194.206 103.280 C 193.757 101.037,192.624 97.667,192.319 97.667 C 191.790 97.667,191.961 96.327,192.517 96.114 C 193.200 95.852,194.558 97.153,195.066 98.557 C 195.778 100.525,196.667 98.553,196.667 95.008 C 196.667 88.133,176.837 69.529,169.306 69.338 C 169.199 69.336,169.016 69.429,168.899 69.545 M297.833 81.500 C 294.569 82.229,293.141 82.870,290.588 84.751 C 287.191 87.253,285.362 88.213,278.333 91.182 C 269.114 95.077,265.523 99.048,267.484 103.179 C 267.840 103.930,267.899 104.523,267.690 105.252 C 267.361 106.401,267.775 106.654,270.000 106.662 C 271.000 106.666,271.173 106.551,271.213 105.860 C 271.408 102.472,274.554 98.968,281.500 94.405 C 284.433 92.478,288.048 89.958,289.532 88.805 C 293.181 85.973,295.947 84.510,300.830 82.828 C 305.870 81.092,303.788 80.170,297.833 81.500 M305.437 88.500 C 305.438 89.600,305.501 90.010,305.575 89.411 C 305.649 88.812,305.648 87.912,305.572 87.411 C 305.495 86.910,305.435 87.400,305.437 88.500 M165.791 92.167 C 165.792 94.183,165.847 94.965,165.913 93.904 C 165.980 92.844,165.979 91.194,165.912 90.238 C 165.845 89.282,165.791 90.150,165.791 92.167 M302.055 104.500 C 298.661 111.549,286.848 124.333,283.728 124.333 C 283.368 124.333,282.419 124.630,281.620 124.993 C 277.932 126.666,274.909 125.431,272.154 121.124 C 270.841 119.072,270.493 118.836,271.170 120.458 C 272.365 123.317,272.523 130.379,271.455 133.164 C 271.243 133.715,271.373 133.747,272.973 133.535 C 277.047 132.995,281.789 130.036,287.853 124.250 C 289.727 122.462,291.351 121.000,291.463 121.000 C 291.892 121.000,291.637 121.950,290.961 122.872 C 290.573 123.401,291.894 122.183,293.896 120.167 C 299.081 114.943,301.672 110.507,303.331 104.011 C 304.309 100.180,304.096 100.262,302.055 104.500 M269.333 109.167 C 268.903 109.625,268.709 110.000,268.904 110.000 C 269.098 110.000,269.502 109.625,269.803 109.167 C 270.103 108.708,270.296 108.333,270.232 108.333 C 270.169 108.333,269.764 108.708,269.333 109.167 M218.850 111.714 C 219.155 115.325,219.333 115.458,219.333 112.075 C 219.333 110.503,219.183 109.280,218.974 109.151 C 218.721 108.994,218.684 109.753,218.850 111.714 M225.080 109.274 C 223.693 109.470,222.350 113.712,223.398 114.582 C 224.364 115.384,225.278 114.703,225.681 112.882 C 226.237 110.376,226.031 109.139,225.080 109.274 M203.328 115.250 C 203.325 115.938,203.106 117.400,202.840 118.500 C 202.225 121.047,202.226 121.113,202.876 120.863 C 203.174 120.749,203.587 120.795,203.793 120.967 C 205.327 122.239,205.554 118.539,204.149 115.177 C 203.522 113.676,203.335 113.693,203.328 115.250 M191.403 118.017 C 190.303 120.077,190.101 122.391,190.974 122.919 C 191.646 123.327,191.667 123.277,191.667 121.251 C 191.667 120.102,191.814 118.648,191.994 118.020 C 192.448 116.436,192.247 116.436,191.403 118.017 M235.993 118.879 C 234.465 120.260,234.464 120.879,235.988 122.448 L 236.908 123.395 236.752 121.771 C 236.652 120.731,236.782 119.702,237.114 118.907 C 237.756 117.371,237.665 117.369,235.993 118.879 M219.135 121.500 C 222.144 124.288,220.755 127.638,215.808 129.527 L 214.333 130.091 214.333 132.170 C 214.333 133.314,214.245 134.690,214.138 135.227 C 213.962 136.109,214.051 136.237,215.055 136.546 L 216.167 136.888 216.167 135.369 C 216.167 133.875,216.188 133.846,217.400 133.646 C 222.970 132.731,224.736 124.533,220.034 121.417 C 218.523 120.416,218.016 120.463,219.135 121.500 M230.155 122.368 C 230.803 122.937,231.345 123.649,231.360 123.951 C 231.378 124.340,231.438 124.370,231.564 124.054 C 231.739 123.616,229.803 121.333,229.256 121.333 C 229.103 121.333,229.507 121.799,230.155 122.368 M205.733 123.733 C 204.871 124.595,205.250 127.801,206.417 129.522 C 208.730 132.932,212.054 134.446,212.490 132.288 C 212.615 131.671,212.784 130.925,212.866 130.631 C 212.978 130.229,212.493 129.905,210.924 129.336 C 208.003 128.275,205.870 126.156,206.062 124.507 C 206.138 123.861,206.185 123.333,206.166 123.333 C 206.148 123.333,205.953 123.513,205.733 123.733 M201.061 126.417 C 199.770 128.300,198.491 130.868,198.054 132.456 C 197.577 134.188,197.788 133.903,199.304 130.769 C 200.010 129.308,201.056 127.580,201.627 126.929 C 202.199 126.278,202.667 125.578,202.667 125.373 C 202.667 124.611,202.003 125.042,201.061 126.417 M254.366 125.370 C 254.348 125.665,253.963 126.453,253.510 127.120 C 253.057 127.787,252.795 128.353,252.927 128.376 C 255.192 128.782,255.527 128.430,254.870 126.333 C 254.611 125.508,254.384 125.075,254.366 125.370 M213.167 138.575 C 212.617 138.653,211.002 139.240,209.578 139.880 C 205.941 141.513,203.355 141.959,201.806 141.221 C 200.482 140.589,200.000 140.719,200.000 141.706 C 200.000 142.106,199.853 142.282,199.633 142.146 C 199.416 142.012,199.445 142.241,199.704 142.710 C 199.945 143.144,200.117 143.590,200.087 143.700 C 199.967 144.146,204.781 143.997,207.357 143.475 C 210.660 142.806,212.814 142.970,216.650 144.181 C 220.750 145.477,226.280 146.662,228.167 146.650 C 231.468 146.629,234.204 144.372,232.468 143.102 C 231.690 142.533,231.309 142.549,231.536 143.141 C 231.636 143.402,231.390 143.943,230.989 144.344 C 229.250 146.084,224.832 144.725,218.532 140.513 C 216.739 139.314,215.023 138.356,214.719 138.383 C 214.415 138.411,213.717 138.497,213.167 138.575 M197.000 143.333 C 197.000 143.883,197.058 144.333,197.129 144.333 C 197.200 144.333,197.324 143.883,197.404 143.333 C 197.485 142.783,197.427 142.333,197.276 142.333 C 197.124 142.333,197.000 142.783,197.000 143.333 M238.100 144.000 C 238.100 145.008,238.162 145.421,238.239 144.917 C 238.315 144.412,238.315 143.587,238.239 143.083 C 238.162 142.579,238.100 142.992,238.100 144.000 M239.494 150.805 C 239.364 152.530,239.357 154.102,239.478 154.298 C 239.599 154.493,239.392 155.643,239.018 156.853 C 237.987 160.190,239.023 161.449,241.031 159.300 C 242.000 158.263,243.429 154.443,243.070 153.850 C 242.964 153.675,242.736 153.975,242.562 154.516 C 241.402 158.128,239.650 156.827,240.561 153.031 C 241.030 151.080,241.047 150.524,240.678 149.207 C 240.039 146.926,239.756 147.309,239.494 150.805 M244.732 157.776 C 245.353 163.237,247.651 164.836,247.665 159.817 C 247.666 159.441,247.799 158.991,247.961 158.817 C 248.140 158.625,247.506 157.884,246.358 156.943 L 244.460 155.386 244.732 157.776 M217.530 156.285 C 217.433 156.442,217.739 156.929,218.210 157.368 C 220.183 159.207,222.521 165.593,222.251 168.403 C 222.100 169.981,222.109 169.999,223.255 170.315 C 225.380 170.902,226.308 172.300,225.027 172.986 C 223.877 173.601,215.667 170.596,215.667 169.560 C 215.667 169.058,214.706 168.679,213.417 168.671 C 211.470 168.659,213.754 171.088,217.381 172.887 C 222.117 175.236,224.887 175.568,226.103 173.933 L 226.773 173.032 226.037 171.099 C 225.632 170.036,224.771 167.677,224.124 165.855 C 221.792 159.291,218.566 154.609,217.530 156.285 M198.521 159.956 C 199.089 161.340,199.934 162.112,204.284 165.222 C 205.998 166.448,207.572 167.724,207.781 168.059 C 208.235 168.787,209.756 168.862,210.318 168.185 C 211.231 167.085,210.594 166.241,207.768 164.806 C 206.266 164.043,203.459 162.367,201.530 161.082 L 198.024 158.745 198.521 159.956 M250.333 163.129 C 249.325 163.558,247.319 164.459,245.876 165.131 C 242.503 166.702,239.785 167.612,236.695 168.203 C 232.673 168.973,231.931 171.667,235.741 171.667 C 236.424 171.667,236.667 171.830,236.667 172.293 C 236.667 173.208,237.468 173.726,239.183 173.920 L 240.700 174.090 239.600 175.039 L 238.500 175.988 239.838 175.537 C 244.944 173.813,245.598 175.209,240.807 177.605 C 236.003 180.008,226.333 180.501,226.333 178.344 C 226.333 177.880,225.970 177.691,224.750 177.516 C 220.271 176.877,217.323 175.944,215.683 174.648 C 214.784 173.937,213.250 172.840,212.274 172.209 C 211.298 171.578,209.903 170.611,209.174 170.060 C 208.212 169.333,207.696 169.139,207.296 169.353 C 206.915 169.557,206.241 169.394,205.122 168.826 C 204.230 168.373,203.454 168.002,203.397 168.001 C 203.341 168.001,203.981 168.892,204.820 169.983 C 207.444 173.393,209.183 174.554,215.028 176.799 C 218.129 177.990,220.748 179.682,220.260 180.180 C 219.770 180.679,213.120 178.869,209.250 177.183 C 208.757 176.968,208.667 177.110,208.667 178.107 C 208.667 179.282,208.677 179.290,212.750 181.297 C 221.837 185.773,233.114 186.016,242.906 181.946 L 245.313 180.946 245.304 177.390 C 245.296 174.035,245.339 173.806,246.065 173.345 C 246.932 172.794,249.391 170.280,249.225 170.114 C 249.166 170.055,247.853 170.452,246.309 170.996 C 242.971 172.173,242.301 172.219,241.489 171.322 C 240.596 170.335,241.458 169.640,245.000 168.493 C 249.959 166.886,253.697 164.303,252.986 162.974 C 252.561 162.180,252.566 162.179,250.333 163.129 M227.917 177.569 C 228.329 177.648,229.004 177.648,229.417 177.569 C 229.829 177.489,229.492 177.424,228.667 177.424 C 227.842 177.424,227.504 177.489,227.917 177.569 M246.433 187.000 C 246.433 188.008,246.496 188.421,246.572 187.917 C 246.648 187.412,246.648 186.588,246.572 186.083 C 246.496 185.579,246.433 185.992,246.433 187.000 M246.084 190.833 C 246.088 191.567,246.156 191.827,246.236 191.413 C 246.315 190.998,246.312 190.398,246.229 190.079 C 246.146 189.761,246.080 190.100,246.084 190.833 M245.773 204.000 C 245.773 205.192,245.834 205.679,245.908 205.083 C 245.982 204.487,245.982 203.512,245.908 202.917 C 245.834 202.321,245.773 202.808,245.773 204.000 M80.276 208.275 C 76.593 211.197,76.169 211.590,77.333 211.004 C 78.801 210.266,82.962 207.026,83.333 206.335 C 83.805 205.452,83.955 205.356,80.276 208.275 M59.250 213.902 C 59.663 213.981,60.337 213.981,60.750 213.902 C 61.163 213.822,60.825 213.757,60.000 213.757 C 59.175 213.757,58.837 213.822,59.250 213.902 M245.095 217.500 C 245.098 218.417,245.163 218.752,245.239 218.245 C 245.316 217.739,245.314 216.989,245.235 216.579 C 245.156 216.169,245.093 216.583,245.095 217.500 M244.744 221.333 C 244.744 221.975,244.813 222.237,244.896 221.917 C 244.980 221.596,244.980 221.071,244.896 220.750 C 244.813 220.429,244.744 220.692,244.744 221.333 M143.617 222.926 C 143.945 223.160,143.671 223.307,142.615 223.465 C 141.816 223.585,140.361 224.054,139.382 224.508 C 138.403 224.962,137.466 225.249,137.301 225.147 C 136.715 224.785,137.011 225.923,137.807 227.097 L 138.615 228.286 137.652 230.727 C 137.123 232.069,136.684 233.818,136.678 234.614 C 136.671 235.546,136.428 236.365,135.995 236.915 C 135.039 238.131,135.298 238.146,137.688 237.016 C 140.624 235.627,144.223 234.879,147.004 235.078 L 149.265 235.239 148.156 233.696 C 146.734 231.716,144.667 227.410,144.667 226.426 C 144.667 225.097,145.295 225.603,146.363 227.792 C 148.687 232.558,154.985 239.709,161.588 245.079 C 170.756 252.534,172.029 253.355,177.500 255.339 C 179.150 255.937,180.749 256.706,181.054 257.048 C 181.777 257.857,181.840 257.452,182.504 247.833 C 182.978 240.974,183.409 236.978,183.874 235.124 C 184.162 233.974,183.320 233.820,181.616 234.712 C 178.667 236.255,174.518 235.317,169.065 231.874 C 168.296 231.389,167.663 231.106,167.659 231.246 C 167.655 231.386,167.342 231.125,166.964 230.667 C 166.585 230.208,166.371 230.018,166.487 230.245 C 166.691 230.641,157.940 226.366,157.079 225.649 C 156.758 225.382,156.607 225.547,156.450 226.334 C 156.336 226.904,156.076 227.309,155.871 227.234 C 155.667 227.159,154.525 226.770,153.333 226.369 C 151.682 225.814,150.948 225.353,150.246 224.429 C 149.347 223.244,149.272 223.215,146.913 223.162 C 145.586 223.132,144.200 222.994,143.833 222.856 C 143.364 222.678,143.300 222.699,143.617 222.926 M244.751 228.167 C 244.754 228.900,244.823 229.161,244.902 228.746 C 244.982 228.331,244.979 227.731,244.896 227.413 C 244.812 227.094,244.747 227.433,244.751 228.167 M208.762 229.500 C 208.765 230.417,208.829 230.752,208.906 230.245 C 208.982 229.739,208.980 228.989,208.901 228.579 C 208.822 228.169,208.760 228.583,208.762 229.500 M244.751 232.833 C 244.754 233.567,244.823 233.827,244.902 233.413 C 244.982 232.998,244.979 232.398,244.896 232.079 C 244.812 231.761,244.747 232.100,244.751 232.833 M184.810 235.809 C 184.698 236.254,184.736 236.850,184.894 237.132 C 185.093 237.489,185.182 237.240,185.182 236.323 C 185.182 234.796,185.094 234.675,184.810 235.809 M207.424 238.000 C 207.424 238.825,207.489 239.162,207.569 238.750 C 207.648 238.338,207.648 237.662,207.569 237.250 C 207.489 236.838,207.424 237.175,207.424 238.000 M137.674 239.599 C 134.866 240.990,134.663 241.345,134.976 244.320 L 135.167 246.141 136.743 243.423 C 137.610 241.928,138.788 240.172,139.361 239.519 C 139.934 238.867,140.349 238.340,140.285 238.349 C 140.220 238.357,139.045 238.919,137.674 239.599 M243.744 242.333 C 243.744 242.975,243.813 243.237,243.896 242.917 C 243.980 242.596,243.980 242.071,243.896 241.750 C 243.813 241.429,243.744 241.692,243.744 242.333 M209.095 255.833 C 209.098 256.750,209.163 257.085,209.239 256.579 C 209.316 256.072,209.314 255.322,209.235 254.912 C 209.156 254.502,209.093 254.917,209.095 255.833 M213.225 258.404 C 213.112 260.290,212.924 262.447,212.807 263.196 L 212.593 264.559 214.047 264.948 C 220.963 266.799,225.533 267.687,230.049 268.059 C 235.892 268.539,235.979 268.511,236.495 265.925 C 236.897 263.911,237.527 262.875,238.192 263.130 C 238.423 263.219,238.687 263.096,238.778 262.856 C 238.896 262.550,238.191 262.661,236.397 263.231 C 230.080 265.237,221.763 262.386,214.132 255.599 L 213.430 254.975 213.225 258.404 M209.429 261.833 C 209.431 262.750,209.496 263.085,209.573 262.579 C 209.649 262.072,209.647 261.322,209.568 260.912 C 209.489 260.502,209.426 260.917,209.429 261.833 M160.667 305.560 C 160.667 306.217,164.799 316.194,165.703 317.718 C 166.284 318.698,166.942 319.931,167.166 320.457 L 167.573 321.414 167.947 320.343 C 168.921 317.547,169.640 320.220,168.849 323.699 C 168.265 326.265,168.493 327.967,169.604 329.338 C 170.193 330.066,170.209 330.039,171.137 326.713 C 172.667 321.236,174.048 321.202,172.985 326.667 C 172.030 331.574,171.947 331.331,174.407 330.818 C 175.548 330.580,176.577 330.445,176.694 330.517 C 176.812 330.590,177.542 330.400,178.318 330.095 L 179.728 329.542 179.498 327.687 C 179.002 323.676,178.434 322.675,175.603 320.820 C 174.194 319.896,172.728 318.857,172.346 318.511 C 171.453 317.703,171.960 317.111,173.048 317.690 C 173.720 318.049,173.777 318.040,173.442 317.634 C 173.137 317.264,170.000 307.391,170.000 306.801 C 170.000 306.727,168.888 306.667,167.530 306.667 C 165.996 306.667,164.258 306.416,162.946 306.004 C 160.498 305.237,160.667 305.270,160.667 305.560 M117.308 306.233 C 116.355 306.381,116.386 308.913,117.362 310.707 C 117.599 311.143,118.349 313.000,119.029 314.833 L 120.264 318.167 120.243 313.417 C 120.222 308.735,120.211 308.667,119.480 308.667 C 118.615 308.667,118.250 307.948,118.536 306.807 C 118.648 306.363,118.610 306.022,118.453 306.050 C 118.295 306.077,117.780 306.160,117.308 306.233 M188.776 321.167 C 188.778 322.450,188.838 322.934,188.910 322.243 C 188.982 321.551,188.981 320.501,188.907 319.909 C 188.834 319.317,188.775 319.883,188.776 321.167 M237.781 322.417 C 237.885 323.012,238.147 325.075,238.363 327.000 C 238.905 331.831,240.928 336.974,241.726 335.549 C 242.322 334.483,242.952 334.940,243.152 336.583 C 243.258 337.454,243.587 339.699,243.883 341.572 L 244.422 344.978 245.794 345.265 C 247.548 345.632,247.441 345.902,247.047 342.112 C 246.535 337.189,246.010 335.841,243.278 332.457 C 240.739 329.310,239.680 327.291,239.018 324.333 C 238.398 321.561,238.317 321.333,237.940 321.333 C 237.731 321.333,237.668 321.766,237.781 322.417 M246.417 321.563 C 246.737 321.647,247.262 321.647,247.583 321.563 C 247.904 321.479,247.642 321.411,247.000 321.411 C 246.358 321.411,246.096 321.479,246.417 321.563 M180.102 322.333 C 180.394 322.792,180.863 324.052,181.145 325.134 C 181.702 327.277,182.100 328.033,181.851 326.476 C 181.765 325.939,181.611 324.961,181.509 324.303 C 181.402 323.613,180.952 322.767,180.447 322.303 L 179.571 321.500 180.102 322.333 M249.254 321.902 C 249.669 321.982,250.269 321.979,250.587 321.896 C 250.906 321.812,250.567 321.747,249.833 321.751 C 249.100 321.754,248.839 321.823,249.254 321.902 M188.424 329.000 C 188.424 329.825,188.489 330.162,188.569 329.750 C 188.648 329.337,188.648 328.662,188.569 328.250 C 188.489 327.837,188.424 328.175,188.424 329.000 M113.768 328.670 C 112.313 329.257,108.707 337.830,109.384 339.095 C 109.711 339.705,109.905 339.371,111.002 336.311 C 112.694 331.590,113.852 329.118,114.568 328.702 C 115.291 328.281,114.784 328.261,113.768 328.670 M120.852 329.583 C 122.124 332.476,122.650 334.708,122.658 337.250 L 122.667 340.000 125.417 339.947 C 126.929 339.917,127.699 339.834,127.127 339.762 C 126.146 339.638,126.056 339.505,125.543 337.399 C 124.969 335.046,123.511 331.958,122.098 330.106 C 121.199 328.928,120.420 328.601,120.852 329.583 M251.667 334.654 C 251.284 334.911,251.441 334.991,252.333 334.995 C 255.501 335.010,259.264 338.014,261.302 342.154 C 262.045 343.663,262.598 344.376,263.104 344.477 C 266.406 345.137,266.393 345.162,264.433 342.061 C 262.704 339.325,257.314 334.895,256.258 335.342 C 256.208 335.363,255.770 335.229,255.286 335.045 C 253.788 334.476,252.190 334.303,251.667 334.654 M120.424 336.667 C 120.424 337.492,120.489 337.829,120.569 337.417 C 120.648 337.004,120.648 336.329,120.569 335.917 C 120.489 335.504,120.424 335.842,120.424 336.667 M200.542 336.236 C 200.427 336.350,200.345 336.832,200.360 337.306 C 200.374 337.779,200.462 337.979,200.554 337.750 C 201.456 335.516,205.559 341.082,207.345 346.963 C 208.075 349.367,208.092 349.389,208.727 348.754 C 209.339 348.142,206.644 341.481,204.967 339.460 C 204.770 339.223,204.721 338.835,204.858 338.598 C 204.995 338.361,204.987 338.275,204.841 338.407 C 204.694 338.540,204.127 338.272,203.580 337.812 C 202.312 336.745,200.812 335.966,200.542 336.236 M247.488 338.686 C 247.102 339.311,247.625 340.596,248.245 340.547 C 248.588 340.519,249.037 340.913,249.333 341.500 C 251.817 346.435,253.876 347.584,251.618 342.775 C 250.186 339.725,248.114 337.673,247.488 338.686 M195.333 341.178 C 195.333 341.277,195.558 341.700,195.833 342.120 C 196.856 343.681,199.000 351.415,199.000 353.544 C 199.000 353.611,199.603 353.667,200.340 353.667 C 201.873 353.667,201.866 353.763,200.616 349.667 C 199.221 345.095,195.333 338.847,195.333 341.178 M187.409 341.986 C 187.426 342.085,187.329 342.467,187.193 342.833 C 184.911 349.025,184.555 350.217,184.847 350.689 C 184.970 350.888,185.404 350.095,185.812 348.928 C 186.220 347.761,187.160 345.648,187.901 344.234 L 189.249 341.663 188.314 341.734 C 187.800 341.773,187.393 341.886,187.409 341.986 M193.885 342.567 C 193.045 344.192,191.291 352.795,191.727 353.152 C 191.785 353.200,192.376 353.323,193.039 353.425 L 194.244 353.610 194.413 347.722 C 194.600 341.230,194.596 341.192,193.885 342.567 "
              stroke="none" fill="#bb9473" fill-rule="evenodd"></path>
        <path id="path4"
              d="M291.406 83.302 C 290.622 83.614,290.078 83.966,290.197 84.086 C 290.317 84.206,289.283 85.023,287.899 85.902 C 284.282 88.199,283.987 88.427,285.667 87.622 C 287.167 86.904,293.618 82.636,293.105 82.701 C 292.956 82.720,292.191 82.991,291.406 83.302 M225.750 88.909 C 226.438 88.981,227.563 88.981,228.250 88.909 C 228.938 88.838,228.375 88.779,227.000 88.779 C 225.625 88.779,225.063 88.838,225.750 88.909 M219.750 89.230 C 220.071 89.314,220.596 89.314,220.917 89.230 C 221.237 89.146,220.975 89.077,220.333 89.077 C 219.692 89.077,219.429 89.146,219.750 89.230 M233.083 89.230 C 233.404 89.314,233.929 89.314,234.250 89.230 C 234.571 89.146,234.308 89.077,233.667 89.077 C 233.025 89.077,232.762 89.146,233.083 89.230 M279.500 90.159 C 278.583 90.591,277.983 90.948,278.167 90.952 C 278.350 90.956,279.250 90.606,280.167 90.174 C 281.083 89.742,281.683 89.386,281.500 89.382 C 281.317 89.378,280.417 89.728,279.500 90.159 M274.583 92.205 C 273.712 92.649,273.000 93.083,273.000 93.169 C 273.000 93.293,275.743 92.121,276.306 91.757 C 277.091 91.248,275.803 91.583,274.583 92.205 M263.833 97.333 C 264.549 98.067,265.210 98.667,265.302 98.667 C 265.394 98.667,264.883 98.067,264.167 97.333 C 263.451 96.600,262.790 96.000,262.698 96.000 C 262.606 96.000,263.117 96.600,263.833 97.333 M196.151 99.234 C 195.776 101.042,196.064 102.309,196.638 101.380 C 196.869 101.006,196.761 98.350,196.504 98.068 C 196.454 98.013,196.295 98.538,196.151 99.234 M265.833 102.333 C 265.294 102.565,265.274 102.624,265.728 102.643 C 266.036 102.656,266.384 102.967,266.500 103.333 C 266.616 103.700,266.862 104.000,267.045 104.000 C 267.228 104.000,267.283 104.300,267.167 104.667 C 267.045 105.049,267.107 105.333,267.311 105.333 C 267.826 105.333,267.747 104.123,267.158 102.983 C 266.878 102.443,266.616 102.011,266.575 102.023 C 266.534 102.036,266.200 102.176,265.833 102.333 M197.067 103.067 C 196.847 103.287,196.667 103.741,196.667 104.077 C 196.667 104.787,195.892 105.180,195.266 104.789 C 194.326 104.202,193.936 104.376,194.551 105.109 C 194.886 105.507,195.192 105.889,195.232 105.958 C 195.272 106.026,196.012 105.614,196.876 105.041 C 198.928 103.682,200.075 103.668,198.919 105.017 C 198.691 105.282,198.797 105.239,199.155 104.919 C 199.638 104.487,199.708 104.241,199.428 103.962 C 199.221 103.755,199.131 103.379,199.228 103.126 C 199.454 102.538,197.645 102.489,197.067 103.067 M207.440 103.360 C 207.183 103.617,207.288 103.943,207.809 104.506 C 210.135 107.015,211.267 112.098,210.333 115.833 C 210.063 116.915,211.802 116.946,212.506 115.871 C 213.713 114.029,212.754 105.333,211.344 105.333 C 211.206 105.333,210.435 104.810,209.630 104.170 C 207.999 102.873,207.946 102.854,207.440 103.360 M240.500 103.156 C 240.317 103.213,239.295 103.439,238.229 103.658 C 234.179 104.492,230.367 110.834,232.584 113.051 C 233.468 113.934,234.838 113.220,234.737 111.929 C 234.478 108.600,239.509 104.042,243.500 103.989 L 244.833 103.971 243.500 103.490 C 242.237 103.035,241.245 102.925,240.500 103.156 M266.832 106.669 C 266.575 107.085,267.900 109.002,268.439 108.995 C 269.461 108.982,269.702 108.414,268.784 108.184 C 267.132 107.770,266.457 106.857,267.583 106.563 C 268.109 106.426,268.111 106.407,267.603 106.372 C 267.293 106.351,266.946 106.484,266.832 106.669 M194.398 108.176 C 194.989 109.472,194.183 110.116,193.310 109.046 L 192.667 108.259 192.667 109.451 C 192.667 110.277,192.474 110.746,192.039 110.979 C 191.355 111.345,190.000 115.745,190.000 117.598 C 190.000 118.178,189.616 119.667,189.146 120.909 C 188.093 123.694,187.495 128.225,188.086 128.937 C 189.416 130.539,192.853 131.786,194.750 131.354 C 195.438 131.198,196.000 131.110,196.000 131.159 C 196.000 131.208,195.691 131.947,195.313 132.801 C 192.667 138.782,192.957 155.000,195.710 155.000 C 196.736 155.000,196.957 153.051,196.963 143.975 L 196.969 134.833 197.974 132.032 C 198.527 130.491,199.336 128.691,199.773 128.031 C 200.249 127.312,200.483 126.595,200.359 126.239 C 200.128 125.581,198.744 126.828,197.524 128.794 C 197.168 129.367,196.837 129.609,196.705 129.395 C 196.562 129.163,196.307 129.146,195.991 129.346 C 195.239 129.821,192.601 129.715,191.667 129.172 C 191.208 128.905,190.408 128.514,189.889 128.301 C 189.135 127.993,188.989 127.772,189.166 127.208 C 189.288 126.818,189.426 126.200,189.471 125.833 C 189.517 125.467,189.805 125.118,190.111 125.059 C 190.736 124.938,190.843 124.481,190.320 124.159 C 189.974 123.944,190.047 122.168,190.516 119.390 C 190.681 118.416,190.852 118.090,191.042 118.390 C 191.262 118.737,191.324 118.741,191.328 118.406 C 191.331 118.171,191.108 117.893,190.833 117.787 C 189.181 117.153,192.727 111.846,195.879 110.235 C 200.830 107.704,205.571 111.039,206.240 117.525 C 206.464 119.700,206.816 120.103,206.997 118.395 C 207.783 111.009,202.035 105.360,196.209 107.794 C 194.638 108.451,194.667 108.450,194.667 107.833 C 194.667 107.558,194.520 107.333,194.340 107.333 C 194.143 107.333,194.166 107.666,194.398 108.176 M167.456 108.625 C 167.572 109.244,167.667 109.890,167.667 110.061 C 167.667 110.233,167.800 110.290,167.962 110.190 C 168.125 110.089,168.893 110.831,169.669 111.837 C 171.626 114.372,171.608 114.129,169.602 110.917 C 167.447 107.465,167.187 107.187,167.456 108.625 M217.552 109.583 C 216.876 112.045,216.574 114.707,216.930 115.063 C 217.625 115.759,218.667 114.437,218.663 112.865 C 218.655 109.956,217.989 107.989,217.552 109.583 M256.563 109.548 C 256.445 109.666,256.809 110.229,257.371 110.798 C 259.647 113.102,262.650 121.883,261.688 123.423 C 260.926 124.644,262.540 125.127,263.655 124.011 C 264.861 122.805,264.441 118.814,262.737 115.282 C 260.746 111.156,257.744 108.368,256.563 109.548 M243.500 111.127 C 240.335 111.967,235.862 114.841,234.443 116.946 C 233.134 118.889,233.913 118.955,235.863 117.067 C 241.082 112.012,248.205 111.436,252.826 115.696 C 256.092 118.706,258.510 128.333,256.000 128.333 C 255.678 128.333,255.223 128.565,254.987 128.849 C 254.752 129.132,254.359 129.287,254.113 129.192 C 253.861 129.095,253.667 129.241,253.667 129.527 C 253.667 130.263,251.729 130.959,248.960 131.216 C 245.878 131.502,246.906 132.041,250.667 132.110 C 253.724 132.166,255.642 131.351,256.167 129.772 C 256.726 128.093,257.295 127.581,257.915 128.201 C 259.274 129.560,260.302 126.119,259.310 123.535 C 255.671 114.055,249.807 109.454,243.500 111.127 M214.083 119.896 C 214.404 119.980,214.929 119.980,215.250 119.896 C 215.571 119.813,215.308 119.744,214.667 119.744 C 214.025 119.744,213.762 119.813,214.083 119.896 M228.333 120.000 C 228.333 120.183,228.492 120.333,228.686 120.333 C 228.880 120.333,228.932 120.507,228.802 120.718 C 228.659 120.948,228.710 121.013,228.927 120.879 C 229.284 120.658,231.667 122.836,231.667 123.384 C 231.667 123.540,231.874 123.667,232.128 123.667 C 235.049 123.667,239.997 135.769,240.168 143.333 C 240.303 149.302,241.269 151.767,241.830 147.577 C 242.048 145.950,242.465 145.786,243.002 147.117 C 243.270 147.782,243.293 147.767,243.312 146.917 C 243.324 146.412,243.464 146.000,243.624 146.000 C 243.921 146.000,244.177 147.817,244.536 152.500 C 244.751 155.299,245.006 155.816,246.802 157.096 L 247.770 157.786 247.562 153.810 C 247.263 148.107,244.988 138.093,243.616 136.438 C 242.812 135.470,243.707 135.633,244.889 136.670 C 248.129 139.515,253.333 140.137,253.333 137.680 C 253.333 137.143,253.157 137.070,252.221 137.222 C 249.539 137.658,245.314 135.864,242.000 132.884 C 241.358 132.307,241.021 132.052,241.250 132.318 C 241.724 132.867,241.793 133.333,241.400 133.333 C 241.254 133.333,240.931 132.771,240.683 132.083 C 240.436 131.396,239.880 130.274,239.450 129.590 C 239.019 128.906,238.667 128.178,238.667 127.972 C 238.667 127.766,237.992 126.847,237.167 125.930 C 236.342 125.012,235.667 124.044,235.667 123.778 C 235.667 123.512,235.533 123.377,235.370 123.477 C 235.207 123.578,234.850 123.320,234.577 122.904 C 233.913 121.891,231.460 120.216,231.029 120.482 C 230.841 120.598,230.239 120.463,229.693 120.180 C 228.527 119.577,228.333 119.552,228.333 120.000 M236.757 121.000 C 236.757 121.825,236.822 122.162,236.902 121.750 C 236.981 121.337,236.981 120.662,236.902 120.250 C 236.822 119.837,236.757 120.175,236.757 121.000 M178.500 121.667 C 179.216 122.400,179.877 123.000,179.969 123.000 C 180.060 123.000,179.549 122.400,178.833 121.667 C 178.117 120.933,177.456 120.333,177.365 120.333 C 177.273 120.333,177.784 120.933,178.500 121.667 M288.990 123.250 L 286.833 125.500 289.158 123.333 C 290.436 122.142,291.549 121.129,291.630 121.083 C 291.711 121.037,291.636 121.000,291.463 121.000 C 291.289 121.000,290.177 122.013,288.990 123.250 M201.884 123.489 C 201.775 123.773,201.513 123.967,201.304 123.920 C 201.094 123.872,200.874 124.120,200.816 124.471 C 200.725 125.014,200.840 124.978,201.587 124.231 C 202.070 123.748,202.379 123.268,202.274 123.162 C 202.168 123.057,201.993 123.204,201.884 123.489 M291.490 125.417 L 289.500 127.500 291.583 125.510 C 292.729 124.416,293.667 123.479,293.667 123.427 C 293.667 123.181,293.338 123.481,291.490 125.417 M272.095 127.500 C 272.098 128.417,272.163 128.752,272.239 128.245 C 272.316 127.739,272.314 126.989,272.235 126.579 C 272.156 126.169,272.093 126.583,272.095 127.500 M177.000 128.333 C 177.636 129.158,179.246 130.986,180.578 132.396 C 183.196 135.165,183.281 135.338,182.440 136.179 C 181.772 136.847,182.117 137.177,185.321 138.939 L 187.261 140.005 187.501 136.648 C 187.701 133.862,187.827 133.323,188.241 133.482 C 188.596 133.619,188.682 133.520,188.537 133.143 C 188.425 132.851,188.329 132.362,188.323 132.056 C 188.314 131.551,188.282 131.554,187.976 132.079 C 187.362 133.133,186.379 133.440,185.489 132.857 C 185.050 132.569,184.295 132.333,183.812 132.333 C 182.396 132.333,180.825 131.404,178.255 129.045 C 176.035 127.008,175.936 126.952,177.000 128.333 M193.254 127.902 C 193.669 127.982,194.269 127.979,194.587 127.896 C 194.906 127.812,194.567 127.747,193.833 127.751 C 193.100 127.754,192.839 127.823,193.254 127.902 M185.000 129.500 C 185.622 130.142,186.206 130.667,186.297 130.667 C 186.389 130.667,185.955 130.142,185.333 129.500 C 184.711 128.858,184.128 128.333,184.036 128.333 C 183.944 128.333,184.378 128.858,185.000 129.500 M251.083 135.230 C 251.404 135.314,251.929 135.314,252.250 135.230 C 252.571 135.146,252.308 135.077,251.667 135.077 C 251.025 135.077,250.762 135.146,251.083 135.230 M188.762 138.167 C 188.765 139.083,188.829 139.419,188.906 138.912 C 188.982 138.405,188.980 137.655,188.901 137.245 C 188.822 136.835,188.760 137.250,188.762 138.167 M279.860 138.711 C 280.518 139.774,275.053 142.017,269.400 143.004 C 263.968 143.952,263.743 144.153,260.975 150.549 C 260.034 152.722,259.035 154.993,258.755 155.595 C 257.167 159.012,260.796 153.416,262.979 149.083 C 263.187 148.671,263.625 148.333,263.954 148.333 C 264.282 148.333,264.903 147.958,265.333 147.500 C 265.764 147.042,266.353 146.677,266.641 146.690 C 267.025 146.707,266.986 146.791,266.500 147.000 C 265.403 147.472,266.598 147.369,268.785 146.805 C 271.858 146.011,275.859 143.788,278.009 141.680 C 280.150 139.581,280.906 138.444,280.163 138.444 C 279.906 138.444,279.770 138.564,279.860 138.711 M243.058 151.056 C 243.026 151.729,242.903 152.554,242.784 152.889 C 242.620 153.355,242.664 153.412,242.972 153.129 C 243.215 152.906,243.324 152.172,243.246 151.295 C 243.124 149.915,243.113 149.902,243.058 151.056 M195.907 157.500 C 196.298 158.050,197.073 159.025,197.629 159.667 L 198.640 160.833 198.262 159.833 C 198.054 159.283,197.279 158.308,196.539 157.667 C 195.212 156.514,195.204 156.512,195.907 157.500 M253.140 162.884 C 253.277 163.241,253.021 163.811,252.427 164.470 L 251.500 165.498 252.447 164.665 C 253.780 163.495,254.117 162.783,253.457 162.530 C 253.062 162.378,252.981 162.469,253.140 162.884 M195.422 168.912 C 189.865 179.671,188.004 186.488,187.995 196.127 C 187.990 201.752,187.789 202.793,186.859 202.021 C 186.081 201.376,186.220 202.128,187.010 202.843 C 188.157 203.880,188.719 202.916,188.890 199.615 C 189.433 189.161,191.637 183.371,197.483 177.037 C 200.393 173.885,200.593 173.903,206.965 177.920 L 208.762 179.053 208.558 177.777 C 208.405 176.823,208.034 176.253,207.093 175.524 C 204.206 173.286,202.027 170.658,200.639 167.736 C 199.880 166.140,199.153 164.617,199.023 164.353 C 198.494 163.281,198.022 163.878,195.422 168.912 M202.011 166.773 C 201.989 167.328,203.994 169.883,205.721 171.500 L 207.500 173.167 205.971 171.500 C 203.749 169.078,202.981 167.971,203.225 167.544 C 203.343 167.337,203.318 167.277,203.170 167.411 C 203.021 167.546,202.702 167.396,202.460 167.078 C 202.219 166.760,202.016 166.623,202.011 166.773 M250.343 169.315 C 249.889 169.663,249.379 169.861,249.208 169.756 C 249.037 169.650,249.002 169.734,249.130 169.941 C 249.456 170.469,248.131 172.158,246.592 173.177 L 245.301 174.031 245.358 177.336 L 245.415 180.642 246.305 180.181 C 247.852 179.381,251.340 176.622,252.257 175.473 C 252.839 174.744,253.265 174.471,253.508 174.673 C 253.710 174.841,253.461 174.121,252.954 173.073 C 252.447 172.024,251.936 170.604,251.820 169.917 C 251.578 168.489,251.473 168.446,250.343 169.315 M190.333 169.557 C 179.006 170.175,156.368 175.593,142.500 181.006 C 140.483 181.793,138.783 182.565,138.722 182.721 C 138.660 182.877,138.473 182.919,138.305 182.816 C 138.137 182.712,138.000 182.795,138.000 183.000 C 138.000 183.205,137.850 183.280,137.667 183.167 C 137.483 183.053,137.333 183.128,137.333 183.333 C 137.333 183.538,137.183 183.613,137.000 183.500 C 136.817 183.387,136.667 183.462,136.667 183.667 C 136.667 183.872,136.517 183.947,136.333 183.833 C 136.150 183.720,136.000 183.782,136.000 183.972 C 136.000 184.387,134.085 185.425,133.727 185.204 C 132.977 184.741,122.975 192.343,119.667 195.891 L 118.167 197.500 119.679 196.083 C 120.511 195.304,121.378 194.667,121.606 194.667 C 121.834 194.667,122.107 194.442,122.212 194.168 C 122.727 192.827,146.137 181.220,149.833 180.473 C 150.017 180.436,151.067 180.175,152.167 179.892 C 153.267 179.610,155.067 179.209,156.167 179.002 C 157.267 178.795,158.467 178.561,158.833 178.482 C 165.567 177.035,170.220 177.083,174.167 178.638 C 181.490 181.525,184.928 184.190,185.705 187.583 C 186.073 189.189,186.667 189.980,186.667 188.864 C 186.667 187.897,189.079 180.143,190.802 175.572 C 193.108 169.454,193.147 169.319,192.606 169.395 C 192.364 169.429,191.342 169.502,190.333 169.557 M231.083 177.563 C 231.404 177.647,231.929 177.647,232.250 177.563 C 232.571 177.479,232.308 177.411,231.667 177.411 C 231.025 177.411,230.762 177.479,231.083 177.563 M111.452 188.423 C 111.059 188.649,109.709 189.680,108.452 190.714 C 107.195 191.748,104.742 193.308,103.000 194.181 C 98.992 196.188,95.152 198.348,92.167 200.274 C 89.250 202.156,88.739 202.621,90.631 201.672 C 91.437 201.268,93.762 200.285,95.798 199.487 C 97.834 198.690,101.375 197.263,103.667 196.317 C 108.363 194.379,111.495 193.695,115.757 193.678 L 118.681 193.667 121.660 191.083 L 124.639 188.500 123.604 188.282 C 121.666 187.874,112.218 187.984,111.452 188.423 M186.084 190.833 C 186.088 191.567,186.156 191.827,186.236 191.413 C 186.315 190.998,186.312 190.398,186.229 190.079 C 186.146 189.761,186.080 190.100,186.084 190.833 M185.779 197.000 C 185.779 198.375,185.838 198.938,185.909 198.250 C 185.981 197.563,185.981 196.438,185.909 195.750 C 185.838 195.063,185.779 195.625,185.779 197.000 M84.333 205.427 C 84.058 205.651,83.614 206.133,83.346 206.500 C 83.078 206.867,83.341 206.726,83.929 206.188 C 84.889 205.310,85.167 204.979,84.917 205.011 C 84.871 205.016,84.608 205.204,84.333 205.427 M266.138 212.167 C 266.138 215.467,266.188 216.772,266.249 215.066 C 266.309 213.361,266.309 210.661,266.248 209.066 C 266.187 207.472,266.137 208.867,266.138 212.167 M265.757 224.000 C 265.757 224.825,265.822 225.162,265.902 224.750 C 265.981 224.338,265.981 223.662,265.902 223.250 C 265.822 222.838,265.757 223.175,265.757 224.000 M150.575 224.532 C 151.835 226.263,156.715 227.409,156.226 225.860 C 156.117 225.515,152.769 224.211,151.027 223.835 L 149.888 223.589 150.575 224.532 M135.293 227.748 C 127.938 235.327,123.721 253.203,123.479 277.833 C 123.352 290.811,123.282 290.769,125.171 278.840 C 126.942 267.651,130.154 256.907,134.265 248.420 C 134.895 247.120,135.136 246.269,134.931 246.065 C 134.755 245.889,134.661 244.622,134.722 243.250 C 134.833 240.766,134.830 240.756,134.082 241.098 C 132.525 241.810,132.771 239.999,134.362 239.031 C 134.895 238.707,135.230 238.341,135.106 238.217 C 134.982 238.093,135.183 237.581,135.553 237.079 C 135.936 236.560,136.311 235.377,136.424 234.333 C 136.533 233.325,137.009 231.560,137.483 230.410 L 138.344 228.321 137.609 227.327 C 136.706 226.105,136.926 226.065,135.293 227.748 M107.417 234.167 C 107.421 234.900,107.489 235.161,107.569 234.746 C 107.649 234.331,107.646 233.731,107.562 233.413 C 107.479 233.094,107.414 233.433,107.417 234.167 M178.737 234.121 C 177.401 234.529,176.413 234.969,176.542 235.098 C 177.020 235.576,179.733 235.313,181.000 234.667 C 182.482 233.911,183.864 233.800,184.113 234.417 C 184.245 234.744,184.286 234.743,184.307 234.408 C 184.380 233.233,182.041 233.112,178.737 234.121 M144.576 235.241 C 145.168 235.314,146.218 235.315,146.909 235.243 C 147.601 235.171,147.117 235.111,145.833 235.109 C 144.550 235.108,143.984 235.167,144.576 235.241 M139.834 238.612 C 139.926 238.704,139.740 239.091,139.420 239.473 C 138.996 239.978,139.086 239.947,139.752 239.359 C 140.823 238.413,140.808 238.444,140.167 238.444 C 139.892 238.444,139.742 238.520,139.834 238.612 M184.433 240.000 C 184.433 241.008,184.496 241.421,184.572 240.917 C 184.648 240.412,184.648 239.588,184.572 239.083 C 184.496 238.579,184.433 238.992,184.433 240.000 M156.000 240.500 C 156.996 241.508,157.886 242.333,157.977 242.333 C 158.069 242.333,157.329 241.508,156.333 240.500 C 155.338 239.492,154.448 238.667,154.356 238.667 C 154.264 238.667,155.004 239.492,156.000 240.500 M182.424 249.333 C 182.424 250.158,182.489 250.496,182.569 250.083 C 182.648 249.671,182.648 248.996,182.569 248.583 C 182.489 248.171,182.424 248.508,182.424 249.333 M163.333 250.836 C 163.333 258.843,157.905 275.284,153.677 280.078 L 152.286 281.656 152.998 284.411 C 153.930 288.017,154.962 291.072,157.308 297.167 C 158.366 299.917,159.446 302.767,159.707 303.500 C 160.311 305.194,163.224 306.325,167.189 306.406 C 170.185 306.467,170.121 306.525,169.702 304.118 C 169.515 303.045,169.325 300.338,169.278 298.104 L 169.195 294.040 170.431 292.246 C 171.858 290.173,172.122 288.733,170.961 289.354 C 169.772 289.991,168.983 288.939,169.849 287.872 C 170.207 287.431,171.424 285.936,172.553 284.551 C 174.801 281.793,177.671 277.318,179.854 273.167 L 181.256 270.500 181.469 264.500 C 181.586 261.200,181.733 258.125,181.795 257.667 C 181.857 257.208,181.843 257.096,181.764 257.417 C 181.359 259.061,178.479 258.642,173.077 256.154 C 170.947 255.172,164.688 250.844,164.157 249.984 C 163.737 249.304,163.333 249.721,163.333 250.836 M106.459 255.667 C 106.459 257.775,106.514 258.637,106.580 257.583 C 106.646 256.529,106.646 254.804,106.580 253.750 C 106.514 252.696,106.459 253.558,106.459 255.667 M184.077 255.000 C 184.077 255.642,184.146 255.904,184.230 255.583 C 184.314 255.262,184.314 254.737,184.230 254.417 C 184.146 254.096,184.077 254.358,184.077 255.000 M183.744 259.667 C 183.744 260.308,183.813 260.571,183.896 260.250 C 183.980 259.929,183.980 259.404,183.896 259.083 C 183.813 258.762,183.744 259.025,183.744 259.667 M238.744 263.406 C 238.358 263.872,237.079 273.131,236.107 282.500 C 235.269 290.580,235.282 305.904,236.132 311.667 C 236.470 313.958,236.926 317.183,237.146 318.833 C 237.696 322.966,238.132 321.467,237.695 316.943 C 237.132 311.113,236.970 306.066,236.953 293.886 C 236.938 283.195,237.053 279.662,237.526 276.333 C 237.617 275.692,237.835 274.153,238.012 272.913 C 238.188 271.674,238.632 269.539,238.999 268.169 C 239.923 264.721,239.786 262.151,238.744 263.406 M106.091 265.333 C 106.091 266.158,106.156 266.496,106.235 266.083 C 106.315 265.671,106.315 264.996,106.235 264.583 C 106.156 264.171,106.091 264.508,106.091 265.333 M183.445 271.333 C 183.445 272.708,183.504 273.271,183.576 272.583 C 183.648 271.896,183.648 270.771,183.576 270.083 C 183.504 269.396,183.445 269.958,183.445 271.333 M105.751 270.833 C 105.754 271.567,105.823 271.827,105.902 271.413 C 105.982 270.998,105.979 270.398,105.896 270.079 C 105.812 269.761,105.747 270.100,105.751 270.833 M121.655 295.417 C 121.421 296.012,120.371 298.300,119.321 300.500 C 117.067 305.222,116.828 306.000,117.634 306.000 C 118.768 306.000,119.302 305.098,120.594 301.000 C 122.271 295.677,122.945 292.132,121.655 295.417 M108.751 295.833 C 108.754 296.567,108.823 296.827,108.902 296.413 C 108.982 295.998,108.979 295.398,108.896 295.079 C 108.812 294.761,108.747 295.100,108.751 295.833 M108.424 301.000 C 108.424 301.825,108.489 302.162,108.569 301.750 C 108.648 301.337,108.648 300.662,108.569 300.250 C 108.489 299.837,108.424 300.175,108.424 301.000 M188.429 303.167 C 188.431 304.083,188.496 304.419,188.573 303.912 C 188.649 303.405,188.647 302.655,188.568 302.245 C 188.489 301.835,188.426 302.250,188.429 303.167 M205.450 307.333 C 205.450 308.892,205.507 309.529,205.577 308.750 C 205.648 307.971,205.648 306.696,205.577 305.917 C 205.507 305.137,205.450 305.775,205.450 307.333 M251.417 310.500 C 251.421 311.233,251.489 311.494,251.569 311.079 C 251.649 310.665,251.646 310.065,251.562 309.746 C 251.479 309.427,251.414 309.767,251.417 310.500 M188.790 315.667 C 188.790 317.592,188.845 318.379,188.912 317.417 C 188.980 316.454,188.980 314.879,188.912 313.917 C 188.845 312.954,188.790 313.742,188.790 315.667 M176.667 319.646 C 176.667 319.841,176.790 320.000,176.940 320.000 C 177.090 320.000,177.840 320.537,178.607 321.193 C 179.373 321.849,180.000 322.280,180.000 322.152 C 180.000 322.023,180.262 322.124,180.583 322.376 C 181.111 322.790,181.123 322.778,180.712 322.254 C 180.462 321.935,180.125 321.756,179.962 321.857 C 179.800 321.957,179.667 321.906,179.667 321.743 C 179.667 321.580,178.992 320.962,178.167 320.369 C 177.342 319.777,176.667 319.451,176.667 319.646 M120.411 324.000 C 120.411 324.642,120.479 324.904,120.563 324.583 C 120.647 324.262,120.647 323.737,120.563 323.417 C 120.479 323.096,120.411 323.358,120.411 324.000 M188.077 333.667 C 188.077 334.308,188.146 334.571,188.230 334.250 C 188.314 333.929,188.314 333.404,188.230 333.083 C 188.146 332.762,188.077 333.025,188.077 333.667 M194.424 346.000 C 194.424 346.825,194.489 347.162,194.569 346.750 C 194.648 346.337,194.648 345.662,194.569 345.250 C 194.489 344.837,194.424 345.175,194.424 346.000 M248.333 345.139 C 248.333 345.399,248.146 345.687,247.917 345.779 C 247.668 345.880,247.735 345.958,248.083 345.974 C 248.453 345.990,248.667 345.756,248.667 345.333 C 248.667 344.967,248.592 344.667,248.500 344.667 C 248.408 344.667,248.333 344.879,248.333 345.139 M268.000 345.000 L 266.833 345.246 267.897 345.289 C 268.482 345.314,269.053 345.183,269.167 345.000 C 269.280 344.817,269.326 344.686,269.270 344.711 C 269.213 344.735,268.642 344.865,268.000 345.000 "
              stroke="none" fill="#62401d" fill-rule="evenodd"></path>
    </g>
</svg>